<svg width="708" height="502" fill="none" xmlns="http://www.w3.org/2000/svg">
  <g filter="url(#filter0_dd)">
    <path d="M180 40a8 8 0 018-8h464a8 8 0 018 8v296a8 8 0 01-8 8H188a8 8 0 01-8-8V40z" fill="#fff"/>
    <mask id="a" maskUnits="userSpaceOnUse" x="196" y="126" width="336" height="218">
      <path d="M532 340a4 4 0 01-4 4H200a4 4 0 01-4-4V130a4 4 0 014-4h328a4 4 0 014 4v210z" fill="#fff"/>
    </mask>
    <g mask="url(#a)">
      <path d="M532 378H196V126h336v252z" fill="url(#paint0_linear)"/>
      <path d="M580.3 398.7l-126-124-44 41.4-115.6-113.6-233 229.2 233 229.3 149.1-146.6 10.5 8.2 126-124zM462.7 241.6c16.2 0 29.4-13 29.4-28.9 0-16-13.2-29-29.4-29-16.3 0-29.4 13-29.4 29s13.1 29 29.4 29z" fill="#000" fill-opacity=".1"/>
    </g>
    <path d="M392 216a4 4 0 014-4h264v132H392V216z" fill="#fff"/>
    <mask id="b" maskUnits="userSpaceOnUse" x="392" y="212" width="268" height="132">
      <path d="M392 216a4 4 0 014-4h264v132H392V216z" fill="#fff"/>
    </mask>
    <g mask="url(#b)">
      <path d="M412.6 273.2h2.7v7.8h1v-7.8h2.8v-1h-6.5v1zm9.7 8c1.8 0 3-1.4 3-3.4s-1.2-3.4-3-3.4c-1.7 0-3 1.3-3 3.4 0 2 1.3 3.3 3 3.3zm0-1c-1.3 0-2-1.1-2-2.4 0-1.4.7-2.5 2-2.5 1.4 0 2 1.1 2 2.5 0 1.3-.6 2.4-2 2.4zm7 1c1.3 0 1.7-.8 2-1.2v1h1v-8.7h-1v3.2c-.3-.3-.7-1.1-2-1.1-1.6 0-2.8 1.3-2.8 3.3 0 2.1 1.2 3.4 2.8 3.4zm.1-1c-1.2 0-1.9-1-1.9-2.5 0-1.4.7-2.4 2-2.4 1.2 0 1.8 1 1.8 2.4 0 1.5-.7 2.5-1.9 2.5zm6.8 1c1.2 0 1.7-.7 2-1v.8h1v-4.3c0-2-1.6-2.3-2.4-2.3-1 0-2.1.3-2.6 1.5l1 .3c.1-.4.7-1 1.6-1 1 0 1.4.5 1.4 1.4 0 .5-.5.5-1.7.6-1.2.2-2.5.4-2.5 2 0 1.2 1 2 2.2 2zm.2-1c-.8 0-1.4-.3-1.4-1 0-.8.7-1 1.5-1.1.4 0 1.5-.2 1.7-.4v1c0 .7-.6 1.6-1.8 1.6zm5 3.2c1 0 1.6-.4 2-1.4l2.8-7.5H445l-1.8 5.2h-.1l-1.8-5.2h-1.1l2.4 6.5-.2.5c-.3 1-.8 1.1-1.5 1l-.3.8.8.1zm11-2.4h1l1.4-5 1.5 5h1l2-6.5h-1l-1.5 5-1.4-5h-1.1l-1.4 5-1.5-5h-1l2 6.5zm10.7.1c1.4 0 2.3-.6 2.7-1.6l-1-.3c-.3.7-.9 1-1.7 1-1.1 0-2-.7-2-2.1h4.8v-.5c0-2.4-1.5-3.2-2.9-3.2-1.7 0-2.9 1.4-2.9 3.4s1.2 3.3 3 3.3zm-2-3.9c0-1 .8-2 2-2 1 0 1.7.9 1.7 2h-3.7zm7.2-5h-1v.9a3 3 0 01-.6 1.6l.5.5a3 3 0 001-2.2v-.7zm1.5 8.8h1v-4.1c0-1 .7-1.6 1.6-1.6h.7v-1h-.6c-.8 0-1.4.5-1.7 1.1v-1h-1v6.6zm7 .1c1.3 0 2.3-.6 2.6-1.6l-1-.3c-.2.7-.8 1-1.6 1-1.2 0-2-.7-2-2.1h4.7v-.5c0-2.4-1.4-3.2-2.8-3.2-1.8 0-3 1.4-3 3.4s1.2 3.3 3 3.3zm-2-3.9c0-1 .7-2 1.9-2 1 0 1.8.9 1.8 2h-3.8zm12.3 4c1.4 0 2.3-.7 2.7-1.7l-1-.3c-.3.7-.9 1-1.7 1-1.1 0-2-.7-2-2.1h4.8v-.5c0-2.4-1.5-3.2-2.9-3.2-1.7 0-2.9 1.4-2.9 3.4s1.2 3.3 3 3.3zm-2-4c0-1 .8-2 2-2 1 0 1.7.9 1.7 2h-3.7zm6.9-2.7h-1.2l2 3.2-2 3.3h1.2l1.5-2.5 1.6 2.5h1.2l-2.2-3.3 2.2-3.2H495l-1.6 2.6-1.5-2.6zm8 6.6c1.5 0 2.5-.9 2.7-2h-1c-.2.7-.8 1.1-1.6 1.1-1.2 0-2-1-2-2.5s.8-2.4 2-2.4c.9 0 1.4.5 1.6 1.1h1c-.2-1.2-1.3-2-2.6-2-1.8 0-3 1.4-3 3.4s1.1 3.3 3 3.3zm4.1-.1h1v-6.5h-1v6.5zm.5-7.6c.4 0 .8-.3.8-.7 0-.4-.4-.7-.8-.7s-.7.3-.7.7c0 .4.3.7.7.7zm5.2 1h-1.4V273h-1v1.6h-1v.8h1v4.1c0 1.1 1 1.7 1.8 1.7l.7-.1-.2-1-.4.1c-.4 0-.9-.1-.9-1v-3.8h1.4v-.8zm4.2 6.7c1.3 0 2.3-.6 2.6-1.6l-1-.3c-.2.7-.8 1-1.6 1-1.2 0-2-.7-2-2.1h4.7v-.5c0-2.4-1.4-3.2-2.8-3.2-1.8 0-3 1.4-3 3.4s1.2 3.3 3.1 3.3zm-2-3.9c0-1 .8-2 2-2 1 0 1.7.9 1.7 2H512zm8.7 4c1.3 0 1.7-.8 2-1.2v1h1v-8.7h-1v3.2c-.3-.3-.7-1.1-2-1.1-1.6 0-2.8 1.3-2.8 3.3 0 2.1 1.2 3.4 2.8 3.4zm.2-1c-1.3 0-2-1-2-2.5 0-1.4.7-2.4 2-2.4 1.2 0 1.8 1 1.8 2.4 0 1.5-.6 2.5-1.8 2.5zm11-5.7h-1.4v-1.6h-1v1.6h-1v.8h1v4.1c0 1.1 1 1.7 1.8 1.7l.7-.1-.2-1-.4.1c-.4 0-.9-.1-.9-1v-3.8h1.4v-.8zm4.1 6.6c1.8 0 3-1.3 3-3.3 0-2-1.2-3.4-3-3.4-1.7 0-3 1.3-3 3.4 0 2 1.3 3.3 3 3.3zm0-.9c-1.3 0-2-1.1-2-2.4 0-1.4.7-2.5 2-2.5 1.4 0 2 1.1 2 2.5 0 1.3-.6 2.4-2 2.4zm9.8 1c1.2 0 1.8-.7 2-1v.8h1v-4.3c0-2-1.6-2.3-2.4-2.3-1 0-2.1.3-2.6 1.5l1 .3c.2-.4.7-1 1.6-1 1 0 1.4.5 1.4 1.4 0 .5-.5.5-1.7.6-1.2.2-2.5.4-2.5 2 0 1.2 1 2 2.2 2zm.2-1c-.8 0-1.4-.3-1.4-1 0-.8.7-1 1.5-1.1.4 0 1.6-.2 1.7-.4v1c0 .7-.6 1.6-1.8 1.6zm5.7-3.1c0-1.2.7-1.8 1.6-1.8 1 0 1.5.6 1.5 1.6v4.1h1v-4.2c0-1.6-.8-2.4-2.2-2.4-1 0-1.6.4-1.9 1v-1h-1v6.6h1v-4zm7 0c0-1.2.7-1.8 1.7-1.8.9 0 1.5.6 1.5 1.6v4.1h1v-4.2c0-1.6-1-2.4-2.3-2.4-1 0-1.6.4-1.9 1v-1h-1v6.6h1v-4zm8.7 4c1.7 0 3-1.3 3-3.3 0-2-1.3-3.4-3-3.4-1.8 0-3 1.3-3 3.4 0 2 1.2 3.3 3 3.3zm0-.9c-1.4 0-2-1.1-2-2.4 0-1.4.6-2.5 2-2.5 1.3 0 2 1.1 2 2.5 0 1.3-.7 2.4-2 2.4zm8.6-1.9c0 1.3-1 1.8-1.7 1.8-.8 0-1.4-.6-1.4-1.6v-4h-1v4.1c0 1.7.8 2.5 2 2.5a2 2 0 002-1.2v1.1h1v-6.5h-1v3.8zm3.8-1.2c0-1.2.7-1.8 1.7-1.8s1.5.6 1.5 1.6v4.1h1v-4.2c0-1.6-.9-2.4-2.2-2.4-1 0-1.6.4-2 1v-1h-1v6.6h1v-4zm8.7 4c1.5 0 2.4-.9 2.6-2h-1c-.2.7-.8 1.1-1.6 1.1-1.2 0-2-1-2-2.5s.8-2.4 2-2.4c.9 0 1.4.5 1.6 1.1h1c-.2-1.2-1.2-2-2.6-2-1.8 0-3 1.4-3 3.4s1.2 3.3 3 3.3zm6.8 0c1.3 0 2.3-.6 2.6-1.6l-1-.3c-.2.7-.8 1-1.6 1-1.2 0-2-.7-2-2.1h4.7v-.5c0-2.4-1.4-3.2-2.8-3.2-1.8 0-3 1.4-3 3.4s1.2 3.3 3.1 3.3zm-2-3.9c0-1 .7-2 1.9-2 1 0 1.8.9 1.8 2h-3.7zm12.3 4c1.7 0 3-1.4 3-3.4s-1.3-3.4-3-3.4c-1.8 0-3 1.3-3 3.4 0 2 1.2 3.3 3 3.3zm0-1c-1.4 0-2-1.1-2-2.4 0-1.4.6-2.5 2-2.5 1.3 0 2 1.1 2 2.5 0 1.3-.7 2.4-2 2.4zm8.6-1.9c0 1.3-1 1.8-1.7 1.8-.8 0-1.4-.6-1.4-1.6v-4h-1v4.1c0 1.7.9 2.5 2 2.5a2 2 0 002-1.2h.1v1.1h1v-6.5h-1v3.8zm2.8 2.7h1v-4.1c0-1 .8-1.6 1.7-1.6h.6v-1h-.5c-.8 0-1.5.5-1.7 1.1v-1h-1v6.6zm-201.2 11.5h-1.4v-.7c0-.7.2-1 1-1l.5.1.3-.9-1-.1c-1 0-1.8.5-1.8 1.7v.9h-1v.8h1v5.7h1v-5.7h1.4v-.8zm1.4 6.5h1v-6.5h-1v6.5zm.6-7.6c.3 0 .7-.3.7-.7 0-.4-.4-.7-.7-.7-.4 0-.8.3-.8.7 0 .4.4.7.8.7zm2.3 7.6h1v-4.1c0-1 .7-1.6 1.7-1.6h.6v-1h-.6c-.7 0-1.4.5-1.7 1.1v-1h-1v6.6zm9-5c-.2-1-1-1.6-2.2-1.6-1.4 0-2.4.8-2.4 1.9 0 .9.5 1.5 1.7 1.8l1.1.2c.7.2 1 .5 1 1s-.6 1-1.6 1c-.8 0-1.3-.4-1.5-1.1l-1 .2c.3 1.1 1.2 1.7 2.6 1.7 1.5 0 2.5-.8 2.5-2 0-.8-.6-1.4-1.7-1.7l-1-.2c-.8-.2-1.1-.5-1.1-1 0-.6.6-1 1.4-1 .9 0 1.2.5 1.4 1l.9-.3zm4.6-1.5h-1.4v-1.6h-1v1.6h-1v.8h1v4.1c0 1.1.9 1.7 1.7 1.7l.8-.1-.2-1-.5.1c-.4 0-.8-.1-.8-1v-3.8h1.4v-.8zm7.5 6.6c1.5 0 2.4-.9 2.6-2h-1c-.2.7-.8 1.1-1.6 1.1-1.2 0-2-1-2-2.5s.8-2.4 2-2.4c1 0 1.4.5 1.6 1.1h1c-.2-1.2-1.2-2-2.6-2-1.8 0-3 1.4-3 3.4s1.2 3.3 3 3.3zm6.7 0c1.8 0 3-1.3 3-3.3 0-2-1.2-3.4-3-3.4-1.7 0-3 1.3-3 3.4 0 2 1.3 3.3 3 3.3zm0-.9c-1.3 0-2-1.1-2-2.4 0-1.4.7-2.5 2-2.5 1.4 0 2 1.1 2 2.5 0 1.3-.6 2.4-2 2.4zm4.5.8h1v-4c0-1 .7-1.7 1.5-1.7s1.3.5 1.3 1.2v4.5h1v-4.3c0-.8.6-1.4 1.5-1.4.7 0 1.3.4 1.3 1.3v4.4h1v-4.4c0-1.5-.8-2.2-2-2.2-1 0-1.6.4-2 1-.3-.6-.9-1-1.8-1-.8 0-1.4.4-1.7 1h-.1v-1h-1v6.6zm10.5 0h1v-4c0-1 .7-1.7 1.4-1.7.8 0 1.3.5 1.3 1.2v4.5h1v-4.3c0-.8.6-1.4 1.5-1.4.7 0 1.3.4 1.3 1.3v4.4h1v-4.4c0-1.5-.8-2.2-2-2.2-.9 0-1.6.4-2 1-.3-.6-.9-1-1.7-1-.9 0-1.5.4-1.8 1v-1h-1v6.6zm13.1.1c1.4 0 2.3-.6 2.6-1.6l-1-.3c-.2.7-.8 1-1.6 1-1.2 0-2-.7-2-2.1h4.7v-.5c0-2.4-1.4-3.2-2.8-3.2-1.7 0-3 1.4-3 3.4s1.2 3.3 3.1 3.3zm-2-3.9c0-1 .8-2 2-2 1 0 1.7.9 1.7 2H474zm6.3 3.8h1v-4.1c0-1 .7-1.6 1.6-1.6h.6v-1h-.5c-.8 0-1.5.5-1.7 1.1v-1h-1v6.6zm6.9.1c1.4 0 2.4-.9 2.6-2h-1c-.2.7-.8 1.1-1.6 1.1-1.2 0-2-1-2-2.5s.8-2.4 2-2.4c.9 0 1.4.5 1.6 1.1h1c-.2-1.2-1.2-2-2.6-2-1.8 0-3 1.4-3 3.4s1.2 3.3 3 3.3zm4-.1h1v-6.5h-1v6.5zm.5-7.6c.4 0 .8-.3.8-.7 0-.4-.4-.7-.8-.7-.3 0-.7.3-.7.7 0 .4.4.7.7.7zm4.3 7.8c1.2 0 1.7-.7 2-1v.8h1v-4.3c0-2-1.6-2.3-2.4-2.3-1 0-2.1.3-2.6 1.5l1 .3c.1-.4.7-1 1.6-1 1 0 1.4.5 1.4 1.4 0 .5-.5.5-1.7.6-1.2.2-2.5.4-2.5 2 0 1.2 1 2 2.2 2zm.2-1c-.8 0-1.4-.3-1.4-1 0-.8.7-1 1.5-1.1.4 0 1.5-.2 1.7-.4v1c0 .7-.6 1.6-1.8 1.6zm5.7-8h-1v8.8h1v-8.7zm7.8 9c1.8 0 3-1.4 3-3.4s-1.2-3.4-3-3.4c-1.7 0-3 1.3-3 3.4 0 2 1.3 3.3 3 3.3zm0-1c-1.3 0-2-1.1-2-2.4 0-1.4.7-2.5 2-2.5 1.4 0 2 1.1 2 2.5 0 1.3-.6 2.4-2 2.4zm7.4-5.7h-1.4v-.7c0-.7.3-1 1-1l.5.1.3-.9-1-.1c-1 0-1.8.5-1.8 1.7v.9h-1v.8h1v5.7h1v-5.7h1.4v-.8zm4.4 0H520v-.7c0-.7.3-1 1-1l.5.1.3-.9-1-.1c-.9 0-1.8.5-1.8 1.7v.9h-1v.8h1v5.7h1v-5.7h1.5v-.8zm3.9 6.6c1.3 0 2.3-.6 2.6-1.6l-1-.3c-.3.7-.9 1-1.6 1-1.2 0-2-.7-2-2.1h4.7v-.5c0-2.4-1.5-3.2-2.9-3.2-1.7 0-2.9 1.4-2.9 3.4s1.2 3.3 3 3.3zm-2-3.9c0-1 .7-2 1.9-2 1 0 1.7.9 1.7 2h-3.7zm6.2 3.8h1v-4.1c0-1 .7-1.6 1.7-1.6h.6v-1h-.6c-.7 0-1.4.5-1.7 1.1v-1h-1v6.6zm4.5 0h1v-6.5h-1v6.5zm.5-7.6c.4 0 .7-.3.7-.7 0-.4-.3-.7-.7-.7-.4 0-.7.3-.7.7 0 .4.3.7.7.7zm3.3 3.7c0-1.2.7-1.8 1.7-1.8s1.5.6 1.5 1.6v4.1h1v-4.2c0-1.6-.9-2.4-2.2-2.4-1 0-1.6.4-2 1v-1h-1v6.6h1v-4zm8.7 6.5c1.5 0 2.8-.7 2.8-2.4v-6.7h-1v1c-.3-.3-.7-1.1-2-1.1-1.6 0-2.8 1.3-2.8 3.3 0 2 1.2 3.2 2.8 3.2 1.3 0 1.7-.8 1.9-1.1v1.3c0 1.1-.7 1.6-1.7 1.6-1.2 0-1.6-.6-2-1l-.7.6c.4.7 1.2 1.3 2.7 1.3zm0-3.6c-1.3 0-2-1-2-2.3 0-1.4.7-2.4 2-2.4 1.2 0 1.8 1 1.8 2.4s-.7 2.3-1.9 2.3zm6.1-.2h-1l-.1.5-.5 2.8h.8l.8-2.8v-.5zm7.2 1.4c1.1 0 1.7-.7 2-1v.8h1v-4.3c0-2-1.6-2.3-2.4-2.3-1 0-2.1.3-2.6 1.5l1 .3c.1-.4.7-1 1.6-1 1 0 1.4.5 1.4 1.4 0 .5-.5.5-1.7.6-1.2.2-2.5.4-2.5 2 0 1.2 1 2 2.2 2zm.2-1c-.8 0-1.4-.3-1.4-1 0-.8.7-1 1.5-1.1.4 0 1.5-.2 1.7-.4v1c0 .7-.7 1.6-1.8 1.6zm9-3.1c0-1.2.7-1.8 1.7-1.8s1.6.6 1.6 1.6v4.1h1v-4.2c0-1.6-1-2.4-2.3-2.4-1 0-1.6.4-1.9 1v-3.1h-1v8.7h1v-4zm8.8 4c1.7 0 3-1.3 3-3.3 0-2-1.3-3.4-3-3.4-1.8 0-3 1.3-3 3.4 0 2 1.2 3.3 3 3.3zm0-.9c-1.4 0-2-1.1-2-2.4 0-1.4.6-2.5 2-2.5 1.3 0 2 1.1 2 2.5 0 1.3-.7 2.4-2 2.4zm9.1-4.3c-.3-1-1-1.5-2.3-1.5-1.4 0-2.4.8-2.4 1.9 0 .9.5 1.5 1.7 1.8l1.1.2c.7.2 1 .5 1 1s-.6 1-1.6 1c-.8 0-1.3-.4-1.5-1.1l-1 .2c.3 1.1 1.2 1.7 2.6 1.7 1.5 0 2.5-.8 2.5-2 0-.8-.6-1.4-1.7-1.7l-1-.2c-.8-.2-1.1-.5-1.1-1 0-.6.6-1 1.4-1 .9 0 1.2.5 1.4 1l.9-.3zm4.5-1.4H590v-1.6h-1v1.6h-1v.8h1v4.1c0 1.1.9 1.7 1.7 1.7l.8-.1-.2-1-.4.1c-.5 0-1-.1-1-1v-3.8h1.5v-.8zm4.2 6.6c1.3 0 2.3-.6 2.6-1.6l-1-.3c-.3.7-.8 1-1.6 1-1.2 0-2-.7-2-2.1h4.7v-.5c0-2.4-1.5-3.2-2.8-3.2-1.8 0-3 1.4-3 3.4s1.2 3.3 3 3.3zm-2-3.9c0-1 .7-2 1.9-2 1 0 1.8.9 1.8 2h-3.8zm8.7 4c1.2 0 1.7-.8 1.9-1.2h.1v1h1v-8.7h-1v3.2h-.1c-.2-.3-.6-1.1-2-1.1-1.6 0-2.7 1.3-2.7 3.3 0 2.1 1.1 3.4 2.8 3.4zm.1-1c-1.2 0-1.9-1-1.9-2.5 0-1.4.6-2.4 2-2.4 1.1 0 1.8 1 1.8 2.4 0 1.5-.7 2.5-1.9 2.5zM419 311h1.1a3.5 3.5 0 00-3.6-2.8c-2.2 0-3.8 1.7-3.8 4.4 0 2.8 1.6 4.5 3.9 4.5 2 0 3.6-1.4 3.6-3.5v-1h-3.4v1h2.3c0 1.5-1 2.5-2.5 2.5-1.6 0-2.9-1.2-2.9-3.5 0-2.2 1.3-3.5 2.8-3.5 1.3 0 2.2.8 2.5 1.9zm4.8 6.2c1.1 0 1.7-.7 2-1v.8h1v-4.3c0-2-1.6-2.3-2.5-2.3-1 0-2 .3-2.6 1.5l1 .3c.2-.4.7-1 1.7-1 .9 0 1.4.5 1.4 1.4 0 .5-.5.5-1.7.6-1.2.2-2.6.4-2.6 2 0 1.2 1 2 2.3 2zm.1-1c-.8 0-1.4-.3-1.4-1 0-.8.7-1 1.5-1.1.4 0 1.6-.2 1.8-.4v1c0 .7-.7 1.6-1.9 1.6zm7.5-5.7H430v-1.6h-1v1.6h-1v.8h1v4.1c0 1.1 1 1.7 1.8 1.7l.8-.1-.2-1-.5.1c-.4 0-.9-.1-.9-1v-3.8h1.4v-.8zm6 1.4c-.2-1-1-1.5-2.2-1.5-1.4 0-2.4.8-2.4 1.9 0 .9.5 1.5 1.7 1.8l1 .2c.7.2 1 .5 1 1s-.5 1-1.5 1c-.8 0-1.3-.4-1.5-1.1l-1 .2c.3 1.1 1.2 1.7 2.5 1.7 1.6 0 2.6-.8 2.6-2 0-.8-.6-1.4-1.7-1.7l-1-.2c-.8-.2-1.1-.5-1.1-1 0-.6.6-1 1.4-1 .8 0 1.2.5 1.4 1l.9-.3zm1.8 5.1h1v-1h.1c.3.4.7 1.1 2 1.1 1.6 0 2.7-1.3 2.7-3.4 0-2-1.1-3.3-2.8-3.3-1.2 0-1.6.8-1.9 1v-3.1h-1v8.7zm1-3.3c0-1.4.7-2.4 2-2.4 1.2 0 1.8 1 1.8 2.4s-.6 2.5-1.9 2.5c-1.2 0-1.9-1-1.9-2.5zm6.8 5.7c.9 0 1.5-.4 1.9-1.4l2.8-7.5h-1.1l-1.8 5.2-1.9-5.2h-1l2.3 6.5-.1.5c-.4 1-.9 1.1-1.6 1l-.3.8.8.1zm9.4 0h1V316c.3.4.7 1.1 2 1.1 1.6 0 2.8-1.3 2.8-3.4 0-2-1.2-3.3-2.8-3.3-1.3 0-1.7.8-2 1v-1h-1v9zm1-5.7c0-1.4.6-2.4 1.9-2.4 1.2 0 1.9 1 1.9 2.4s-.7 2.5-2 2.5c-1.1 0-1.8-1-1.8-2.5zm6.3 3.3h1v-4.1c0-1 .7-1.6 1.7-1.6h.6v-1h-.5c-.8 0-1.5.5-1.8 1.1v-1h-1v6.6zm7 .1c1.3 0 2.3-.6 2.6-1.6l-1-.3c-.2.7-.8 1-1.6 1-1.2 0-2-.7-2-2.1h4.7v-.5c0-2.4-1.4-3.2-2.8-3.2-1.8 0-3 1.4-3 3.4s1.2 3.3 3.1 3.3zm-2-3.9c0-1 .8-2 2-2 1 0 1.7.9 1.7 2h-3.7zm11.6-2.7h-1l-1.9 5.2-1.9-5.2h-1l2.4 6.5h1l2.4-6.5zm1.3 6.5h1v-6.5h-1v6.5zm.6-7.6c.3 0 .7-.3.7-.7 0-.4-.4-.7-.7-.7-.4 0-.8.3-.8.7 0 .4.4.7.8.7zm5 7.7c1.4 0 2.3-.6 2.6-1.6l-1-.3c-.2.7-.8 1-1.6 1-1.1 0-2-.7-2-2.1h4.7v-.5c0-2.4-1.4-3.2-2.8-3.2-1.7 0-3 1.4-3 3.4s1.2 3.3 3.1 3.3zm-2-3.9c0-1 .8-2 2-2 1 0 1.7.9 1.7 2h-3.7zm7.8 3.8h1l1.4-5 1.5 5h1l2-6.5h-1l-1.5 5-1.4-5h-1.1l-1.4 5-1.5-5h-1l2 6.5zm16.2-5c-.3-1-1-1.6-2.3-1.6-1.4 0-2.4.8-2.4 1.9 0 .9.5 1.5 1.8 1.8l1 .2c.7.2 1 .5 1 1s-.6 1-1.5 1c-.8 0-1.4-.4-1.5-1.1l-1 .2c.2 1.1 1.2 1.7 2.5 1.7 1.5 0 2.6-.8 2.6-2 0-.8-.6-1.4-1.8-1.7l-1-.2c-.7-.2-1-.5-1-1 0-.6.5-1 1.3-1 .9 0 1.3.5 1.4 1l1-.3zm4.4 5.1c1.3 0 2.3-.6 2.6-1.6l-1-.3c-.2.7-.8 1-1.6 1-1.2 0-2-.7-2-2.1h4.7v-.5c0-2.4-1.4-3.2-2.8-3.2-1.8 0-3 1.4-3 3.4s1.2 3.3 3.1 3.3zm-2-3.9c0-1 .8-2 2-2 1 0 1.7.9 1.7 2h-3.7zm6.3 3.8h1v-4.1c0-1 .7-1.6 1.6-1.6h.6v-1h-.5c-.8 0-1.5.5-1.7 1.1v-1h-1v6.6zm10-6.5h-1.1l-1.8 5.2h-.1l-1.8-5.2H522l2.4 6.5h1l2.5-6.5zm1.3 6.5h1v-6.5h-1v6.5zm.5-7.6c.4 0 .7-.3.7-.7 0-.4-.3-.7-.7-.7-.4 0-.7.3-.7.7 0 .4.3.7.7.7zm5 7.7c1.4 0 2.4-.9 2.6-2h-1c-.2.7-.8 1.1-1.6 1.1-1.2 0-2-1-2-2.5s.8-2.4 2-2.4c.9 0 1.4.5 1.6 1.1h1c-.2-1.2-1.2-2-2.6-2-1.8 0-3 1.4-3 3.4s1.2 3.3 3 3.3zm6.8 0c1.3 0 2.3-.6 2.6-1.6l-1-.3c-.2.7-.8 1-1.6 1-1.2 0-2-.7-2-2.1h4.7v-.5c0-2.4-1.5-3.2-2.8-3.2-1.8 0-3 1.4-3 3.4s1.2 3.3 3 3.3zm-2-3.9c0-1 .7-2 1.9-2 1 0 1.8.9 1.8 2h-3.8zm12.5-2.7h-1.4v-.7c0-.7.2-1 .9-1l.6.1.2-.9-1-.1c-.8 0-1.8.5-1.8 1.7v.9h-1v.8h1v5.7h1v-5.7h1.5v-.8zm3.8 6.6c1.8 0 3-1.3 3-3.3 0-2-1.2-3.4-3-3.4s-3 1.3-3 3.4c0 2 1.2 3.3 3 3.3zm0-.9c-1.3 0-2-1.1-2-2.4 0-1.4.7-2.5 2-2.5 1.4 0 2 1.1 2 2.5 0 1.3-.6 2.4-2 2.4zm4.5.8h1v-4.1c0-1 .7-1.6 1.7-1.6h.6v-1h-.5c-.8 0-1.5.5-1.7 1.1h-.1v-1h-1v6.6zm10.7-6.5h-1.4v-1.6h-1v1.6h-1v.8h1v4.1c0 1.1 1 1.7 1.8 1.7l.7-.1-.2-1-.4.1c-.5 0-.9-.1-.9-1v-3.8h1.4v-.8zm4.2 6.6c1.3 0 2.3-.6 2.6-1.6l-1-.3c-.2.7-.8 1-1.6 1-1.2 0-2-.7-2-2.1h4.7v-.5c0-2.4-1.4-3.2-2.8-3.2-1.8 0-3 1.4-3 3.4s1.2 3.3 3 3.3zm-2-3.9c0-1 .7-2 1.9-2 1 0 1.8.9 1.8 2h-3.7zm8.2 4c1.1 0 1.7-.7 1.9-1v.8h1v-4.3c0-2-1.5-2.3-2.4-2.3-1 0-2 .3-2.6 1.5l1 .3c.2-.4.7-1 1.7-1 .9 0 1.4.5 1.4 1.4 0 .5-.5.5-1.7.6-1.2.2-2.6.4-2.6 2 0 1.2 1 2 2.3 2zm.1-1c-.8 0-1.4-.3-1.4-1 0-.8.7-1 1.5-1.1.4 0 1.6-.2 1.8-.4v1c0 .7-.7 1.6-1.9 1.6zm4.7.8h1v-4c0-1 .7-1.7 1.5-1.7.7 0 1.3.5 1.3 1.2v4.5h1v-4.3c0-.8.5-1.4 1.5-1.4.7 0 1.3.4 1.3 1.3v4.4h1v-4.4c0-1.5-.8-2.2-2-2.2-1 0-1.6.4-2 1-.4-.6-1-1-1.8-1s-1.5.4-1.7 1h-.1v-1h-1v6.6zm15-5c-.3-1-1-1.6-2.3-1.6-1.3 0-2.4.8-2.4 1.9 0 .9.6 1.5 1.8 1.8l1 .2c.7.2 1 .5 1 1s-.6 1-1.5 1c-.8 0-1.3-.4-1.5-1.1l-1 .2c.3 1.1 1.2 1.7 2.5 1.7 1.5 0 2.6-.8 2.6-2 0-.8-.6-1.4-1.8-1.7l-1-.2c-.7-.2-1-.5-1-1 0-.6.5-1 1.3-1 1 0 1.3.5 1.5 1l.9-.3zm3.2 3.8h-1.1v.5l-.5 2.8h.7c.2-.5.7-1.9.8-2.8v-.5zm-190 19.2h1l1.4-5h.1l1.5 5h1l2-6.5h-1.1l-1.4 5h-.1l-1.4-5h-1l-1.5 5-1.4-5h-1l1.9 6.5zm8.3 0h1v-6.5h-1v6.5zm.5-7.6c.4 0 .7-.3.7-.7 0-.4-.3-.7-.7-.7-.4 0-.7.3-.7.7 0 .4.3.7.7.7zm5.2 1H427V327h-1v1.6h-1v.8h1v4.1c0 1.1.9 1.7 1.7 1.7l.8-.1-.2-1-.5.1c-.4 0-.8-.1-.8-1v-3.8h1.4v-.8zm2.6 2.7c0-1.2.8-1.8 1.7-1.8 1 0 1.6.6 1.6 1.6v4.1h1v-4.2c0-1.6-1-2.4-2.3-2.4-1 0-1.6.4-1.9 1v-3.1h-1v8.7h1v-4zm16.6-2.1a3.4 3.4 0 00-3.5-2.8c-2.2 0-3.8 1.7-3.8 4.4 0 2.8 1.6 4.5 3.8 4.5 1.8 0 3.2-1 3.5-2.8h-1c-.3 1.2-1.3 1.8-2.5 1.8-1.6 0-2.8-1.2-2.8-3.5 0-2.2 1.2-3.5 2.8-3.5 1.2 0 2.2.7 2.5 1.9h1zm4.3 6.1c1.7 0 3-1.3 3-3.3 0-2-1.3-3.4-3-3.4-1.8 0-3 1.3-3 3.4 0 2 1.2 3.3 3 3.3zm0-.9c-1.4 0-2-1.1-2-2.4 0-1.4.6-2.5 2-2.5 1.3 0 2 1.1 2 2.5 0 1.3-.7 2.4-2 2.4zm5.5-3.1c0-1.2.7-1.8 1.7-1.8.9 0 1.4.6 1.4 1.6v4.1h1v-4.2c0-1.6-.8-2.4-2.2-2.4-1 0-1.6.4-1.9 1v-1h-1v6.6h1v-4zm8.8-2.6h-1.4v-1.6h-1v1.6h-1v.8h1v4.1c0 1.1 1 1.7 1.8 1.7l.8-.1-.2-1-.5.1c-.4 0-.9-.1-.9-1v-3.8h1.4v-.8zm4.2 6.6c1.4 0 2.3-.6 2.6-1.6l-1-.3c-.2.7-.8 1-1.6 1-1.2 0-2-.7-2-2.1h4.7v-.5c0-2.4-1.4-3.2-2.8-3.2-1.7 0-3 1.4-3 3.4s1.2 3.3 3.1 3.3zm-2-3.9c0-1 .8-2 2-2 1 0 1.7.9 1.7 2h-3.7zm7.3-.1c0-1.2.7-1.8 1.6-1.8 1 0 1.5.6 1.5 1.6v4.1h1v-4.2c0-1.6-.8-2.4-2.2-2.4-1 0-1.6.4-1.9 1v-1h-1v6.6h1v-4zm8.8-2.6h-1.4v-1.6h-1v1.6h-1v.8h1v4.1c0 1.1 1 1.7 1.8 1.7l.8-.1-.3-1-.4.1c-.4 0-.9-.1-.9-1v-3.8h1.4v-.8zm4.5 0h-1.5v-.7c0-.7.3-1 1-1l.5.1.3-.9-1-.1c-1 0-1.8.5-1.8 1.7v.9h-1v.8h1v5.7h1v-5.7h1.5v-.8zm5.5 3.8c0 1.3-1 1.8-1.7 1.8-.8 0-1.4-.6-1.4-1.6v-4h-1v4.1c0 1.7.9 2.5 2 2.5a2 2 0 002-1.2h.1v1.1h1v-6.5h-1v3.8zm3.8-6h-1v8.7h1v-8.7zm7.2 8.9c1.1 0 1.7-.7 2-1v.8h1v-4.3c0-2-1.6-2.3-2.4-2.3-1 0-2.1.3-2.7 1.5l1 .3c.2-.4.7-1 1.7-1s1.4.5 1.4 1.4c0 .5-.5.5-1.7.6-1.2.2-2.5.4-2.5 2 0 1.2 1 2 2.2 2zm.1-1c-.8 0-1.3-.3-1.3-1 0-.8.7-1 1.4-1.1.5 0 1.6-.2 1.8-.4v1c0 .7-.7 1.6-1.9 1.6zm9.4-4.3c-.4-1-1-1.5-2.4-1.5-1.3 0-2.4.8-2.4 1.9 0 .9.6 1.5 1.8 1.8l1 .2c.7.2 1 .5 1 1s-.6 1-1.5 1c-.8 0-1.3-.4-1.5-1.1l-1 .2c.3 1.1 1.2 1.7 2.5 1.7 1.5 0 2.6-.8 2.6-2 0-.8-.6-1.4-1.8-1.7l-1-.2c-.7-.2-1-.5-1-1 0-.6.5-1 1.3-1 1 0 1.3.5 1.5 1l.9-.3zm7.6 5.2c1.8 0 3-1.3 3-3.3 0-2-1.2-3.4-3-3.4-1.7 0-3 1.3-3 3.4 0 2 1.3 3.3 3 3.3zm0-.9c-1.3 0-2-1.1-2-2.4 0-1.4.7-2.5 2-2.5 1.4 0 2 1.1 2 2.5 0 1.3-.6 2.4-2 2.4zm8.7-1.9c0 1.3-1 1.8-1.7 1.8-.9 0-1.5-.6-1.5-1.6v-4h-1v4.1c0 1.7 1 2.5 2.1 2.5a2 2 0 002-1.2v1.1h1v-6.5h-1v3.8zm2.8 2.7h1v-4.1c0-1 .7-1.6 1.7-1.6h.6v-1h-.6c-.7 0-1.4.5-1.7 1.1v-1h-1v6.6zm7.8 0h1v-6.5h-1v6.5zm.6-7.6c.3 0 .7-.3.7-.7 0-.4-.4-.7-.7-.7-.4 0-.8.3-.8.7 0 .4.4.7.8.7zm3.3 3.7c0-1.2.7-1.8 1.7-1.8.9 0 1.5.6 1.5 1.6v4.1h1v-4.2c0-1.6-1-2.4-2.2-2.4-1 0-1.6.4-2 1v-1h-1v6.6h1v-4zm6 3.9h1v-6.5h-1v6.5zm.5-7.6c.4 0 .7-.3.7-.7 0-.4-.3-.7-.7-.7-.4 0-.7.3-.7.7 0 .4.3.7.7.7zm5.2 1h-1.4V327h-1v1.6h-1v.8h1v4.1c0 1.1 1 1.7 1.8 1.7l.7-.1-.2-1-.4.1c-.5 0-.9-.1-.9-1v-3.8h1.4v-.8zm1.5 6.6h1v-6.5h-1v6.5zm.5-7.6c.4 0 .7-.3.7-.7 0-.4-.3-.7-.7-.7-.4 0-.7.3-.7.7 0 .4.3.7.7.7zm4.3 7.8c1.1 0 1.7-.7 2-1v.8h1v-4.3c0-2-1.6-2.3-2.4-2.3-1 0-2.1.3-2.7 1.5l1 .3c.2-.4.7-1 1.7-1s1.4.5 1.4 1.4c0 .5-.5.5-1.7.6-1.2.2-2.5.4-2.5 2 0 1.2 1 2 2.2 2zm.1-1c-.8 0-1.3-.3-1.3-1 0-.8.7-1 1.4-1.1.5 0 1.6-.2 1.8-.4v1c0 .7-.7 1.6-1.9 1.6zm5.7-8h-1v8.8h1v-8.7zM413 353h1v-6.5h-1v6.5zm.5-7.6c.4 0 .7-.3.7-.7 0-.4-.3-.7-.7-.7-.4 0-.7.3-.7.7 0 .4.3.7.7.7zm3.4 3.7c0-1.2.7-1.8 1.6-1.8 1 0 1.5.6 1.5 1.6v4.1h1v-4.2c0-1.6-.8-2.4-2.2-2.4-1 0-1.6.4-1.9 1v-1h-1v6.6h1v-4zm8.8-2.6h-1.4v-1.6h-1v1.6h-1v.8h1v4.1c0 1.1 1 1.7 1.8 1.7l.8-.1-.3-1-.4.1c-.4 0-.9-.1-.9-1v-3.8h1.4v-.8zm4.2 6.6c1.4 0 2.3-.6 2.6-1.6l-1-.3c-.2.7-.8 1-1.6 1-1.2 0-2-.7-2-2.1h4.7v-.5c0-2.4-1.4-3.2-2.8-3.2-1.8 0-3 1.4-3 3.4s1.2 3.3 3.1 3.3zm-2-3.9c0-1 .8-2 2-2 1 0 1.7.9 1.7 2h-3.7zm8.9 6.4c1.6 0 2.8-.7 2.8-2.4v-6.7h-1v1c-.3-.3-.7-1.1-2-1.1-1.6 0-2.7 1.3-2.7 3.3 0 2 1.1 3.2 2.7 3.2 1.3 0 1.7-.8 2-1.1v1.3c0 1.1-.7 1.6-1.8 1.6-1.2 0-1.6-.6-1.9-1l-.8.6c.4.7 1.2 1.3 2.7 1.3zm0-3.6c-1.3 0-2-1-2-2.3 0-1.4.7-2.4 2-2.4 1.2 0 1.8 1 1.8 2.4s-.6 2.3-1.8 2.3zm4.7 1h1v-4.1c0-1 .7-1.6 1.6-1.6h.6v-1h-.5c-.8 0-1.4.5-1.7 1.1v-1h-1v6.6zm6.4.2c1.1 0 1.7-.7 2-1v.8h1v-4.3c0-2-1.6-2.3-2.5-2.3-1 0-2 .3-2.6 1.5l1 .3c.2-.4.7-1 1.7-1 .9 0 1.4.5 1.4 1.4 0 .5-.5.5-1.7.6-1.2.2-2.6.4-2.6 2 0 1.2 1 2 2.3 2zm.1-1c-.8 0-1.4-.3-1.4-1 0-.8.7-1 1.5-1.1.4 0 1.6-.2 1.8-.4v1c0 .7-.7 1.6-1.9 1.6zm7.5-5.7H454v-1.6h-1v1.6h-1v.8h1v4.1c0 1.1 1 1.7 1.8 1.7l.8-.1-.2-1-.5.1c-.4 0-.9-.1-.9-1v-3.8h1.4v-.8zm1.6 6.5h1v-6.5h-1v6.5zm.5-7.6c.4 0 .7-.3.7-.7 0-.4-.3-.7-.7-.7-.4 0-.7.3-.7.7 0 .4.3.7.7.7zm5 7.7c1.7 0 3-1.3 3-3.3 0-2-1.3-3.4-3-3.4-1.8 0-3 1.3-3 3.4 0 2 1.2 3.3 3 3.3zm0-.9c-1.4 0-2-1.1-2-2.4 0-1.4.6-2.5 2-2.5 1.3 0 2 1.1 2 2.5 0 1.3-.7 2.4-2 2.4zm5.5-3.1c0-1.2.7-1.8 1.6-1.8 1 0 1.5.6 1.5 1.6v4.1h1v-4.2c0-1.6-.8-2.4-2.2-2.4-1 0-1.6.4-1.9 1v-1h-1v6.6h1v-4zm6.7 4c.4 0 .8-.4.8-.8s-.4-.8-.8-.8-.7.4-.7.8.3.8.7.8z" fill="#78757A"/>
    </g>
    <circle cx="198" cy="50" r="4" fill="#FA2915"/>
    <circle cx="211.3" cy="50" r="4" fill="#FED038"/>
    <circle cx="224.7" cy="50" r="4" fill="#37B635"/>
    <path fill-rule="evenodd" clip-rule="evenodd" d="M255 44a4 4 0 014-4h348a4 4 0 014 4v12a4 4 0 01-4 4H259a4 4 0 01-4-4V44z" fill="#F5F5F5"/>
    <path d="M378.2 55.1c1.3 0 2.3-.6 2.6-1.6l-1-.3c-.3.7-.8 1-1.6 1-1.2 0-2-.7-2-2.1h4.7v-.5c0-2.4-1.5-3.2-2.8-3.2-1.8 0-3 1.4-3 3.4s1.2 3.3 3 3.3zm-2-3.9c0-1 .7-2 1.9-2 1 0 1.8.9 1.8 2H376zm6.7-2.7h-1.2l2 3.2-2 3.3h1.2l1.5-2.5L386 55h1.2l-2.2-3.3 2.2-3.2H386l-1.6 2.6-1.5-2.6zm7.5 6.7c1.1 0 1.7-.7 2-1v.8h1v-4.3c0-2-1.6-2.3-2.4-2.3-1 0-2.1.3-2.6 1.5l1 .3c.1-.4.7-1 1.6-1 1 0 1.4.5 1.4 1.4 0 .5-.5.5-1.7.6-1.2.2-2.5.4-2.5 2 0 1.2 1 2 2.2 2zm.1-1c-.8 0-1.3-.3-1.3-1 0-.8.7-1 1.5-1.1.4 0 1.5-.2 1.7-.4v1c0 .7-.7 1.5-1.9 1.5zm4.6.8h1v-4c0-1 .7-1.7 1.5-1.7s1.3.5 1.3 1.2V55h1v-4.3c0-.8.5-1.4 1.5-1.4.7 0 1.3.4 1.3 1.3V55h1v-4.4c0-1.5-.8-2.2-2-2.2-1 0-1.6.4-2 1-.3-.6-1-1-1.8-1s-1.5.4-1.7 1h-.1v-1h-1V55zm10.3 2.5h1V54h.1c.2.4.7 1.1 2 1.1 1.6 0 2.7-1.3 2.7-3.4 0-2-1.1-3.3-2.8-3.3-1.3 0-1.7.8-1.9 1h-.1v-1h-1v9zm1-5.8c0-1.4.7-2.4 1.9-2.4 1.3 0 1.9 1 1.9 2.4s-.7 2.5-2 2.5c-1.1 0-1.8-1-1.8-2.5zm7.2-5.4h-1V55h1v-8.7zm4.5 8.8c1.3 0 2.3-.6 2.6-1.6l-1-.3c-.2.7-.8 1-1.6 1-1.2 0-2-.7-2-2.1h4.7v-.5c0-2.4-1.5-3.2-2.8-3.2-1.8 0-3 1.4-3 3.4s1.2 3.3 3 3.3zm-2-3.9c0-1 .7-2 1.9-2 1 0 1.8.9 1.8 2H416zm6.8 3.9c.5 0 .8-.4.8-.8s-.3-.8-.8-.8c-.4 0-.7.4-.7.8s.3.8.7.8zm2.5 2.4h1V54c.3.4.7 1.1 2 1.1 1.6 0 2.8-1.3 2.8-3.4 0-2-1.2-3.3-2.8-3.3-1.3 0-1.7.8-2 1v-1h-1v9zm1-5.8c0-1.4.6-2.4 1.9-2.4 1.2 0 1.9 1 1.9 2.4s-.7 2.5-2 2.5c-1.2 0-1.8-1-1.8-2.5zm6.2 3.3h1v-4.1c0-1 .7-1.6 1.6-1.6h.7v-1h-.6c-.8 0-1.4.5-1.7 1.1v-1h-1V55zm6.9.1c1.3 0 2.3-.6 2.6-1.6l-1-.3c-.2.7-.8 1-1.6 1-1.2 0-2-.7-2-2.1h4.7v-.5c0-2.4-1.5-3.2-2.8-3.2-1.8 0-3 1.4-3 3.4s1.2 3.3 3 3.3zm-2-3.9c0-1 .7-2 1.9-2 1 0 1.8.9 1.8 2h-3.8zm11.4-2.7h-1l-1.9 5.2-1.8-5.2H443l2.4 6.5h1l2.4-6.5zm1.3 6.5h1v-6.5h-1V55zm.5-7.6c.4 0 .7-.3.7-.7 0-.4-.3-.7-.7-.7-.4 0-.8.3-.8.7 0 .4.4.7.8.7zm5 7.7c1.3 0 2.2-.6 2.5-1.6l-1-.3c-.2.7-.8 1-1.6 1-1.2 0-2-.7-2-2.1h4.7v-.5c0-2.4-1.4-3.2-2.8-3.2-1.8 0-3 1.4-3 3.4s1.2 3.3 3.1 3.3zm-2.1-3.9c0-1 .8-2 2-2 1 0 1.7.9 1.7 2h-3.7zm7.6 3.8h1l1.4-5h.1l1.5 5h1l2-6.5h-1l-1.5 5-1.5-5h-1l-1.4 5h-.1l-1.4-5h-1l2 6.5zm8 0c.4 0 .8-.3.8-.7 0-.4-.4-.8-.8-.8s-.8.4-.8.8.4.8.8.8zm5.1 2.6c1.6 0 2.8-.7 2.8-2.4v-6.7h-1v1c-.3-.3-.7-1.1-2-1.1-1.6 0-2.7 1.3-2.7 3.3 0 2 1.2 3.2 2.7 3.2 1.3 0 1.7-.8 2-1.1V55c0 1.1-.7 1.6-1.8 1.6-1.2 0-1.6-.6-1.9-1l-.8.6c.4.7 1.2 1.3 2.7 1.3zm0-3.6c-1.3 0-2-1-2-2.3 0-1.4.7-2.4 2-2.4 1.2 0 1.9 1 1.9 2.4s-.7 2.3-2 2.3zm7.4-5.5h-1.4v-1.6h-1v1.6h-1v.8h1v4.1c0 1.1 1 1.7 1.8 1.7l.7-.1-.2-1-.4.1c-.5 0-.9-.1-.9-1v-3.8h1.4v-.8zm6 1.4c-.4-1-1.1-1.5-2.4-1.5-1.4 0-2.4.8-2.4 1.9 0 .9.5 1.5 1.7 1.8l1.1.2c.7.2 1 .5 1 1s-.6 1-1.5 1-1.4-.4-1.6-1.1l-1 .2c.3 1.1 1.2 1.7 2.6 1.7 1.5 0 2.5-.8 2.5-2 0-.8-.5-1.4-1.7-1.7l-1-.2c-.7-.2-1.1-.5-1.1-1 0-.6.6-1 1.4-1 .9 0 1.2.5 1.4 1l1-.3zm1.6 5.1h1v-1c.3.4.7 1.1 2 1.1 1.6 0 2.7-1.3 2.7-3.4 0-2-1.1-3.3-2.7-3.3-1.3 0-1.7.8-2 1v-3.1h-1V55zm1-3.3c0-1.4.6-2.4 1.8-2.4 1.3 0 2 1 2 2.4s-.7 2.5-2 2.5c-1.2 0-1.8-1-1.8-2.5zm6.9 3.4c.4 0 .8-.4.8-.8s-.4-.8-.8-.8-.8.4-.8.8.4.8.8.8zm2.4-.1h1v-6.5h-1V55zm.6-7.6c.4 0 .7-.3.7-.7 0-.4-.3-.7-.7-.7-.4 0-.8.3-.8.7 0 .4.4.7.8.7zM505 55c1.8 0 3-1.3 3-3.3 0-2-1.2-3.4-3-3.4-1.7 0-3 1.3-3 3.4 0 2 1.3 3.3 3 3.3zm0-.9c-1.3 0-2-1.1-2-2.4 0-1.4.7-2.5 2-2.5 1.4 0 2 1.1 2 2.5 0 1.3-.6 2.4-2 2.4z" fill="#48434F"/>
    <path d="M415 248l.9-2.7h4.2l.8 2.7h2.7l-4-11.6h-3.2l-4 11.6h2.6zm1.5-4.6l1.4-4.4h.1l1.5 4.4h-3zm10.9-.4c0-1.2.6-1.8 1.6-1.8s1.6.6 1.6 1.7v5.1h2.4v-5.6c0-2-1.2-3.2-3-3.2-1.3 0-2.3.6-2.7 1.6v-1.5h-2.4v8.7h2.5v-5zm10 0c0-1.2.6-1.8 1.6-1.8s1.5.6 1.5 1.7v5.1h2.4v-5.6c0-2-1.2-3.2-3-3.2-1.3 0-2.2.6-2.6 1.6h-.1v-1.5h-2.3v8.7h2.4v-5zm11.4 5.2c2.6 0 4.3-1.8 4.3-4.5s-1.7-4.5-4.3-4.5c-2.7 0-4.3 1.8-4.3 4.5s1.6 4.5 4.3 4.5zm0-2c-1.2 0-1.9-1-1.9-2.5 0-1.6.7-2.7 1.9-2.7s1.8 1.1 1.8 2.7c0 1.5-.6 2.6-1.8 2.6zm11.4-2c0 1.3-.7 1.9-1.6 1.9-1 0-1.5-.7-1.5-1.7v-5.1h-2.4v5.5c0 2 1.2 3.3 3 3.3 1.2 0 2.2-.7 2.6-1.7v1.6h2.4v-8.7h-2.4v5zm6.8-1.2c0-1.2.7-1.8 1.7-1.8s1.5.6 1.5 1.7v5.1h2.5v-5.6c0-2-1.2-3.2-3-3.2-1.4 0-2.3.6-2.7 1.6v-1.5h-2.4v8.7h2.4v-5zm11.5 5.2c2.3 0 3.8-1.4 3.9-3.4h-2.3c-.1 1-.7 1.5-1.6 1.5-1.1 0-1.8-1-1.8-2.7 0-1.6.7-2.6 1.8-2.6 1 0 1.5.6 1.6 1.5h2.3c-.1-2-1.6-3.3-4-3.3-2.6 0-4.2 1.8-4.2 4.5 0 2.6 1.6 4.5 4.3 4.5zm5.4-.2h2.5v-8.7H484v8.7zm1.3-9.9c.7 0 1.3-.5 1.3-1.2s-.6-1.2-1.3-1.2c-.8 0-1.3.6-1.3 1.2 0 .7.6 1.2 1.3 1.2zm5.5 4.9c0-1.2.7-1.8 1.7-1.8s1.5.6 1.5 1.7v5.1h2.5v-5.6c0-2-1.2-3.2-3-3.2-1.4 0-2.3.6-2.7 1.6v-1.5h-2.4v8.7h2.4v-5zm11.5 8.4c2.5 0 4.3-1.1 4.3-3.3v-8.8H504v1.4h-.1c-.4-.7-1-1.5-2.5-1.5-2 0-3.6 1.4-3.6 4.4 0 3 1.6 4.3 3.6 4.3 1.4 0 2.1-.7 2.5-1.4v1.6c0 1-.7 1.6-1.7 1.6-1.1 0-1.7-.5-1.9-1l-2.2.3c.3 1.3 1.6 2.4 4 2.4zm0-5.3c-1.1 0-1.8-1-1.8-2.5s.6-2.5 1.8-2.5c1.2 0 1.9 1 1.9 2.5s-.7 2.5-1.9 2.5zm17.7-6h2.5c-.4-2.3-2.4-3.9-5-3.9-3.1 0-5.5 2.2-5.5 6 0 3.7 2.2 6 5.5 6 3 0 5-1.9 5-5v-1.4h-4.8v1.8h2.5c0 1.5-1 2.4-2.7 2.4-1.8 0-3-1.4-3-3.8s1.2-3.8 3-3.8c1.3 0 2.1.6 2.5 1.7zm6.9 8c1.2 0 2-.5 2.5-1.3v1.2h2.4v-5.9c0-2-1.8-3-3.7-3-2.1 0-3.5 1-3.8 2.7l2.2.1c.2-.5.7-1 1.6-1 .8 0 1.2.4 1.2 1.2 0 .6-.6.6-2 .8-1.8.1-3.3.7-3.3 2.7 0 1.7 1.2 2.6 2.9 2.6zm.6-1.6c-.7 0-1.2-.4-1.2-1 0-.7.5-1 1.4-1.2l1.7-.3v.9c0 .9-.8 1.6-1.9 1.6zm10.8-7.2h-1.7v-2.1h-2.4v2H533v1.9h1.2v4.5c0 1.7 1.2 2.6 3 2.5l1.2-.2-.3-1.8h-.6c-.5 0-.9-.1-.9-.8v-4.2h1.7v-1.8zm8.7 2.5c-.2-1.6-1.5-2.6-3.7-2.6-2.3 0-3.7 1-3.7 2.7 0 1.3.8 2.1 2.5 2.5l1.5.3c.8.1 1.1.4 1.1.8 0 .6-.5 1-1.4 1-.8 0-1.4-.4-1.6-1.2l-2.3.2c.2 1.6 1.6 2.7 4 2.7 2.2 0 3.8-1.2 3.8-3 0-1.2-.8-2-2.5-2.3l-1.6-.3c-.8-.2-1.1-.4-1.1-.9s.6-.8 1.3-.8c.9 0 1.4.4 1.5 1l2.2-.1zm1.8 6.2h2.4v-1.4c.4.7 1.1 1.5 2.5 1.5 2 0 3.6-1.5 3.6-4.5s-1.6-4.4-3.6-4.4c-1.4 0-2.1.8-2.4 1.5h-.1v-4.3h-2.4V248zm2.3-4.4c0-1.5.7-2.5 1.9-2.5s1.8 1 1.8 2.5c0 1.6-.6 2.6-1.8 2.6-1.2 0-1.9-1-1.9-2.6zm9 7.7c1.8 0 2.8-1 3.2-2.4l3.4-9.6h-2.5l-1.9 6.4-1.9-6.4h-2.5l3.1 9-.1.3c-.3.8-1 .9-1.8.6l-.5 1.8c.3.2.9.3 1.5.3zm11.6-3.3h2.5v-3.8h2c2.7 0 4.3-1.6 4.3-3.9s-1.5-4-4.2-4h-4.6V248zm2.5-5.7v-4h1.6c1.5 0 2.1.8 2.1 2s-.6 2-2 2H574zm7.8 5.7h2.5v-5c0-1 .7-1.8 1.8-1.8l1 .2v-2.2h-.7c-1 0-1.8.5-2.1 1.6h-.1v-1.5h-2.4v8.7zm10.2.2c2.1 0 3.6-1 4-2.7l-2.3-.1c-.3.6-.9 1-1.7 1-1.2 0-2-.8-2-2.1h6v-.7c0-3-1.8-4.4-4.1-4.4-2.6 0-4.3 1.8-4.3 4.5s1.7 4.5 4.4 4.5zm-2-5.4c0-1 .8-1.8 1.9-1.8 1 0 1.8.7 1.8 1.8H590zm15.5-3.5h-2.5l-1.8 6.2h-.1l-1.8-6.2h-2.6l3 8.7h2.8l3-8.7zm1.3 8.7h2.4v-8.7h-2.4v8.7zm1.2-9.9c.7 0 1.3-.5 1.3-1.2s-.6-1.2-1.3-1.2c-.7 0-1.3.6-1.3 1.2 0 .7.6 1.2 1.3 1.2zm7.1 10c2.2 0 3.6-1 4-2.6l-2.3-.1c-.2.6-.8 1-1.7 1-1.2 0-2-.8-2-2.1h6v-.7c0-3-1.8-4.4-4-4.4-2.7 0-4.3 1.8-4.3 4.5s1.6 4.5 4.3 4.5zm-2-5.3c.1-1 .9-1.8 2-1.8 1 0 1.7.7 1.7 1.8h-3.6zm9.3 5.2h2.5l1.5-5.5h.1l1.5 5.5h2.6l2.3-8.7h-2.4l-1.3 5.8h-.1l-1.4-5.8h-2.4L624 245h-.1l-1.4-5.8h-2.4l2.4 8.7z" fill="#232129"/>
    <circle cx="206" cy="87" r="10" fill="#F0F0F2"/>
    <rect x="224" y="83" width="64" height="8" rx="2" fill="#F0F0F2"/>
    <rect x="292" y="83" width="48" height="8" rx="2" fill="#F0F0F2"/>
    <rect x="344" y="83" width="28" height="8" rx="2" fill="#F0F0F2"/>
  </g>
  <g filter="url(#filter1_dd)">
    <mask id="c" maskUnits="userSpaceOnUse" x="48" y="148" width="320" height="240">
      <path d="M48 156a8 8 0 018-8h304a8 8 0 018 8v224a8 8 0 01-8 8H56a8 8 0 01-8-8V156z" fill="#fff"/>
    </mask>
    <g mask="url(#c)">
      <rect x="48" y="148" width="320" height="240" rx="8" fill="#232129"/>
      <rect x="64" y="207" width="200" height="44" rx="4" fill="#fff" fill-opacity=".1"/>
      <path d="M73.7 225l1-2.9h4l1.1 2.9h1.3l-3.7-10.2H76L72.4 225h1.3zm1.4-4l1.6-4.6 1.7 4.6h-3.3zm8.7-.6c0-1.3.9-2 2-2 1 0 1.7.6 1.7 1.8v4.8h1.2v-4.9c0-1.9-1-2.8-2.6-2.8-1.1 0-1.8.5-2.2 1.3v-1.2h-1.2v7.6h1.1v-4.6zm8.4 0c0-1.3.8-2 2-2 1 0 1.7.6 1.7 1.8v4.8H97v-4.9c0-1.9-1-2.8-2.5-2.8-1.2 0-1.9.5-2.3 1.3v-1.2H91v7.6h1.2v-4.6zm10.2 4.8c2.1 0 3.5-1.6 3.5-4s-1.4-4-3.5-4c-2 0-3.4 1.6-3.4 4s1.4 4 3.4 4zm0-1c-1.5 0-2.3-1.4-2.3-3 0-1.5.8-2.9 2.3-2.9 1.6 0 2.3 1.4 2.3 3 0 1.5-.7 2.8-2.3 2.8zm10.2-2.3c0 1.4-1 2-2 2-.9 0-1.6-.7-1.6-1.8v-4.7h-1.2v4.8c0 2 1 2.9 2.5 2.9 1.1 0 1.9-.6 2.3-1.4v1.3h1.2v-7.6h-1.2v4.5zm4.7-1.5c0-1.3.8-2 2-2 1 0 1.7.6 1.7 1.8v4.8h1.1v-4.9c0-1.9-1-2.8-2.5-2.8-1.2 0-2 .5-2.3 1.3v-1.2H116v7.6h1.2v-4.6zm10.2 4.8c1.7 0 2.8-1 3-2.4h-1.1c-.3.8-1 1.3-1.9 1.3-1.4 0-2.3-1.1-2.3-3 0-1.6 1-2.8 2.3-2.8 1 0 1.7.7 1.9 1.4h1.1c-.2-1.5-1.4-2.4-3-2.4-2 0-3.4 1.6-3.4 4 0 2.2 1.3 3.9 3.4 3.9zm4.9-.2h1.2v-7.6h-1.2v7.6zm.6-9c.4 0 .8-.3.8-.7 0-.4-.4-.8-.8-.8-.5 0-.8.4-.8.8s.3.8.8.8zm4 4.4c0-1.3.9-2 2-2 1 0 1.7.6 1.7 1.8v4.8h1.2v-4.9c0-1.9-1-2.8-2.6-2.8-1.1 0-1.9.5-2.2 1.3h-.1v-1.2h-1.1v7.6h1.1v-4.6zm10.3 7.6c1.8 0 3.3-.8 3.3-2.8v-7.8h-1.2v1.2c-.3-.4-.8-1.3-2.3-1.3-2 0-3.3 1.5-3.3 3.8 0 2.4 1.4 3.8 3.3 3.8 1.5 0 2-.9 2.2-1.3v1.5c0 1.3-.8 1.9-2 1.9-1.4 0-2-.7-2.2-1.2l-1 .7c.5.8 1.5 1.5 3.2 1.5zm0-4.2c-1.5 0-2.3-1-2.3-2.7 0-1.5.7-2.8 2.2-2.8 1.5 0 2.2 1.2 2.2 2.8 0 1.7-.8 2.7-2.2 2.7zM164 218h1.2a4 4 0 00-4.2-3.3c-2.6 0-4.4 2-4.4 5.2s1.8 5.2 4.5 5.2c2.5 0 4.2-1.6 4.2-4.1v-1h-3.9v1h2.7c0 1.8-1.2 3-3 3-1.9 0-3.3-1.4-3.3-4 0-2.7 1.4-4.2 3.2-4.2 1.5 0 2.5.9 3 2.2zm5.6 7.2c1.4 0 2-.7 2.3-1.2v1h1.2v-5c0-2.5-1.8-2.7-2.8-2.7-1.2 0-2.5.4-3 1.8l1 .4c.3-.6 1-1.2 2-1.2 1.1 0 1.7.6 1.7 1.5 0 .7-.6.6-2 .8-1.4.2-3 .5-3 2.2 0 1.5 1.2 2.4 2.6 2.4zm.2-1c-1 0-1.6-.5-1.6-1.3 0-.9.8-1.2 1.7-1.3.5 0 1.9-.2 2-.4v1c0 1-.7 2-2.1 2zm9-6.8h-1.7v-1.9H176v1.9H175v1h1.1v4.7c0 1.4 1.1 2 2 2l1-.1-.3-1h-.5c-.5 0-1-.2-1-1.2v-4.4h1.6v-1zm7.1 1.7c-.4-1.1-1.2-1.8-2.7-1.8-1.6 0-2.8.9-2.8 2.2 0 1 .6 1.7 2 2l1.3.4c.8.1 1.1.5 1.1 1 0 .7-.7 1.2-1.8 1.2-1 0-1.5-.4-1.7-1.2l-1.1.3c.2 1.3 1.3 2 2.9 2 1.7 0 3-1 3-2.3 0-1-.7-1.8-2-2.1l-1.2-.3c-1-.2-1.3-.5-1.3-1 0-.7.7-1.2 1.6-1.2 1 0 1.4.5 1.6 1l1.1-.2zm2.2 5.9h1.1v-1.2h.2c.2.4.7 1.4 2.2 1.4 2 0 3.2-1.6 3.2-4s-1.3-4-3.2-4c-1.5 0-2 1-2.2 1.4h-.1v-3.8h-1.2V225zm1.2-3.8c0-1.7.7-2.9 2.1-2.9 1.5 0 2.3 1.3 2.3 2.9 0 1.6-.8 3-2.3 3-1.4 0-2.1-1.3-2.1-3zm8 6.6c1 0 1.8-.5 2.2-1.7l3.3-8.7h-1.3l-2.1 6h-.1l-2.1-6H196l2.8 7.6-.2.6c-.4 1.2-1 1.3-1.8 1l-.3 1.1.9.1zM73.2 243h1.3v-3.7h2.2c2.4 0 3.4-1.5 3.4-3.3 0-1.8-1-3.2-3.4-3.2h-3.5V243zm1.3-4.8v-4.3h2.1c1.7 0 2.3 1 2.3 2.1 0 1.3-.6 2.2-2.2 2.2h-2.2zM82 243h1.2v-4.8c0-1 .8-1.8 1.9-1.8h.7v-1.1h-.6a2 2 0 00-2 1.2v-1.1H82v7.6zm8.3.2c1.6 0 2.7-.8 3-2l-1-.3c-.4.8-1 1.2-2 1.2-1.4 0-2.3-.9-2.4-2.5h5.6v-.5c0-2.9-1.7-3.8-3.3-3.8-2 0-3.4 1.6-3.4 4 0 2.3 1.3 3.9 3.5 3.9zm-2.4-4.6c.1-1.2 1-2.3 2.3-2.3 1.3 0 2 1 2 2.3H88zm13.8-3.2h-1.3l-2.1 6h-.1l-2.1-6h-1.3l2.8 7.6H99l2.8-7.6zm1.6 7.6h1.2v-7.6h-1.2v7.6zm.6-9c.5 0 .9-.3.9-.7 0-.4-.4-.8-.9-.8-.4 0-.8.4-.8.8s.4.8.8.8zm6.1 9.2c1.6 0 2.7-.8 3-2l-1-.3c-.4.8-1 1.2-2 1.2-1.4 0-2.3-.9-2.4-2.5h5.6v-.5c0-2.9-1.7-3.8-3.3-3.8-2 0-3.5 1.6-3.5 4 0 2.3 1.4 3.9 3.6 3.9zm-2.4-4.6c.1-1.2 1-2.3 2.3-2.3 1.3 0 2 1 2 2.3h-4.3zm9.2 4.4h1.2l1.6-5.9h.2l1.6 5.9h1.2l2.3-7.6h-1.2l-1.7 5.8-1.7-5.8h-1.2l-1.6 5.8h-.1l-1.7-5.8h-1.2l2.3 7.6z" fill="#fff"/>
      <path d="M64.5 192.4h2.7v7.6h1.4v-7.6h2.7v-1.1h-6.8v1.1zm8.2 7.6h1.2v-6.5h-1.2v6.5zm.6-7.6c.5 0 .8-.3.8-.7 0-.4-.3-.8-.8-.8-.4 0-.8.4-.8.8s.4.7.8.7zm5.4 1h-1.3V192H76v1.6h-1v1h1v3.8c0 1.2.9 1.8 2 1.8l.7-.2-.2-1h-.4c-.5 0-.8 0-.8-.8v-3.6h1.3v-1zm2.8-2.1h-1.2v8.7h1.2v-8.7zm4.6 8.8c1.4 0 2.4-.7 2.7-1.7l-1.2-.3c-.2.7-.8 1-1.5 1-1.1 0-1.8-.7-1.9-2H89v-.4c0-2.4-1.4-3.3-3-3.3-1.7 0-3 1.4-3 3.4s1.2 3.3 3.2 3.3zm-1.9-4c0-.9.8-1.7 1.8-1.7s1.6.8 1.6 1.8h-3.4zM65 275h5.2v-1.1h-4v-7.6H65v8.7zm9.5.1c1.4 0 2.4-.7 2.7-1.7L76 273c-.3.7-.8 1-1.5 1-1.1 0-1.9-.7-1.9-2h4.7v-.4c0-2.4-1.5-3.3-3-3.3-1.8 0-3 1.4-3 3.4s1.2 3.3 3.2 3.3zm-1.9-4c0-.9.7-1.7 1.8-1.7 1 0 1.6.8 1.6 1.8h-3.4zm8.5 4a2 2 0 002-1.1v1h1.3v-8.7H83v3.2c-.3-.4-.7-1.1-2-1.1-1.5 0-2.7 1.2-2.7 3.3 0 2.2 1.1 3.4 2.7 3.4zm.3-1c-1.1 0-1.7-1-1.7-2.4 0-1.3.6-2.2 1.7-2.2s1.7.9 1.7 2.2c0 1.4-.6 2.3-1.7 2.3zm7.6 1c1.4 0 2.4-.7 2.7-1.7l-1.2-.3c-.2.7-.8 1-1.5 1-1 0-1.8-.7-1.8-2h4.6v-.4c0-2.4-1.4-3.3-2.9-3.3-1.8 0-3 1.4-3 3.4S87 275 89 275zm-1.8-4c0-.9.7-1.7 1.7-1.7s1.7.8 1.7 1.8h-3.4z" fill="#B7B5BD"/>
      <rect x="280" y="273" width="72" height="8" rx="2" fill="#fff" fill-opacity=".1"/>
      <rect x="290" y="285" width="24" height="4" rx="1" fill="#fff" fill-opacity=".1"/>
      <rect x="280" y="285" width="8" height="4" rx="1" fill="#fff" fill-opacity=".1"/>
      <rect x="280" y="291" width="24" height="4" rx="1" fill="#fff" fill-opacity=".1"/>
      <rect x="306" y="291" width="8" height="4" rx="1" fill="#fff" fill-opacity=".1"/>
      <rect x="316" y="285" width="14" height="4" rx="1" fill="#fff" fill-opacity=".1"/>
      <mask id="d" maskUnits="userSpaceOnUse" x="280" y="207" width="72" height="54">
        <path d="M352 259a2 2 0 01-2 2h-68a2 2 0 01-2-2v-50c0-1.1.9-2 2-2h68a2 2 0 012 2v50z" fill="#fff"/>
      </mask>
      <g mask="url(#d)" fill="#fff">
        <path d="M352 257a4 4 0 01-4 4h-64a4 4 0 01-4-4v-46a4 4 0 014-4h64a4 4 0 014 4v46z" fill-opacity=".1"/>
        <path d="M362.4 265.4l-27-26.5-9.5 8.8-24.7-24.3-50 49.1 50 49.1 31.9-31.4 2.3 1.8 27-26.6zM337.1 231.8c3.5 0 6.3-2.8 6.3-6.2 0-3.4-2.8-6.2-6.3-6.2a6.2 6.2 0 00-6.3 6.2c0 3.4 2.9 6.2 6.3 6.2z" fill-opacity=".2"/>
      </g>
      <path d="M280 309c0-1.1.9-2 2-2h68a2 2 0 012 2v14a2 2 0 01-2 2h-68a2 2 0 01-2-2v-14z" fill="#48434F"/>
      <path d="M298.7 320h1.3v-2.5h1.4c1.7 0 2.6-1 2.6-2.4s-.9-2.4-2.6-2.4h-2.7v7.3zm1.3-3.5v-2.7h1.2c1 0 1.5.6 1.5 1.3 0 .8-.5 1.4-1.5 1.4H300zm8.6 1.2c0 .8-.6 1.2-1.2 1.2s-1-.4-1-1v-3.4H305v3.5c0 1.3.7 2 1.8 2 .8 0 1.4-.4 1.7-1v1h1.3v-5.5h-1.3v3.2zm2.6 2.3h1.3v-.9c.3.4.7 1 1.6 1 1.3 0 2.3-1 2.3-2.8 0-1.8-1-2.8-2.3-2.8-1 0-1.3.6-1.5 1v-2.8h-1.4v7.3zm1.3-2.7c0-1 .5-1.8 1.3-1.8s1.3.8 1.3 1.8-.5 1.7-1.3 1.7-1.3-.7-1.3-1.7zm6.3-4.6h-1.3v7.3h1.3v-7.3zm1.3 7.3h1.3v-5.5H320v5.5zm.6-6.2c.4 0 .8-.3.8-.7 0-.4-.4-.7-.8-.7s-.7.3-.7.7c0 .4.3.7.7.7zm6.3 2.2c-.2-1-1-1.5-2.2-1.5-1.3 0-2.2.6-2.2 1.6 0 .8.5 1.3 1.5 1.6l1 .2c.5 0 .7.3.7.6 0 .4-.4.6-1 .6s-1-.2-1-.7l-1.3.1c.1 1 1 1.6 2.3 1.6 1.4 0 2.3-.7 2.3-1.7 0-.8-.5-1.3-1.5-1.5l-1-.2c-.5-.1-.7-.3-.7-.6 0-.4.4-.7 1-.7.5 0 .8.4 1 .7l1.1-.1zm2.5.8c0-.8.5-1.2 1.1-1.2.7 0 1.1.4 1.1 1.1v3.3h1.3v-3.5c0-1.3-.7-2-1.9-2-.8 0-1.3.4-1.6 1v-2.8h-1.3v7.3h1.3v-3.2z" fill="#B7B5BD"/>
    </g>
    <path d="M64 286a4 4 0 014-4h192a4 4 0 014 4v102H64V286z" fill="#fff" fill-opacity=".1"/>
    <path d="M72.6 294.2h2.7v7.8h1v-7.8h2.8v-1h-6.5v1zm9.8 8c1.8 0 3-1.4 3-3.4s-1.2-3.4-3-3.4c-1.7 0-3 1.3-3 3.4 0 2 1.3 3.3 3 3.3zm0-1c-1.3 0-2-1.1-2-2.4 0-1.4.7-2.5 2-2.5 1.4 0 2 1.1 2 2.5 0 1.3-.6 2.4-2 2.4zm7.1 1c1.3 0 1.7-.8 2-1.2v1h1v-8.7h-1v3.2c-.3-.3-.7-1.1-2-1.1-1.6 0-2.7 1.3-2.7 3.3 0 2.1 1.1 3.4 2.7 3.4zm.2-1c-1.3 0-2-1-2-2.5 0-1.4.7-2.4 2-2.4 1.2 0 1.9 1 1.9 2.4 0 1.5-.7 2.5-2 2.5zm6.9 1c1.1 0 1.7-.7 2-1v.8h1v-4.3c0-2-1.6-2.3-2.5-2.3-1 0-2 .3-2.6 1.5l1 .3c.2-.4.7-1 1.7-1s1.4.5 1.4 1.4c0 .5-.5.5-1.7.6-1.2.2-2.6.4-2.6 2 0 1.2 1 2 2.3 2zm.1-1c-.8 0-1.4-.3-1.4-1 0-.8.7-1 1.5-1.1.5 0 1.6-.2 1.8-.4v1c0 .7-.7 1.6-1.9 1.6zm5.2 3.2c1 0 1.6-.4 2-1.4l2.8-7.5h-1.1l-1.9 5.2-1.8-5.2h-1.1l2.4 6.5-.2.5c-.3 1-.8 1.1-1.5 1l-.3.8.7.1zm11.2-2.4h1l1.4-5h.1l1.4 5h1l2-6.5h-1l-1.5 5-1.4-5h-1l-1.5 5-1.5-5h-1l2 6.5zm10.9.1c1.3 0 2.3-.6 2.6-1.6l-1-.3c-.2.7-.8 1-1.6 1-1.2 0-2-.7-2-2.1h4.7v-.5c0-2.4-1.4-3.2-2.8-3.2-1.8 0-3 1.4-3 3.4s1.2 3.3 3 3.3zm-2-3.9c0-1 .7-2 1.9-2 1 0 1.8.9 1.8 2h-3.8zm7.2-5h-1v.9a3 3 0 01-.6 1.6l.6.5a3 3 0 001-2.2v-.7zm1.7 8.8h1v-4.1c0-1 .7-1.6 1.6-1.6h.6v-1h-.5c-.8 0-1.5.5-1.7 1.1v-1h-1v6.6zm7 .1c1.4 0 2.4-.6 2.7-1.6l-1-.3c-.2.7-.8 1-1.6 1-1.2 0-2-.7-2-2.1h4.7v-.5c0-2.4-1.4-3.2-2.8-3.2-1.8 0-3 1.4-3 3.4s1.2 3.3 3 3.3zm-2-3.9c.1-1 .8-2 2-2 1 0 1.8.9 1.8 2h-3.8zm12.7 4c1.3 0 2.3-.7 2.6-1.7l-1-.3c-.2.7-.8 1-1.6 1-1.2 0-2-.7-2-2.1h4.7v-.5c0-2.4-1.4-3.2-2.8-3.2-1.8 0-3 1.4-3 3.4s1.2 3.3 3 3.3zm-2-4c0-1 .7-2 1.9-2 1 0 1.8.9 1.8 2h-3.8zm7-2.7h-1.2l2 3.2-2 3.3h1.1l1.6-2.5 1.6 2.5h1.1l-2-3.3 2-3.2h-1.1L155 298l-1.6-2.6zm8.2 6.6c1.4 0 2.4-.9 2.5-2h-1c-.2.7-.8 1.1-1.5 1.1-1.2 0-2-1-2-2.5s.8-2.4 2-2.4c.8 0 1.4.5 1.5 1.1h1c-.1-1.2-1.2-2-2.6-2-1.7 0-2.9 1.4-2.9 3.4s1.1 3.3 3 3.3zm4.1-.1h1v-6.5h-1v6.5zm.5-7.6c.4 0 .8-.3.8-.7 0-.4-.4-.7-.8-.7s-.7.3-.7.7c0 .4.3.7.7.7zm5.3 1h-1.4V294h-1v1.6h-1v.8h1v4.1c0 1.1 1 1.7 1.8 1.7l.8-.1-.2-1-.5.1c-.4 0-.9-.1-.9-1v-3.8h1.4v-.8zm4.3 6.7c1.4 0 2.3-.6 2.7-1.6l-1-.3c-.3.7-.9 1-1.7 1-1.1 0-2-.7-2-2.1h4.8v-.5c0-2.4-1.5-3.2-2.9-3.2-1.7 0-2.9 1.4-2.9 3.4s1.2 3.3 3 3.3zm-2-3.9c0-1 .8-2 2-2 1 0 1.7.9 1.7 2H174zm8.9 4c1.2 0 1.7-.8 1.9-1.2h.1v1h1v-8.7h-1v3.2h-.1c-.2-.3-.6-1.1-1.9-1.1-1.7 0-2.8 1.3-2.8 3.3 0 2.1 1.1 3.4 2.8 3.4zm.1-1c-1.2 0-1.9-1-1.9-2.5 0-1.4.6-2.4 2-2.4 1.1 0 1.8 1 1.8 2.4 0 1.5-.7 2.5-1.9 2.5zm11.3-5.7H193v-1.6h-1v1.6h-1v.8h1v4.1c0 1.1 1 1.7 1.8 1.7l.7-.1-.2-1-.4.1c-.4 0-.9-.1-.9-1v-3.8h1.4v-.8zm4.2 6.6c1.8 0 3-1.3 3-3.3 0-2-1.2-3.4-3-3.4-1.7 0-3 1.3-3 3.4 0 2 1.3 3.3 3 3.3zm0-.9c-1.3 0-2-1.1-2-2.4 0-1.4.7-2.5 2-2.5 1.4 0 2 1.1 2 2.5 0 1.3-.6 2.4-2 2.4zm-123.7 16c1.2 0 1.8-.7 2-1v.8h1v-4.3c0-2-1.5-2.3-2.4-2.3-1 0-2 .3-2.6 1.5l1 .3c.2-.4.7-1 1.7-1 .9 0 1.3.5 1.3 1.4 0 .5-.5.5-1.6.6-1.3.2-2.6.4-2.6 2 0 1.2 1 2 2.2 2zm.2-1c-.8 0-1.4-.3-1.4-1 0-.8.7-1 1.5-1.1.4 0 1.6-.2 1.7-.4v1c0 .7-.6 1.6-1.8 1.6zm5.8-3.1c0-1.2.7-1.8 1.7-1.8s1.5.6 1.5 1.6v4.1h1v-4.2c0-1.6-1-2.4-2.2-2.4-1 0-1.6.4-2 1v-1h-1v6.6h1v-4zm7.1 0c0-1.2.8-1.8 1.7-1.8 1 0 1.5.6 1.5 1.6v4.1h1v-4.2c0-1.6-.9-2.4-2.2-2.4-1 0-1.6.4-1.9 1v-1h-1v6.6h1v-4zm8.8 4c1.8 0 3-1.3 3-3.3 0-2-1.2-3.4-3-3.4-1.7 0-3 1.3-3 3.4 0 2 1.3 3.3 3 3.3zm0-.9c-1.3 0-2-1.1-2-2.4 0-1.4.7-2.5 2-2.5 1.4 0 2 1.1 2 2.5 0 1.3-.6 2.4-2 2.4zm8.8-1.9c0 1.3-1 1.8-1.7 1.8-.8 0-1.4-.6-1.4-1.6v-4h-1v4.1c0 1.7.8 2.5 2 2.5a2 2 0 002-1.2v1.1h1v-6.5h-1v3.8zm4-1.2c0-1.2.7-1.8 1.6-1.8 1 0 1.5.6 1.5 1.6v4.1h1v-4.2c0-1.6-.9-2.4-2.2-2.4-1 0-1.6.4-1.9 1v-1h-1v6.6h1v-4zm8.8 4c1.4 0 2.4-.9 2.5-2h-1c-.2.7-.8 1.1-1.5 1.1-1.2 0-2-1-2-2.5s.8-2.4 2-2.4c.8 0 1.4.5 1.5 1.1h1c-.1-1.2-1.2-2-2.6-2-1.7 0-3 1.4-3 3.4s1.2 3.3 3 3.3zm6.9 0c1.3 0 2.3-.6 2.6-1.6l-1-.3c-.3.7-.9 1-1.6 1-1.2 0-2-.7-2-2.1h4.7v-.5c0-2.4-1.5-3.2-2.8-3.2-1.8 0-3 1.4-3 3.4s1.2 3.3 3 3.3zm-2-3.9c0-1 .7-2 1.9-2 1 0 1.7.9 1.7 2h-3.7zm12.5 4c1.7 0 3-1.4 3-3.4s-1.3-3.4-3-3.4c-1.8 0-3 1.3-3 3.4 0 2 1.2 3.3 3 3.3zm0-1c-1.4 0-2-1.1-2-2.4 0-1.4.6-2.5 2-2.5 1.3 0 2 1.1 2 2.5 0 1.3-.7 2.4-2 2.4zm8.7-1.9c0 1.3-1 1.8-1.7 1.8-.8 0-1.4-.6-1.4-1.6v-4h-1v4.1c0 1.7.9 2.5 2.1 2.5a2 2 0 002-1.2v1.1h1v-6.5h-1v3.8zm3 2.7h1v-4.1c0-1 .7-1.6 1.6-1.6h.7v-1h-.6c-.8 0-1.4.5-1.7 1.1v-1h-1v6.6zm11-6.5h-1.5v-.7c0-.7.3-1 1-1l.5.1.3-.9-1-.1c-.9 0-1.8.5-1.8 1.7v.9h-1v.8h1v5.7h1v-5.7h1.5v-.8zm1.5 6.5h1v-6.5h-1v6.5zm.5-7.6c.4 0 .7-.3.7-.7 0-.4-.3-.7-.7-.7-.4 0-.7.3-.7.7 0 .4.3.7.7.7zm2.5 7.6h1v-4.1c0-1 .7-1.6 1.6-1.6h.7v-1h-.6c-.8 0-1.4.5-1.7 1.1v-1h-1v6.6zm9.2-5c-.3-1-1-1.6-2.3-1.6-1.4 0-2.4.8-2.4 1.9 0 .9.5 1.5 1.7 1.8l1.1.2c.7.2 1 .5 1 1s-.6 1-1.6 1c-.8 0-1.3-.4-1.5-1.1l-1 .2c.3 1.1 1.2 1.7 2.6 1.7 1.5 0 2.5-.8 2.5-2 0-.8-.5-1.4-1.7-1.7l-1-.2c-.8-.2-1.1-.5-1.1-1 0-.6.6-1 1.4-1 .9 0 1.2.5 1.4 1l.9-.3zm4.6-1.5h-1.4v-1.6h-1v1.6h-1v.8h1v4.1c0 1.1 1 1.7 1.8 1.7l.7-.1-.2-1-.4.1c-.5 0-.9-.1-.9-1v-3.8h1.4v-.8zm7.8 6.6c1.4 0 2.4-.9 2.6-2h-1c-.2.7-.8 1.1-1.6 1.1-1.2 0-2-1-2-2.5s.8-2.4 2-2.4c.9 0 1.4.5 1.6 1.1h1c-.2-1.2-1.2-2-2.6-2-1.8 0-3 1.4-3 3.4s1.1 3.3 3 3.3zm6.8 0c1.8 0 3-1.3 3-3.3 0-2-1.2-3.4-3-3.4s-3 1.3-3 3.4c0 2 1.2 3.3 3 3.3zm0-.9c-1.3 0-2-1.1-2-2.4 0-1.4.7-2.5 2-2.5 1.4 0 2 1.1 2 2.5 0 1.3-.6 2.4-2 2.4zm4.6.8h1v-4c0-1 .7-1.7 1.5-1.7s1.3.5 1.3 1.2v4.5h1v-4.3c0-.8.6-1.4 1.5-1.4.7 0 1.3.4 1.3 1.3v4.4h1v-4.4c0-1.5-.8-2.2-2-2.2-1 0-1.6.4-2 1-.3-.6-.9-1-1.8-1-.8 0-1.4.4-1.7 1h-.1v-1h-1v6.6zm10.6 0h1v-4c0-1 .7-1.7 1.5-1.7.7 0 1.3.5 1.3 1.2v4.5h1v-4.3c0-.8.5-1.4 1.4-1.4.8 0 1.4.4 1.4 1.3v4.4h1v-4.4c0-1.5-.9-2.2-2-2.2-1 0-1.6.4-2 1-.4-.6-1-1-1.8-1-.9 0-1.5.4-1.8 1v-1h-1v6.6zm13.3.1c1.3 0 2.3-.6 2.6-1.6l-1-.3c-.2.7-.8 1-1.6 1-1.2 0-2-.7-2-2.1h4.7v-.5c0-2.4-1.5-3.2-2.8-3.2-1.8 0-3 1.4-3 3.4s1.2 3.3 3 3.3zm-2-3.9c0-1 .7-2 1.9-2 1 0 1.8.9 1.8 2h-3.8zm6.3 3.8h1v-4.1c0-1 .7-1.6 1.7-1.6h.6v-1h-.5c-.8 0-1.5.5-1.7 1.1v-1h-1v6.6zm7 .1c1.5 0 2.5-.9 2.7-2h-1c-.2.7-.8 1.1-1.6 1.1-1.2 0-2-1-2-2.5s.8-2.4 2-2.4c.9 0 1.4.5 1.5 1.1h1c-.1-1.2-1.2-2-2.5-2-1.8 0-3 1.4-3 3.4s1.1 3.3 3 3.3zm4.2-.1h1v-6.5h-1v6.5zm.6-7.6c.3 0 .7-.3.7-.7 0-.4-.4-.7-.7-.7-.4 0-.8.3-.8.7 0 .4.4.7.8.7zm4.3 7.8c1.2 0 1.8-.7 2-1v.8h1v-4.3c0-2-1.5-2.3-2.4-2.3-1 0-2 .3-2.6 1.5l1 .3c.2-.4.7-1 1.7-1 .9 0 1.3.5 1.3 1.4 0 .5-.5.5-1.7.6-1.2.2-2.5.4-2.5 2 0 1.2 1 2 2.2 2zm.2-1c-.8 0-1.4-.3-1.4-1 0-.8.7-1 1.5-1.1.4 0 1.6-.2 1.7-.4v1c0 .7-.6 1.6-1.8 1.6zm5.8-8h-1v8.8h1v-8.7zm-170.6 24c1.8 0 3-1.4 3-3.4s-1.2-3.4-3-3.4-3 1.3-3 3.4c0 2 1.2 3.3 3 3.3zm0-1c-1.4 0-2-1.1-2-2.4 0-1.4.6-2.5 2-2.5 1.3 0 2 1.1 2 2.5 0 1.3-.7 2.4-2 2.4zm7.5-5.7h-1.5v-.7c0-.7.3-1 1-1l.5.1.3-.9-1-.1c-.9 0-1.8.5-1.8 1.7v.9h-1v.8h1v5.7h1v-5.7h1.5v-.8zm4.5 0H86v-.7c0-.7.3-1 1-1l.5.1.3-.9-1-.1c-1 0-1.8.5-1.8 1.7v.9h-1v.8h1v5.7h1v-5.7h1.5v-.8zm4 6.6c1.3 0 2.3-.6 2.6-1.6l-1-.3c-.3.7-.8 1-1.6 1-1.2 0-2-.7-2-2.1h4.7v-.5c0-2.4-1.5-3.2-2.8-3.2-1.8 0-3 1.4-3 3.4s1.2 3.3 3 3.3zm-2-3.9c0-1 .7-2 1.9-2 1 0 1.8.9 1.8 2h-3.8zm6.3 3.8h1v-4.1c0-1 .7-1.6 1.7-1.6h.6v-1h-.5c-.8 0-1.5.5-1.7 1.1h-.1v-1h-1v6.6zm4.6 0h1v-6.5h-1v6.5zm.5-7.6c.4 0 .7-.3.7-.7 0-.4-.3-.7-.7-.7-.4 0-.7.3-.7.7 0 .4.3.7.7.7zm3.5 3.7c0-1.2.7-1.8 1.7-1.8.9 0 1.5.6 1.5 1.6v4.1h1v-4.2c0-1.6-1-2.4-2.3-2.4-1 0-1.6.4-1.9 1v-1h-1v6.6h1v-4zm8.8 6.5c1.5 0 2.8-.7 2.8-2.4v-6.7h-1v1c-.3-.3-.7-1.1-2-1.1-1.6 0-2.8 1.3-2.8 3.3 0 2 1.2 3.2 2.8 3.2 1.3 0 1.7-.8 1.9-1.1v1.3c0 1.1-.7 1.6-1.7 1.6-1.2 0-1.6-.6-2-1l-.7.6c.4.7 1.2 1.3 2.7 1.3zm0-3.6c-1.3 0-2-1-2-2.3 0-1.4.6-2.4 2-2.4 1.2 0 1.8 1 1.8 2.4s-.7 2.3-1.9 2.3zm6.2-.2h-1v.5l-.6 2.8h.8l.8-2.8v-.5zm7.5 1.4c1 0 1.7-.7 1.9-1v.8h1v-4.3c0-2-1.5-2.3-2.4-2.3-1 0-2 .3-2.6 1.5l1 .3c.2-.4.7-1 1.7-1 .9 0 1.3.5 1.3 1.4 0 .5-.4.5-1.6.6-1.3.2-2.6.4-2.6 2 0 1.2 1 2 2.3 2zm.1-1c-.8 0-1.4-.3-1.4-1 0-.8.7-1 1.5-1.1.4 0 1.6-.2 1.7-.4v1c0 .7-.6 1.6-1.8 1.6zm9.3-3.1c0-1.2.7-1.8 1.7-1.8s1.5.6 1.5 1.6v4.1h1v-4.2c0-1.6-.8-2.4-2.2-2.4-1 0-1.6.4-2 1v-3.1h-1v8.7h1v-4zm8.9 4c1.7 0 3-1.3 3-3.3 0-2-1.3-3.4-3-3.4-1.8 0-3 1.3-3 3.4 0 2 1.2 3.3 3 3.3zm0-.9c-1.4 0-2-1.1-2-2.4 0-1.4.6-2.5 2-2.5 1.3 0 2 1.1 2 2.5 0 1.3-.7 2.4-2 2.4zm9.2-4.3c-.3-1-1-1.5-2.3-1.5-1.4 0-2.4.8-2.4 1.9 0 .9.5 1.5 1.7 1.8l1.1.2c.7.2 1 .5 1 1s-.6 1-1.5 1c-.8 0-1.4-.4-1.5-1.1l-1 .2c.2 1.1 1.2 1.7 2.5 1.7 1.5 0 2.5-.8 2.5-2 0-.8-.5-1.4-1.7-1.7l-1-.2c-.7-.2-1-.5-1-1 0-.6.5-1 1.3-1 .9 0 1.3.5 1.4 1l1-.3zm4.6-1.4h-1.4v-1.6h-1v1.6h-1v.8h1v4.1c0 1.1 1 1.7 1.8 1.7l.7-.1-.2-1-.4.1c-.4 0-.9-.1-.9-1v-3.8h1.4v-.8zm4.3 6.6c1.4 0 2.3-.6 2.6-1.6l-1-.3c-.2.7-.8 1-1.6 1-1.1 0-2-.7-2-2.1h4.7v-.5c0-2.4-1.4-3.2-2.8-3.2-1.7 0-3 1.4-3 3.4s1.2 3.3 3.1 3.3zm-2-3.9c0-1 .8-2 2-2 1 0 1.7.9 1.7 2h-3.7zm8.9 4c1.2 0 1.7-.8 1.9-1.2h.1v1h1v-8.7h-1v3.2h-.1c-.2-.3-.6-1.1-2-1.1-1.6 0-2.7 1.3-2.7 3.3 0 2.1 1.1 3.4 2.8 3.4zm.1-1c-1.3 0-2-1-2-2.5 0-1.4.7-2.4 2-2.4 1.2 0 1.9 1 1.9 2.4 0 1.5-.7 2.5-1.9 2.5zM185 326h1a3.5 3.5 0 00-3.5-2.8c-2.3 0-3.8 1.7-3.8 4.4 0 2.8 1.5 4.5 3.8 4.5 2.1 0 3.6-1.4 3.6-3.5v-1h-3.3v1h2.3c0 1.5-1 2.5-2.6 2.5s-2.8-1.2-2.8-3.5c0-2.2 1.2-3.5 2.8-3.5 1.2 0 2.1.8 2.5 1.9zm4.8 6.2c1.2 0 1.8-.7 2-1v.8h1v-4.3c0-2-1.6-2.3-2.4-2.3-1 0-2.1.3-2.6 1.5l1 .3c.2-.4.7-1 1.6-1 1 0 1.4.5 1.4 1.4 0 .5-.5.5-1.7.6-1.2.2-2.5.4-2.5 2 0 1.2 1 2 2.2 2zm.2-1c-.8 0-1.4-.3-1.4-1 0-.8.7-1 1.5-1.1.4 0 1.6-.2 1.7-.4v1c0 .7-.6 1.6-1.8 1.6zm7.6-5.7h-1.4v-1.6h-1v1.6h-1v.8h1v4.1c0 1.1 1 1.7 1.8 1.7l.8-.1-.3-1-.4.1c-.4 0-.9-.1-.9-1v-3.8h1.4v-.8zm6.2 1.4c-.3-1-1-1.5-2.3-1.5-1.4 0-2.4.8-2.4 1.9 0 .9.5 1.5 1.7 1.8l1 .2c.8.2 1 .5 1 1s-.5 1-1.5 1c-.8 0-1.3-.4-1.5-1.1l-1 .2c.3 1.1 1.2 1.7 2.5 1.7 1.6 0 2.6-.8 2.6-2 0-.8-.6-1.4-1.7-1.7l-1-.2c-.8-.2-1.1-.5-1.1-1 0-.6.6-1 1.4-1 .8 0 1.2.5 1.4 1l.9-.3zm1.9 5.1h1v-1c.3.4.7 1.1 2 1.1 1.6 0 2.8-1.3 2.8-3.4 0-2-1.2-3.3-2.8-3.3-1.3 0-1.7.8-2 1v-3.1h-1v8.7zm1-3.3c0-1.4.6-2.4 1.8-2.4 1.3 0 2 1 2 2.4s-.7 2.5-2 2.5c-1.2 0-1.8-1-1.8-2.5zm6.8 5.7c1 0 1.6-.4 2-1.4l2.7-7.5h-1l-1.9 5.2-1.8-5.2h-1.1l2.4 6.5-.2.5c-.4 1-.8 1.1-1.6 1l-.2.8.7.1zM73 349.4h1V346h.1c.2.4.7 1.1 2 1.1 1.6 0 2.7-1.3 2.7-3.4 0-2-1.1-3.3-2.8-3.3-1.3 0-1.7.8-1.9 1H74v-1h-1v9zm1-5.7c0-1.4.7-2.4 1.9-2.4 1.3 0 1.9 1 1.9 2.4s-.7 2.5-2 2.5c-1.1 0-1.8-1-1.8-2.5zm6.5 3.3h1v-4.1c0-1 .7-1.6 1.6-1.6h.6v-1h-.5c-.8 0-1.5.5-1.7 1.1v-1h-1v6.6zm7 .1c1.4 0 2.4-.6 2.7-1.6l-1-.3c-.2.7-.8 1-1.6 1-1.2 0-2-.7-2-2.1h4.7v-.5c0-2.4-1.5-3.2-2.8-3.2-1.8 0-3 1.4-3 3.4s1.2 3.3 3 3.3zm-2-3.9c.1-1 .8-2 2-2 1 0 1.8.9 1.8 2h-3.8zm11.8-2.7h-1.1l-1.8 5.2-1.9-5.2h-1l2.4 6.5h1l2.4-6.5zm1.4 6.5h1v-6.5h-1v6.5zm.6-7.6c.3 0 .7-.3.7-.7 0-.4-.4-.7-.7-.7-.4 0-.8.3-.8.7 0 .4.4.7.8.7zm5.2 7.7c1.3 0 2.3-.6 2.6-1.6l-1-.3c-.3.7-.9 1-1.6 1-1.2 0-2-.7-2-2.1h4.7v-.5c0-2.4-1.5-3.2-2.8-3.2-1.8 0-3 1.4-3 3.4s1.2 3.3 3 3.3zm-2-3.9c0-1 .7-2 1.9-2 1 0 1.7.9 1.7 2h-3.7zm7.8 3.8h1l1.4-5h.1l1.5 5h1l2-6.5H116l-1.4 5h-.1l-1.4-5h-1l-1.5 5-1.4-5h-1.1l2 6.5zm16.5-5c-.3-1-1-1.6-2.3-1.6-1.4 0-2.4.8-2.4 1.9 0 .9.5 1.5 1.7 1.8l1.1.2c.7.2 1 .5 1 1s-.6 1-1.5 1-1.4-.4-1.6-1.1l-1 .2c.3 1.1 1.2 1.7 2.6 1.7 1.5 0 2.5-.8 2.5-2 0-.8-.5-1.4-1.7-1.7l-1-.2c-.8-.2-1.1-.5-1.1-1 0-.6.6-1 1.4-1 .9 0 1.2.5 1.4 1l1-.3zm4.5 5.1c1.3 0 2.3-.6 2.6-1.6l-1-.3c-.2.7-.8 1-1.6 1-1.2 0-2-.7-2-2.1h4.7v-.5c0-2.4-1.4-3.2-2.8-3.2-1.8 0-3 1.4-3 3.4s1.2 3.3 3.1 3.3zm-2-3.9c0-1 .8-2 2-2 1 0 1.7.9 1.7 2h-3.7zm6.4 3.8h1v-4.1c0-1 .7-1.6 1.6-1.6h.6v-1h-.5c-.8 0-1.4.5-1.7 1.1v-1h-1v6.6zm10.1-6.5h-1l-1.9 5.2-1.9-5.2h-1l2.4 6.5h1l2.4-6.5zm1.5 6.5h1v-6.5h-1v6.5zm.5-7.6c.4 0 .7-.3.7-.7 0-.4-.3-.7-.7-.7-.4 0-.7.3-.7.7 0 .4.3.7.7.7zm5 7.7c1.5 0 2.5-.9 2.7-2h-1c-.2.7-.8 1.1-1.6 1.1-1.2 0-2-1-2-2.5s.8-2.4 2-2.4c.9 0 1.4.5 1.6 1.1h1c-.2-1.2-1.3-2-2.6-2-1.8 0-3 1.4-3 3.4s1.1 3.3 3 3.3zm7 0c1.3 0 2.3-.6 2.6-1.6l-1-.3c-.2.7-.8 1-1.6 1-1.2 0-2-.7-2-2.1h4.7v-.5c0-2.4-1.4-3.2-2.8-3.2-1.8 0-3 1.4-3 3.4s1.2 3.3 3 3.3zm-2-3.9c0-1 .7-2 1.9-2 1 0 1.8.9 1.8 2h-3.7zm12.8-2.7H169v-.7c0-.7.3-1 1-1l.5.1.3-.9-1-.1c-1 0-1.8.5-1.8 1.7v.9h-1v.8h1v5.7h1v-5.7h1.5v-.8zm3.9 6.6c1.8 0 3-1.3 3-3.3 0-2-1.2-3.4-3-3.4s-3 1.3-3 3.4c0 2 1.2 3.3 3 3.3zm0-.9c-1.4 0-2-1.1-2-2.4 0-1.4.6-2.5 2-2.5 1.3 0 2 1.1 2 2.5 0 1.3-.7 2.4-2 2.4zm4.6.8h1v-4.1c0-1 .7-1.6 1.7-1.6h.6v-1h-.6c-.7 0-1.4.5-1.7 1.1v-1h-1v6.6zm11-6.5h-1.5v-1.6h-1v1.6h-1v.8h1v4.1c0 1.1 1 1.7 1.8 1.7l.7-.1-.2-1-.4.1c-.4 0-.9-.1-.9-1v-3.8h1.4v-.8zm4.2 6.6c1.4 0 2.3-.6 2.6-1.6l-1-.3c-.2.7-.8 1-1.6 1-1.1 0-2-.7-2-2.1h4.7v-.5c0-2.4-1.4-3.2-2.8-3.2-1.7 0-3 1.4-3 3.4s1.2 3.3 3.1 3.3zm-2-3.9c0-1 .8-2 2-2 1 0 1.7.9 1.7 2h-3.7zm8.3 4c1.2 0 1.8-.7 2-1v.8h1v-4.3c0-2-1.6-2.3-2.4-2.3-1 0-2.1.3-2.6 1.5l1 .3c.2-.4.7-1 1.6-1 1 0 1.4.5 1.4 1.4 0 .5-.5.5-1.7.6-1.2.2-2.5.4-2.5 2 0 1.2 1 2 2.2 2zm.2-1c-.8 0-1.4-.3-1.4-1 0-.8.7-1 1.5-1.1.4 0 1.5-.2 1.7-.4v1c0 .7-.6 1.6-1.8 1.6zm4.8.8h1v-4c0-1 .7-1.7 1.5-1.7.7 0 1.3.5 1.3 1.2v4.5h1v-4.3c0-.8.5-1.4 1.4-1.4.7 0 1.4.4 1.4 1.3v4.4h1v-4.4c0-1.5-.9-2.2-2-2.2-1 0-1.7.4-2 1-.4-.6-1-1-1.8-1-.9 0-1.5.4-1.8 1v-1h-1v6.6zm15.2-5c-.4-1-1-1.6-2.4-1.6-1.3 0-2.4.8-2.4 1.9 0 .9.6 1.5 1.8 1.8l1 .2c.7.2 1 .5 1 1s-.6 1-1.5 1c-.8 0-1.3-.4-1.5-1.1l-1 .2c.3 1.1 1.2 1.7 2.5 1.7 1.5 0 2.6-.8 2.6-2 0-.8-.6-1.4-1.8-1.7l-1-.2c-.7-.2-1-.5-1-1 0-.6.5-1 1.3-1 1 0 1.3.5 1.5 1l.9-.3zm3.2 3.8h-1l-.1.5-.5 2.8h.8c.2-.5.6-1.9.7-2.8l.1-.5zm7 1.2h1l1.4-5h.1l1.4 5h1l2-6.5h-1l-1.5 5-1.4-5h-1l-1.5 5-1.5-5h-1l2 6.5zm8.4 0h1v-6.5h-1v6.5zm.5-7.6c.4 0 .7-.3.7-.7 0-.4-.3-.7-.7-.7-.4 0-.7.3-.7.7 0 .4.3.7.7.7zm5.3 1h-1.4V339h-1v1.6h-1v.8h1v4.1c0 1.1.9 1.7 1.7 1.7l.8-.1-.2-1-.4.1c-.5 0-1-.1-1-1v-3.8h1.5v-.8zm2.8 2.7c0-1.2.7-1.8 1.7-1.8s1.5.6 1.5 1.6v4.1h1v-4.2c0-1.6-.9-2.4-2.2-2.4-1 0-1.7.4-2 1v-3.1h-1v8.7h1v-4zM80 356a3.4 3.4 0 00-3.5-2.8c-2.3 0-3.9 1.7-3.9 4.4 0 2.8 1.6 4.5 3.9 4.5 1.7 0 3.2-1 3.5-2.8h-1c-.3 1.2-1.4 1.8-2.5 1.8-1.6 0-2.9-1.2-2.9-3.5 0-2.2 1.3-3.5 2.9-3.5 1.1 0 2.2.7 2.4 1.9h1zm4.3 6.1c1.8 0 3-1.3 3-3.3 0-2-1.2-3.4-3-3.4-1.7 0-3 1.3-3 3.4 0 2 1.3 3.3 3 3.3zm0-.9c-1.3 0-2-1.1-2-2.4 0-1.4.7-2.5 2-2.5 1.4 0 2 1.1 2 2.5 0 1.3-.6 2.4-2 2.4zm5.7-3.1c0-1.2.7-1.8 1.6-1.8 1 0 1.5.6 1.5 1.6v4.1h1v-4.2c0-1.6-.9-2.4-2.2-2.4-1 0-1.6.4-1.9 1v-1h-1v6.6h1v-4zm9-2.6h-1.5v-1.6h-1v1.6h-1v.8h1v4.1c0 1.1 1 1.7 1.8 1.7l.8-.1-.2-1-.5.1c-.4 0-.9-.1-.9-1v-3.8H99v-.8zm4.2 6.6c1.4 0 2.3-.6 2.7-1.6l-1-.3c-.3.7-.9 1-1.7 1-1.1 0-2-.7-2-2.1h4.8v-.5c0-2.4-1.5-3.2-2.9-3.2-1.7 0-3 1.4-3 3.4s1.3 3.3 3.1 3.3zm-2-3.9c0-1 .8-2 2-2 1 0 1.7.9 1.7 2h-3.7zm7.4-.1c0-1.2.7-1.8 1.7-1.8s1.5.6 1.5 1.6v4.1h1v-4.2c0-1.6-1-2.4-2.2-2.4-1 0-1.6.4-2 1v-1h-1v6.6h1v-4zm9-2.6h-1.4v-1.6h-1v1.6h-1v.8h1v4.1c0 1.1 1 1.7 1.8 1.7l.7-.1-.2-1-.4.1c-.5 0-1-.1-1-1v-3.8h1.5v-.8zm4.5 0h-1.4v-.7c0-.7.2-1 1-1l.5.1.3-.9-1-.1c-1 0-1.8.5-1.8 1.7v.9h-1v.8h1v5.7h1v-5.7h1.4v-.8zm5.7 3.8c0 1.3-1 1.8-1.7 1.8-.8 0-1.4-.6-1.4-1.6v-4h-1v4.1c0 1.7.9 2.5 2 2.5a2 2 0 002-1.2v1.1h1.1v-6.5h-1v3.8zm4-6h-1v8.7h1v-8.7zm7.3 8.9c1.2 0 1.8-.7 2-1v.8h1v-4.3c0-2-1.5-2.3-2.4-2.3-1 0-2 .3-2.6 1.5l1 .3c.2-.4.7-1 1.7-1 .9 0 1.3.5 1.3 1.4 0 .5-.5.5-1.6.6-1.3.2-2.6.4-2.6 2 0 1.2 1 2 2.2 2zm.2-1c-.8 0-1.4-.3-1.4-1 0-.8.7-1 1.5-1.1.4 0 1.6-.2 1.7-.4v1c0 .7-.6 1.6-1.8 1.6zm9.4-4.3c-.3-1-1-1.5-2.3-1.5-1.4 0-2.4.8-2.4 1.9 0 .9.6 1.5 1.8 1.8l1 .2c.7.2 1 .5 1 1s-.6 1-1.5 1c-.8 0-1.4-.4-1.5-1.1l-1 .2c.2 1.1 1.2 1.7 2.5 1.7 1.5 0 2.6-.8 2.6-2 0-.8-.6-1.4-1.8-1.7l-1-.2c-.7-.2-1-.5-1-1 0-.6.5-1 1.3-1 .9 0 1.3.5 1.4 1l1-.3zm8 5.2c1.7 0 3-1.3 3-3.3 0-2-1.3-3.4-3-3.4-1.8 0-3 1.3-3 3.4 0 2 1.2 3.3 3 3.3zm0-.9c-1.4 0-2-1.1-2-2.4 0-1.4.6-2.5 2-2.5 1.3 0 2 1.1 2 2.5 0 1.3-.7 2.4-2 2.4zm8.7-1.9c0 1.3-1 1.8-1.7 1.8-.8 0-1.4-.6-1.4-1.6v-4h-1v4.1c0 1.7.9 2.5 2 2.5a2 2 0 002-1.2v1.1h1.1v-6.5h-1v3.8zm3 2.7h1v-4.1c0-1 .7-1.6 1.6-1.6h.6v-1h-.5c-.8 0-1.5.5-1.7 1.1v-1h-1v6.6zm8 0h1v-6.5h-1v6.5zm.6-7.6c.3 0 .7-.3.7-.7 0-.4-.4-.7-.7-.7-.4 0-.8.3-.8.7 0 .4.4.7.8.7zm3.4 3.7c0-1.2.7-1.8 1.7-1.8s1.5.6 1.5 1.6v4.1h1v-4.2c0-1.6-.9-2.4-2.2-2.4-1 0-1.6.4-2 1v-1h-1v6.6h1v-4zm6.1 3.9h1v-6.5h-1v6.5zm.6-7.6c.4 0 .7-.3.7-.7 0-.4-.3-.7-.7-.7-.4 0-.8.3-.8.7 0 .4.4.7.8.7zm5.3 1H191V354h-1v1.6h-1v.8h1v4.1c0 1.1.9 1.7 1.7 1.7l.8-.1-.2-1-.5.1c-.4 0-.8-.1-.8-1v-3.8h1.4v-.8zm1.6 6.6h1v-6.5h-1v6.5zm.5-7.6c.4 0 .7-.3.7-.7 0-.4-.3-.7-.7-.7-.4 0-.7.3-.7.7 0 .4.3.7.7.7zm4.4 7.8c1.1 0 1.7-.7 2-1v.8h1v-4.3c0-2-1.6-2.3-2.4-2.3-1 0-2.1.3-2.7 1.5l1 .3c.2-.4.7-1 1.7-1s1.4.5 1.4 1.4c0 .5-.5.5-1.7.6-1.2.2-2.5.4-2.5 2 0 1.2 1 2 2.2 2zm.1-1c-.8 0-1.3-.3-1.3-1 0-.8.7-1 1.4-1.1.5 0 1.6-.2 1.8-.4v1c0 .7-.7 1.6-1.9 1.6zm5.9-8h-1v8.8h1v-8.7zM73 377h1v-6.5h-1v6.5zm.4-7.6c.4 0 .7-.3.7-.7 0-.4-.3-.7-.7-.7-.4 0-.7.3-.7.7 0 .4.3.7.7.7zM77 373c0-1.2.7-1.8 1.7-1.8.9 0 1.5.6 1.5 1.6v4.1h1v-4.2c0-1.6-1-2.4-2.2-2.4-1 0-1.6.4-2 1v-1h-1v6.6h1v-4zm9-2.6h-1.4v-1.6h-1v1.6h-1v.8h1v4.1c0 1.1.9 1.7 1.7 1.7l.8-.1-.2-1-.5.1c-.4 0-.8-.1-.8-1v-3.8h1.4v-.8zm4.3 6.6c1.3 0 2.3-.6 2.6-1.6l-1-.3c-.2.7-.8 1-1.6 1-1.2 0-2-.7-2-2.1h4.7v-.5c0-2.4-1.5-3.2-2.8-3.2-1.8 0-3 1.4-3 3.4s1.2 3.3 3 3.3zm-2-3.9c0-1 .7-2 1.9-2 1 0 1.8.9 1.8 2H88zm9 6.4c1.6 0 2.8-.7 2.8-2.4v-6.7h-1v1c-.3-.3-.7-1.1-2-1.1-1.6 0-2.8 1.3-2.8 3.3 0 2 1.2 3.2 2.8 3.2 1.3 0 1.7-.8 2-1.1v1.3c0 1.1-.8 1.6-1.8 1.6-1.2 0-1.6-.6-1.9-1l-.8.6c.4.7 1.2 1.3 2.7 1.3zm0-3.6c-1.3 0-2-1-2-2.3 0-1.4.7-2.4 2-2.4 1.2 0 1.8 1 1.8 2.4s-.6 2.3-1.9 2.3zm4.8 1h1v-4.1c0-1 .7-1.6 1.6-1.6h.6v-1h-.5c-.8 0-1.4.5-1.7 1.1v-1h-1v6.6zm6.5.2c1.1 0 1.7-.7 2-1v.8h1v-4.3c0-2-1.6-2.3-2.4-2.3-1 0-2.1.3-2.7 1.5l1 .3c.2-.4.7-1 1.7-1s1.4.5 1.4 1.4c0 .5-.5.5-1.7.6-1.2.2-2.5.4-2.5 2 0 1.2 1 2 2.2 2zm.1-1c-.8 0-1.3-.3-1.3-1 0-.8.7-1 1.4-1.1.5 0 1.6-.2 1.8-.4v1c0 .7-.7 1.6-1.9 1.6zm7.7-5.7h-1.4v-1.6h-1v1.6h-1v.8h1v4.1c0 1.1.9 1.7 1.8 1.7l.7-.1-.2-1-.4.1c-.5 0-1-.1-1-1v-3.8h1.5v-.8zm1.6 6.5h1v-6.5h-1v6.5zm.5-7.6c.4 0 .7-.3.7-.7 0-.4-.3-.7-.7-.7-.4 0-.7.3-.7.7 0 .4.3.7.7.7zm5.1 7.7c1.8 0 3-1.3 3-3.3 0-2-1.2-3.4-3-3.4-1.7 0-3 1.3-3 3.4 0 2 1.3 3.3 3 3.3zm0-.9c-1.3 0-2-1.1-2-2.4 0-1.4.7-2.5 2-2.5 1.4 0 2 1.1 2 2.5 0 1.3-.6 2.4-2 2.4zm5.7-3.1c0-1.2.7-1.8 1.6-1.8 1 0 1.5.6 1.5 1.6v4.1h1v-4.2c0-1.6-.8-2.4-2.2-2.4-1 0-1.6.4-1.9 1v-1h-1v6.6h1v-4zm6.8 4c.5 0 .8-.4.8-.8s-.3-.8-.8-.8c-.4 0-.7.4-.7.8s.3.8.7.8z" fill="#fff"/>
    <circle cx="68" cy="166" r="4" fill="#FA2915"/>
    <circle cx="81.3" cy="166" r="4" fill="#FED038"/>
    <circle cx="94.7" cy="166" r="4" fill="#37B635"/>
    <path fill-rule="evenodd" clip-rule="evenodd" d="M126 160a4 4 0 014-4h157a4 4 0 014 4v12a4 4 0 01-4 4H130a4 4 0 01-4-4v-12z" fill="#fff" fill-opacity=".1"/>
    <path d="M160 173.4c1 0 1.6-.4 2-1.4l2.8-7.5h-1.1l-1.8 5.2-1.9-5.2h-1l2.3 6.5-.2.5c-.3 1-.8 1.1-1.5 1l-.3.8.8.1zm8.4-2.3c1.8 0 3-1.3 3-3.3 0-2-1.2-3.4-3-3.4s-3 1.3-3 3.4c0 2 1.2 3.3 3 3.3zm0-.9c-1.3 0-2-1.1-2-2.4 0-1.4.7-2.5 2-2.5 1.4 0 2 1.1 2 2.5 0 1.3-.6 2.4-2 2.4zm8.5-1.9c0 1.3-1 1.8-1.7 1.8-.8 0-1.4-.6-1.4-1.6v-4h-1v4.1c0 1.7.9 2.5 2.1 2.5a2 2 0 002-1.2v1.1h1v-6.5h-1v3.8zm2.8 2.7h1v-4.1c0-1 .7-1.6 1.6-1.6h.6v-1h-.5c-.8 0-1.5.5-1.7 1.1v-1h-1v6.6zm4.3 0c.4 0 .7-.3.7-.7 0-.4-.3-.8-.7-.8-.4 0-.8.4-.8.8s.4.8.8.8zm3.4-4c0-1 .8-1.7 1.8-1.7.9 0 1.5.6 1.5 1.6v4.1h1v-4.2c0-1.6-1-2.4-2.3-2.4-1 0-1.6.4-1.9 1v-3.1h-1v8.7h1v-4zm8.7 4.1c1.4 0 2.3-.6 2.7-1.6l-1-.3c-.3.7-.9 1-1.7 1-1.1 0-2-.7-2-2.1h4.8v-.5c0-2.4-1.5-3.2-2.9-3.2-1.7 0-3 1.4-3 3.4s1.3 3.3 3.1 3.3zm-2-3.9c0-1 .8-2 2-2 1 0 1.7.9 1.7 2h-3.7zm8 4c1.2 0 1.8-.7 2-1v.8h1v-4.3c0-2-1.5-2.3-2.3-2.3-1 0-2.1.3-2.7 1.5l1 .3c.2-.4.7-1 1.7-1s1.4.5 1.4 1.4c0 .5-.5.5-1.7.6-1.2.2-2.5.4-2.5 2 0 1.2 1 2 2.2 2zm.2-1c-.8 0-1.3-.3-1.3-1 0-.8.7-1 1.4-1.1.5 0 1.6-.2 1.8-.4v1c0 .7-.7 1.6-1.9 1.6zm7 1c1.3 0 1.8-.8 2-1.2h.1v1h1v-8.7h-1v3.2h-.1c-.2-.3-.6-1.1-2-1.1-1.6 0-2.7 1.3-2.7 3.3 0 2.1 1.1 3.4 2.8 3.4zm.2-1c-1.2 0-1.9-1-1.9-2.5 0-1.4.6-2.4 2-2.4 1.1 0 1.8 1 1.8 2.4 0 1.5-.7 2.5-1.9 2.5zm5.7-8h-1v8.8h1v-8.7zm4.5 9c1.3 0 2.3-.7 2.6-1.7l-1-.3c-.2.7-.8 1-1.6 1-1.2 0-2-.7-2-2.1h4.7v-.5c0-2.4-1.4-3.2-2.8-3.2-1.8 0-3 1.4-3 3.4s1.2 3.3 3.1 3.3zm-2-4c0-1 .8-2 2-2 1 0 1.7.9 1.7 2h-3.7zm10.8-1.3c-.3-1-1-1.5-2.4-1.5-1.3 0-2.4.8-2.4 1.9 0 .9.6 1.5 1.8 1.8l1 .2c.7.2 1 .5 1 1s-.6 1-1.5 1c-.8 0-1.3-.4-1.5-1.1l-1 .2c.3 1.1 1.2 1.7 2.5 1.7 1.6 0 2.6-.8 2.6-2 0-.8-.6-1.4-1.8-1.7l-1-.2c-.7-.2-1-.5-1-1 0-.6.5-1 1.3-1 1 0 1.3.5 1.5 1l.9-.3zm6.1 0c-.3-1-1-1.5-2.3-1.5-1.4 0-2.4.8-2.4 1.9 0 .9.5 1.5 1.7 1.8l1.1.2c.7.2 1 .5 1 1s-.6 1-1.5 1-1.4-.4-1.6-1.1l-1 .2c.3 1.1 1.2 1.7 2.6 1.7 1.5 0 2.5-.8 2.5-2 0-.8-.5-1.4-1.7-1.7l-1-.2c-.8-.2-1.1-.5-1.1-1 0-.6.6-1 1.4-1 .9 0 1.2.5 1.4 1l1-.3zm2.3 5.2c.4 0 .7-.4.7-.8s-.3-.8-.7-.8c-.5 0-.8.4-.8.8s.3.8.8.8zm5 0c1.5 0 2.5-.8 2.6-2h-1c-.1.7-.7 1.1-1.5 1.1-1.2 0-2-1-2-2.5s.8-2.4 2-2.4c.9 0 1.4.5 1.5 1.1h1c-.1-1.2-1.2-2-2.5-2-1.8 0-3 1.4-3 3.4s1.1 3.3 3 3.3zm4-.1h1v-4c0-1 .7-1.7 1.5-1.7.7 0 1.3.5 1.3 1.2v4.5h1v-4.3c0-.8.5-1.4 1.5-1.4.7 0 1.3.4 1.3 1.3v4.4h1v-4.4c0-1.5-.8-2.2-2-2.2-1 0-1.6.4-2 1-.4-.6-1-1-1.8-1s-1.5.4-1.7 1h-.1v-1h-1v6.6zm15-5c-.4-1-1-1.6-2.4-1.6s-2.4.8-2.4 1.9c0 .9.6 1.5 1.8 1.8l1 .2c.7.2 1 .5 1 1s-.6 1-1.5 1c-.8 0-1.3-.4-1.5-1.1l-1 .2c.3 1.1 1.2 1.7 2.5 1.7 1.5 0 2.6-.8 2.6-2 0-.8-.6-1.4-1.8-1.7l-1-.2c-.7-.2-1-.5-1-1 0-.6.5-1 1.3-1 .9 0 1.3.5 1.4 1l1-.3z" fill="#D9D7E0"/>
    <path d="M48 343h320v37a8 8 0 01-8 8H56a8 8 0 01-8-8v-37z" fill="#232129"/>
    <path d="M48 343h320v-15a4 4 0 00-4-4H52a4 4 0 00-4 4v15z" fill="url(#paint1_linear)"/>
    <rect x="64" y="351" width="288" height="29" rx="4" fill="#639"/>
    <path d="M152.8 364h2c-.4-2-2.1-3.3-4.4-3.3-2.7 0-4.7 2-4.7 5.2s2 5.2 4.8 5.2c2.5 0 4.3-1.6 4.3-4.2v-1.2h-4.1v1.4h2.3c0 1.5-1 2.4-2.5 2.4-1.7 0-2.9-1.3-2.9-3.6s1.2-3.6 2.8-3.6c1.3 0 2.1.7 2.4 1.8zm5.9 7.2c1.2 0 2-.6 2.2-1.2v1h1.8v-5.1c0-2-1.6-2.6-3-2.6-1.7 0-3 .7-3.3 2l1.7.3c.1-.5.7-1 1.5-1 .9 0 1.3.5 1.3 1.2 0 .6-.5.6-1.9.7-1.4.2-2.9.6-2.9 2.4 0 1.5 1.1 2.3 2.6 2.3zm.5-1.4c-.8 0-1.3-.3-1.3-1s.6-1 1.4-1l1.6-.4v.9c0 .8-.7 1.5-1.7 1.5zm9.1-6.4h-1.5v-1.9H165v1.9h-1v1.4h1v4.2c0 1.4 1 2.1 2.4 2.1l1-.2-.2-1.4h-.5c-.5 0-.9 0-.9-.8v-4h1.5v-1.3zm7.5 2c-.3-1.3-1.3-2.1-3.1-2.1s-3 .9-3 2.3c0 1 .6 1.8 2 2.1l1.4.3c.7.2 1 .4 1 .9s-.6.9-1.4.9c-.9 0-1.4-.4-1.5-1l-1.8.1c.2 1.4 1.4 2.2 3.3 2.2s3.2-1 3.2-2.4c0-1-.7-1.7-2.1-2l-1.3-.3c-.8-.2-1-.5-1-1 0-.4.5-.8 1.2-.8.9 0 1.3.5 1.4 1l1.7-.2zm1.7 5.6h1.8v-1.2c.4.6 1 1.3 2.3 1.3 1.8 0 3.1-1.4 3.1-4 0-2.5-1.4-3.8-3.1-3.8-1.4 0-2 .8-2.2 1.3h-.1v-3.8h-1.8V371zm1.8-3.8c0-1.5.6-2.5 1.8-2.5 1.2 0 1.8 1 1.8 2.5 0 1.4-.6 2.5-1.8 2.5-1.2 0-1.8-1-1.8-2.5zm7.8 6.6c1.4 0 2.2-.7 2.6-1.9l3.1-8.5h-2l-1.7 5.7-1.8-5.7h-2l2.8 7.8-.1.4c-.4.8-.9.9-1.7.7l-.4 1.4 1.2.1zm19.2-9.5c-.3-2.3-2-3.6-4.3-3.6-2.6 0-4.6 2-4.6 5.2 0 3.3 2 5.2 4.6 5.2 2.4 0 4-1.5 4.3-3.5h-1.8c-.3 1.2-1.2 1.9-2.5 1.9-1.6 0-2.8-1.3-2.8-3.6s1.2-3.6 2.9-3.6c1.2 0 2.2.7 2.4 2h1.8zm3.4-3.5H208V371h1.8v-10.2zm5.2 10.3c2.3 0 3.7-1.5 3.7-3.9s-1.4-4-3.7-4c-2.2 0-3.6 1.6-3.6 4s1.4 4 3.6 4zm0-1.4c-1.2 0-1.8-1.1-1.8-2.5s.6-2.5 1.8-2.5c1.3 0 1.9 1.1 1.9 2.5s-.7 2.5-1.9 2.5zm10-2c0 1.3-.8 1.8-1.6 1.8s-1.4-.6-1.4-1.6v-4.5h-1.8v4.8c0 1.9 1 2.9 2.6 2.9 1.1 0 1.9-.6 2.3-1.5v1.4h1.8v-7.6H225v4.4zm6.6 3.4c1.3 0 1.9-.7 2.1-1.3h.2v1.2h1.7v-10.2h-1.8v3.8c-.3-.5-.9-1.3-2.2-1.3-1.8 0-3.2 1.3-3.2 3.9 0 2.5 1.4 4 3.2 4zm.5-1.4c-1.2 0-1.9-1-1.9-2.5 0-1.4.7-2.5 1.9-2.5 1.1 0 1.8 1 1.8 2.5s-.7 2.5-1.8 2.5zm9 1.3h1.8v-3.4h2c2.3 0 3.6-1.5 3.6-3.4 0-2-1.2-3.4-3.6-3.4H241V371zm1.8-5v-3.6h1.7c1.4 0 2 .7 2 1.8 0 1-.6 1.8-2 1.8h-1.7zm7.1 5h1.8v-4.5c0-1 .8-1.6 1.7-1.6h.9v-1.6h-.7a2 2 0 00-1.8 1.3h-.1v-1.2h-1.8v7.6zm8.6.1c1.8 0 3-.8 3.4-2.1l-1.7-.2c-.3.6-.9 1-1.6 1-1.2 0-2-.8-2-2.1h5.3v-.6c0-2.7-1.6-3.8-3.5-3.8-2.1 0-3.6 1.6-3.6 4 0 2.3 1.4 3.8 3.7 3.8zm-1.9-4.6c0-1 .8-1.8 1.9-1.8 1 0 1.7.7 1.7 1.8h-3.6zm13.6-3.1h-2l-1.7 5.6-1.8-5.6h-2l2.8 7.6h2l2.7-7.6zm1.2 7.6h1.8v-7.6h-1.8v7.6zm1-8.7c.5 0 1-.5 1-1s-.5-1-1-1c-.6 0-1 .5-1 1s.4 1 1 1zm6 8.8c1.9 0 3-.8 3.4-2.1l-1.7-.2c-.2.6-.8 1-1.6 1-1.2 0-2-.8-2-2.1h5.4v-.6c0-2.7-1.6-3.8-3.5-3.8-2.2 0-3.6 1.6-3.6 4 0 2.3 1.4 3.8 3.7 3.8zm-1.8-4.6c0-1 .7-1.8 1.8-1.8 1 0 1.7.7 1.7 1.8h-3.5zm8.3 4.5h2l1.3-5.2h.1l1.5 5.2h1.9l2.1-7.6H292l-1.3 5.3h-.1l-1.4-5.3h-1.8l-1.4 5.3-1.4-5.3h-1.8l2.1 7.6z" fill="#fff"/>
    <path d="M217.4 389.4c11 .3 156.7 45.3 250.8-34.5m0 0s-.2 4.2-2.5 9.5m2.5-9.5s-5-1.2-11.2-.6" stroke="url(#paint2_linear)" stroke-width="1.5" stroke-linecap="round" stroke-linejoin="round"/>
  </g>
  <circle cx="125.3" cy="363" r="2.3" fill="#fff" stroke="#fff" stroke-width="1.1"/>
  <circle cx="126" cy="358.5" r=".8" fill="#fff"/>
  <circle cx="120.8" cy="363" r=".8" fill="#fff"/>
  <circle cx="122.3" cy="359.3" r=".8" fill="#fff"/>
  <path d="M125.4 365a4.2 4.2 0 00.1-.8" stroke="#fff" stroke-width="1.1" stroke-linecap="round" stroke-linejoin="round"/>
  <path d="M134.4 364.2a4.5 4.5 0 00-8.9 0 2.8 2.8 0 10-1.2 5.4h5.6" fill="#639"/>
  <path d="M134.4 364.2a4.5 4.5 0 00-8.9 0 2.8 2.8 0 10-1.2 5.4h5.6" stroke="#fff" stroke-width="1.1" stroke-linejoin="round"/>
  <circle r="4.7" transform="matrix(-1 0 0 1 133.1 368.3)" fill="#639" stroke="#639" stroke-width="1.9"/>
  <path d="M136.1 366a3.7 3.7 0 10.7 2.6h-3" stroke="#fff" stroke-width="1.5" stroke-miterlimit="10"/>
  <g filter="url(#filter2_dd)">
    <mask id="e" maskUnits="userSpaceOnUse" x="196" y="372" width="32" height="38" fill="#000">
      <path fill="#fff" d="M196 372h32v38h-32z"/>
      <path fill-rule="evenodd" clip-rule="evenodd" d="M205.7 394l-1.8-2.7a4.5 4.5 0 00-5.8-1.5l.5-.3c-.5.3-.7 1-.5 1.4l2.4 6.4c.4 1 1.4 2.4 2.2 3.1 0 0 5 4.1 5 5.7v1.9h8l2-4 2 4h2v-2c0-1.5 3-6.3 3-6.3.5-1 1-2.6 1-3.7v-8c0-1.8-1.5-3.3-3.4-3.3-1 0-1.7.7-1.7 1.6v.7c0-1.8-1.5-3.3-3.4-3.3-1 0-1.7.8-1.7 1.7v.6c0-1.8-1.5-3.2-3.4-3.2-1 0-1.7.7-1.7 1.6V384.3l-.6-8.3c0-1.1-1-2-2.1-2a2 2 0 00-2 2v18zm14-2h2v8h-2v-8zm-4 0h2v8h-2v-8zm-4 0h2v8h-2v-8z"/>
    </mask>
    <path fill-rule="evenodd" clip-rule="evenodd" d="M205.7 394l-1.8-2.7a4.5 4.5 0 00-5.8-1.5l.5-.3c-.5.3-.7 1-.5 1.4l2.4 6.4c.4 1 1.4 2.4 2.2 3.1 0 0 5 4.1 5 5.7v1.9h8l2-4 2 4h2v-2c0-1.5 3-6.3 3-6.3.5-1 1-2.6 1-3.7v-8c0-1.8-1.5-3.3-3.4-3.3-1 0-1.7.7-1.7 1.6v.7c0-1.8-1.5-3.3-3.4-3.3-1 0-1.7.8-1.7 1.7v.6c0-1.8-1.5-3.2-3.4-3.2-1 0-1.7.7-1.7 1.6V384.3l-.6-8.3c0-1.1-1-2-2.1-2a2 2 0 00-2 2v18zm14-2h2v8h-2v-8zm-4 0h2v8h-2v-8zm-4 0h2v8h-2v-8z" fill="#fff"/>
    <path d="M205.7 394l-1.7 1.1 3.7 5.6V394h-2zm-1.8-2.7l1.7-1.1-1.7 1zm-5.8-.4l-1.9.8 1.9-.8zm2.4 6.4l1.9-.7-1.9.7zm2.2 3.1l-1.3 1.6 1.3-1.6zm5 7.6h-2v2h2v-2zm8 0v2h1.2l.6-1.1-1.8-.9zm2-4l1.8-.9-1.8-3.6-1.8 3.6 1.8.9zm2 4l-1.8.9.5 1.1h1.3v-2zm2 0v2h2v-2h-2zm3-8.3l1.7 1-1.7-1zm1-11.8h2-2zm-15.4-3.6l-2 .2v.2l.1.3 2-.7zm-.5-8.3l-2 .1 2-.1zm-4.1 0h-2 2zm16 16h2v-2h-2v2zm0 8v2h2v-2h-2zm-2 0h-2v2h2v-2zm-2-8h2v-2h-2v2zm0 8v2h2v-2h-2zm-2 0h-2v2h2v-2zm-2-8h2v-2h-2v2zm0 8v2h2v-2h-2zm-2 0h-2v2h2v-2zm-4.4-7.1l-1.7-2.7-3.4 2.2 1.8 2.7 3.3-2.2zm-1.7-2.7a6.5 6.5 0 00-8.4-2.2l1.9 3.6c1-.6 2.5-.2 3.1.8l3.4-2.2zm-6.5 1.4l.4-.3-1.8-3.5-.5.2 1.9 3.6zm-1.4-3.8c-1.4.7-2 2.4-1.5 3.9l3.7-1.5v.6c0 .2-.1.4-.4.5l-1.8-3.5zm-1.5 3.9l2.5 6.3 3.7-1.4-2.5-6.4-3.7 1.5zm2.5 6.3c.5 1.3 1.6 3 2.7 4l2.6-3a7.6 7.6 0 01-1.6-2.4l-3.7 1.4zm4 2.4l-1.2 1.6.2.1a46.2 46.2 0 014 4.2v-.2h4c0-.7-.3-1.3-.5-1.6l-.7-1.2a21.5 21.5 0 00-3.7-3.7l-.6-.5-.1-.1v-.1l-1.4 1.5zm3 5.7v1.9h4v-2h-4zm2 3.9h8v-4h-8v4zm9.8-1.1l2-4-3.6-1.8-2 4 3.6 1.8zm-1.6-4l2 4 3.6-1.8-2-4-3.6 1.8zm3.8 5.1h2v-4h-2v4zm4-2v-2h-4v2h4zm0-2l.3-.8a24.1 24.1 0 012-3.7c0-.2.2-.4.3-.5v-.2l-1.6-1.1-1.7-1-.1.2a50.7 50.7 0 00-2.6 4.7c-.3.7-.6 1.6-.6 2.5h4zm2.7-5.3a9.7 9.7 0 001.3-4.7h-4c0 .3 0 .8-.2 1.4l-.5 1.3 3.4 2zm1.3-4.7v-8h-4v8h4zm0-8.1c0-3-2.5-5.2-5.4-5.2v4c.8 0 1.4.7 1.4 1.3l4-.1zm-5.4-5.2c-2 0-3.7 1.5-3.7 3.6h4l-.1.3-.2.1v-4zm-3.7 3.6v.7h4v-.7h-4zm4 .7c0-3-2.5-5.3-5.4-5.3v4c.8 0 1.4.7 1.4 1.3h4zm-5.4-5.3c-2 0-3.7 1.6-3.7 3.7h4l-.1.3h-.2v-4zm-3.7 3.7v.6h4v-.6h-4zm4 .6c0-3-2.5-5.2-5.4-5.2v4c.9 0 1.4.6 1.4 1.2h4zm-5.4-5.2c-2 0-3.7 1.5-3.7 3.6h4l-.1.3h-.2v-4zm-3.7 3.6v.6h4v-.6h-4zm4 .6c0-.4 0-.8-.2-1.3l-3.8 1.3v-.1.1h4zm0-.8l-.6-8.3-4 .2.5 8.4 4-.3zm-.6-8.3c-.1-2.2-2-3.9-4.1-3.9v4l.1.1 4-.2zm-4.1-3.9a4 4 0 00-4 4h4v-4zm-4 4v8h4v-8h-4zm0 8v10h4v-10h-4zm16 10h2v-4h-2v4zm0-2v8h4v-8h-4zm2 6h-2v4h2v-4zm0 2v-8h-4v8h4zm-6-6h2v-4h-2v4zm0-2v8h4v-8h-4zm2 6h-2v4h2v-4zm0 2v-8h-4v8h4zm-6-6h2v-4h-2v4zm0-2v8h4v-8h-4zm2 6h-2v4h2v-4zm0 2v-8h-4v8h4z" fill="#639" mask="url(#e)"/>
  </g>
  <defs>
    <linearGradient id="paint0_linear" x1="364" y1="126" x2="364" y2="378" gradientUnits="userSpaceOnUse">
      <stop stop-color="#F5FCFF"/>
      <stop offset="0" stop-color="#F5FCFF"/>
      <stop offset=".4" stop-color="#F5FCFF"/>
      <stop offset="1" stop-color="#F6EDFA"/>
    </linearGradient>
    <linearGradient id="paint1_linear" x1="208" y1="343" x2="208" y2="324" gradientUnits="userSpaceOnUse">
      <stop/>
      <stop offset="1" stop-opacity="0"/>
    </linearGradient>
    <linearGradient id="paint2_linear" x1="366.7" y1="417.1" x2="322.3" y2="333.6" gradientUnits="userSpaceOnUse">
      <stop stop-color="#159BF3"/>
      <stop offset="1" stop-color="#639"/>
    </linearGradient>
    <filter id="filter0_dd" x="132" y="0" width="576" height="408" filterUnits="userSpaceOnUse" color-interpolation-filters="sRGB">
      <feFlood flood-opacity="0" result="BackgroundImageFix"/>
      <feColorMatrix in="SourceAlpha" values="0 0 0 0 0 0 0 0 0 0 0 0 0 0 0 0 0 0 127 0"/>
      <feOffset dy="8"/>
      <feGaussianBlur stdDeviation="8"/>
      <feColorMatrix values="0 0 0 0 0.0509804 0 0 0 0 0.588235 0 0 0 0 0.94902 0 0 0 0.04 0"/>
      <feBlend in2="BackgroundImageFix" result="effect1_dropShadow"/>
      <feColorMatrix in="SourceAlpha" values="0 0 0 0 0 0 0 0 0 0 0 0 0 0 0 0 0 0 127 0"/>
      <feOffset dy="16"/>
      <feGaussianBlur stdDeviation="24"/>
      <feColorMatrix values="0 0 0 0 0.0509804 0 0 0 0 0.588235 0 0 0 0 0.94902 0 0 0 0.16 0"/>
      <feBlend in2="effect1_dropShadow" result="effect2_dropShadow"/>
      <feBlend in="SourceGraphic" in2="effect2_dropShadow" result="shape"/>
    </filter>
    <filter id="filter1_dd" x="0" y="116" width="520.6" height="421.9" filterUnits="userSpaceOnUse" color-interpolation-filters="sRGB">
      <feFlood flood-opacity="0" result="BackgroundImageFix"/>
      <feColorMatrix in="SourceAlpha" values="0 0 0 0 0 0 0 0 0 0 0 0 0 0 0 0 0 0 127 0"/>
      <feOffset dy="8"/>
      <feGaussianBlur stdDeviation="8"/>
      <feColorMatrix values="0 0 0 0 0.18 0 0 0 0 0.16 0 0 0 0 0.2 0 0 0 0.04 0"/>
      <feBlend in2="BackgroundImageFix" result="effect1_dropShadow"/>
      <feColorMatrix in="SourceAlpha" values="0 0 0 0 0 0 0 0 0 0 0 0 0 0 0 0 0 0 127 0"/>
      <feOffset dy="16"/>
      <feGaussianBlur stdDeviation="24"/>
      <feColorMatrix values="0 0 0 0 0.278823 0 0 0 0 0.247843 0 0 0 0 0.309804 0 0 0 0.16 0"/>
      <feBlend in2="effect1_dropShadow" result="effect2_dropShadow"/>
      <feBlend in="SourceGraphic" in2="effect2_dropShadow" result="shape"/>
    </filter>
    <filter id="filter2_dd" x="188" y="368" width="47.7" height="54" filterUnits="userSpaceOnUse" color-interpolation-filters="sRGB">
      <feFlood flood-opacity="0" result="BackgroundImageFix"/>
      <feColorMatrix in="SourceAlpha" values="0 0 0 0 0 0 0 0 0 0 0 0 0 0 0 0 0 0 127 0"/>
      <feOffset dy="2"/>
      <feGaussianBlur stdDeviation="2"/>
      <feColorMatrix values="0 0 0 0 0.18 0 0 0 0 0.16 0 0 0 0 0.2 0 0 0 0.08 0"/>
      <feBlend in2="BackgroundImageFix" result="effect1_dropShadow"/>
      <feColorMatrix in="SourceAlpha" values="0 0 0 0 0 0 0 0 0 0 0 0 0 0 0 0 0 0 127 0"/>
      <feOffset dy="4"/>
      <feGaussianBlur stdDeviation="4"/>
      <feColorMatrix values="0 0 0 0 0.278823 0 0 0 0 0.247843 0 0 0 0 0.309804 0 0 0 0.16 0"/>
      <feBlend in2="effect1_dropShadow" result="effect2_dropShadow"/>
      <feBlend in="SourceGraphic" in2="effect2_dropShadow" result="shape"/>
    </filter>
  </defs>
</svg>
