<svg width="553" height="423" fill="none" xmlns="http://www.w3.org/2000/svg">
  <rect x="453" y="213" width="8" height="8" rx="4" transform="rotate(-90 453 213)" fill="#D9D7E0"/>
  <path d="M457.2 181v16" stroke="#D9D7E0" stroke-width="2"/>
  <path d="M460 196.5h-5.6c-.5 0-.7.5-.4.8l2.8 3.3c.2.2.6.2.8 0l2.8-3.3c.3-.3 0-.8-.4-.8z" fill="#D9D7E0"/>
  <g filter="url(#filter0_dd)">
    <path d="M274 40a8 8 0 018-8h215a8 8 0 018 8v311a8 8 0 01-8 8H282a8 8 0 01-8-8V40z" fill="#fff"/>
  </g>
  <path d="M401.9 333h5.5v-1h-4l2-2.1c1.4-1.6 1.9-2.4 1.9-3.3 0-1.4-1.1-2.4-2.7-2.4-1.5 0-2.7 1-2.7 2.5h1c0-1 .7-1.6 1.7-1.6s1.7.6 1.7 1.5c0 .8-.5 1.4-1.5 2.5l-2.9 3.1v.8zm7.8-7c0-.6.4-1 1-1s1 .4 1 1v2.6h.8v-2.8c0-1-.6-1.6-1.5-1.6-.6 0-1 .3-1.3.8v-.7h-.9v4.3h1V326zm7.8 2.6v-5.8h-1v2.3c-.1-.4-.5-.9-1.3-.9-1 0-1.7.8-1.7 2.3 0 1.4.7 2.2 1.7 2.2.8 0 1.2-.5 1.3-.9v.8h1zm-1-2.1c0 .9-.3 1.5-1 1.5s-1.1-.7-1.1-1.5c0-.9.4-1.5 1-1.5.8 0 1.2.6 1.2 1.5zm6 6.5h1v-1h.1c.2.4.7 1.1 2 1.1 1.6 0 2.7-1.3 2.7-3.4 0-2-1.1-3.3-2.8-3.3-1.3 0-1.7.8-1.9 1v-3.1h-1v8.7zm1-3.3c0-1.4.7-2.4 1.9-2.4 1.3 0 1.9 1 1.9 2.4s-.6 2.5-2 2.5c-1.1 0-1.8-1-1.8-2.5zm10.5.6c0 1.3-1 1.8-1.7 1.8-.9 0-1.4-.6-1.4-1.6v-4h-1v4.1c0 1.7.8 2.5 2 2.5a2 2 0 002-1.2v1.1h1v-6.5h-1v3.8zm2.8 2.7h1v-6.5h-1v6.5zm.5-7.6c.4 0 .7-.3.7-.7 0-.4-.3-.7-.7-.7-.4 0-.7.3-.7.7 0 .4.3.7.7.7zm3.4-1.1h-1v8.7h1v-8.7zm4.3 8.8c1.2 0 1.7-.7 1.9-1.1h.1v1h1v-8.7h-1v3.2h-.1c-.2-.3-.6-1.1-1.9-1.1-1.7 0-2.8 1.3-2.8 3.3 0 2.1 1.1 3.4 2.8 3.4zm.1-.9c-1.2 0-1.9-1-1.9-2.5 0-1.4.6-2.4 2-2.4 1.1 0 1.8 1 1.8 2.4 0 1.5-.7 2.5-1.9 2.5zM122.9 333h5.5v-1h-4l2-2.1c1.4-1.6 1.9-2.4 1.9-3.3 0-1.4-1.1-2.4-2.7-2.4-1.5 0-2.7 1-2.7 2.5h1c0-1 .7-1.6 1.7-1.6s1.7.6 1.7 1.5c0 .8-.5 1.4-1.5 2.5l-2.9 3.1v.8zm7.8-7c0-.6.4-1 1-1s1 .4 1 1v2.6h.8v-2.8c0-1-.6-1.6-1.5-1.6-.6 0-1 .3-1.3.8v-.7h-.9v4.3h1V326zm7.8 2.6v-5.8h-1v2.3c-.1-.4-.5-.9-1.3-.9-1 0-1.7.8-1.7 2.3 0 1.4.7 2.2 1.7 2.2.8 0 1.2-.5 1.3-.9v.8h1zm-1-2.1c0 .9-.3 1.5-1 1.5s-1.1-.7-1.1-1.5c0-.9.4-1.5 1-1.5.8 0 1.2.6 1.2 1.5zm6 6.5h1v-1h.1c.2.4.7 1.1 2 1.1 1.6 0 2.7-1.3 2.7-3.4 0-2-1.1-3.3-2.8-3.3-1.3 0-1.7.8-1.9 1v-3.1h-1v8.7zm1-3.3c0-1.4.7-2.4 1.9-2.4 1.3 0 1.9 1 1.9 2.4s-.6 2.5-2 2.5c-1.1 0-1.8-1-1.8-2.5zm10.5.6c0 1.3-1 1.8-1.7 1.8-.9 0-1.4-.6-1.4-1.6v-4h-1v4.1c0 1.7.8 2.5 2 2.5a2 2 0 002-1.2v1.1h1v-6.5h-1v3.8zm2.8 2.7h1v-6.5h-1v6.5zm.5-7.6c.4 0 .7-.3.7-.7 0-.4-.3-.7-.7-.7-.4 0-.7.3-.7.7 0 .4.3.7.7.7zm3.4-1.1h-1v8.7h1v-8.7zm4.3 8.8c1.2 0 1.7-.7 1.9-1.1h.1v1h1v-8.7h-1v3.2h-.1c-.2-.3-.6-1.1-1.9-1.1-1.7 0-2.8 1.3-2.8 3.3 0 2.1 1.1 3.4 2.8 3.4zm.1-.9c-1.2 0-1.9-1-1.9-2.5 0-1.4.6-2.4 2-2.4 1.1 0 1.8 1 1.8 2.4 0 1.5-.7 2.5-1.9 2.5zM22 324.3h-1l-2.3 1.4v1.1l2.2-1.4v7.6h1v-8.7zm5.5 1.1c-.2-.7-.8-1.2-1.7-1.2-1 0-1.7.5-1.7 1.3 0 .6.3 1 1.1 1.2l.8.2c.5 0 .6.3.6.5 0 .4-.3.6-.9.6-.5 0-.8-.2-.9-.6H24c.2.8.8 1.3 1.8 1.3s1.8-.5 1.8-1.3c0-.6-.3-1-1.1-1.2l-.8-.2c-.4 0-.6-.3-.6-.5 0-.4.3-.6.8-.6s.7.3.8.6h.9zm3-1.1h-.8v-1h-1v1h-.6v.7h.7v2.5c0 .8.5 1.2 1.3 1.2l.5-.1-.1-.7h-.3c-.3 0-.5-.1-.5-.5V325h.8v-.7zm4.8 8.7h1v-1h.1c.3.4.7 1.1 2 1.1 1.6 0 2.7-1.3 2.7-3.4 0-2-1.1-3.3-2.8-3.3-1.2 0-1.6.8-1.9 1v-3.1h-1v8.7zm1-3.3c0-1.4.7-2.4 2-2.4 1.2 0 1.8 1 1.8 2.4s-.6 2.5-1.9 2.5c-1.2 0-1.9-1-1.9-2.5zm10.5.6c0 1.3-1 1.8-1.7 1.8-.8 0-1.4-.6-1.4-1.6v-4h-1v4.1c0 1.7.8 2.5 2 2.5a2 2 0 002-1.2v1.1h1v-6.5h-1v3.8zm2.8 2.7h1v-6.5h-1v6.5zm.5-7.6c.4 0 .8-.3.8-.7 0-.4-.4-.7-.8-.7-.3 0-.7.3-.7.7 0 .4.4.7.7.7zm3.4-1.1h-1v8.7h1v-8.7zm4.3 8.8c1.3 0 1.7-.7 2-1.1v1h1v-8.7h-1v3.2c-.3-.3-.7-1.1-2-1.1-1.6 0-2.8 1.3-2.8 3.3 0 2.1 1.2 3.4 2.8 3.4zm.1-.9c-1.2 0-1.9-1-1.9-2.5 0-1.4.7-2.4 2-2.4 1.2 0 1.8 1 1.8 2.4 0 1.5-.7 2.5-1.9 2.5zM301 324.3h-1l-2.3 1.4v1.1l2.2-1.4v7.6h1v-8.7zm5.5 1.1c-.2-.7-.8-1.2-1.7-1.2-1 0-1.7.5-1.7 1.3 0 .6.3 1 1.1 1.2l.8.2c.5 0 .6.3.6.5 0 .4-.3.6-.9.6-.5 0-.8-.2-.9-.6h-.9c.2.8.8 1.3 1.8 1.3s1.9-.5 1.9-1.3c0-.6-.4-1-1.2-1.2l-.8-.2c-.4 0-.6-.3-.6-.5 0-.4.3-.6.8-.6s.7.3.8.6h.9zm3-1.1h-.8v-1h-1v1h-.6v.7h.7v2.5c0 .8.5 1.2 1.3 1.2l.5-.1-.1-.7h-.3c-.3 0-.5-.1-.5-.5V325h.8v-.7zm4.8 8.7h1v-1h.1c.3.4.7 1.1 2 1.1 1.6 0 2.7-1.3 2.7-3.4 0-2-1.1-3.3-2.8-3.3-1.3 0-1.6.8-1.9 1v-3.1h-1v8.7zm1-3.3c0-1.4.7-2.4 2-2.4 1.2 0 1.8 1 1.8 2.4s-.6 2.5-1.9 2.5c-1.2 0-1.9-1-1.9-2.5zm10.5.6c0 1.3-1 1.8-1.7 1.8-.8 0-1.4-.6-1.4-1.6v-4h-1v4.1c0 1.7.8 2.5 2 2.5a2 2 0 002-1.2v1.1h1v-6.5h-1v3.8zm2.8 2.7h1v-6.5h-1v6.5zm.5-7.6c.4 0 .8-.3.8-.7 0-.4-.4-.7-.8-.7-.3 0-.7.3-.7.7 0 .4.4.7.7.7zm3.4-1.1h-1v8.7h1v-8.7zm4.3 8.8c1.3 0 1.7-.7 2-1.1v1h1v-8.7h-1v3.2c-.3-.3-.7-1.1-2-1.1-1.6 0-2.8 1.3-2.8 3.3 0 2.1 1.2 3.4 2.8 3.4zm.1-.9c-1.2 0-1.9-1-1.9-2.5 0-1.4.7-2.4 2-2.4 1.2 0 1.8 1 1.8 2.4 0 1.5-.7 2.5-1.9 2.5z" fill="#78757A"/>
  <path d="M324.2 65.4h-2.5V77h2.5V65.4zm4.4 6.6c0-1.2.6-1.8 1.6-1.8s1.6.6 1.6 1.7V77h2.4v-5.6c0-2-1.2-3.2-3-3.2-1.3 0-2.3.6-2.7 1.6v-1.5H326V77h2.5v-5zm11.4 5.2c2.4 0 3.8-1.4 4-3.4h-2.4c0 1-.7 1.5-1.5 1.5-1.2 0-1.9-1-1.9-2.7 0-1.6.7-2.6 1.9-2.6.8 0 1.4.6 1.5 1.5h2.3c0-2-1.6-3.3-3.9-3.3-2.6 0-4.3 1.8-4.3 4.5 0 2.6 1.6 4.5 4.3 4.5zm5.5-.2h2.4v-5c0-1 .8-1.8 1.9-1.8l1 .2v-2.2h-.8c-1 0-1.8.5-2 1.6h-.2v-1.5h-2.3V77zm10.1.2c2.2 0 3.6-1 4-2.7l-2.3-.1c-.2.6-.9 1-1.7 1-1.2 0-2-.8-2-2.1h6v-.7c0-3-1.8-4.4-4.1-4.4-2.6 0-4.2 1.8-4.2 4.5s1.6 4.5 4.3 4.5zm-2-5.4c.1-1 .9-1.8 2-1.8 1 0 1.7.7 1.7 1.8h-3.6zm7.6 5.2h2.4v-5.2c0-1 .6-1.6 1.4-1.6.8 0 1.4.5 1.4 1.4V77h2.3v-5.3c0-1 .5-1.5 1.4-1.5.8 0 1.4.4 1.4 1.4V77h2.4v-5.9c0-1.9-1.2-3-2.8-3-1.3 0-2.3.7-2.6 1.7h-.1c-.3-1-1.2-1.6-2.4-1.6s-2 .6-2.4 1.6h-.1v-1.5h-2.3V77zm18.6.2c2.1 0 3.6-1 4-2.7l-2.3-.1c-.3.6-.9 1-1.7 1-1.2 0-2-.8-2-2.1h6v-.7c0-3-1.8-4.4-4.1-4.4-2.6 0-4.3 1.8-4.3 4.5s1.7 4.5 4.4 4.5zm-2-5.4c0-1 .8-1.8 1.9-1.8 1 0 1.8.7 1.8 1.8h-3.7zm10 .2c0-1.2.6-1.8 1.6-1.8s1.6.6 1.6 1.7V77h2.4v-5.6c0-2-1.2-3.2-3-3.2-1.3 0-2.3.6-2.6 1.6h-.2v-1.5h-2.3V77h2.5v-5zm12.1-3.7h-1.6v-2.1h-2.4v2h-1.2v1.9h1.2v4.5c0 1.7 1.1 2.6 2.9 2.5l1.3-.2-.4-1.8h-.6c-.5 0-.8-.1-.8-.8v-4.2h1.6v-1.8zm4.1 8.9c1.3 0 2.1-.6 2.6-1.4V77h2.3v-5.9c0-2-1.7-3-3.7-3s-3.5 1-3.8 2.7l2.2.1c.2-.5.7-1 1.6-1 .8 0 1.3.4 1.3 1.2 0 .6-.6.6-2.1.8-1.7.1-3.3.7-3.3 2.7 0 1.7 1.2 2.6 2.9 2.6zm.7-1.7c-.8 0-1.3-.4-1.3-1 0-.7.6-1 1.4-1.2.6 0 1.4-.2 1.7-.3v.9c0 .9-.7 1.6-1.8 1.6zm8.5-10.1h-2.4V77h2.4V65.4zM419 77h5c2.6 0 4-1.4 4-3.2 0-1.7-1.3-2.8-2.6-2.8v-.2c1.2-.2 2.1-1 2.1-2.5 0-1.7-1.3-3-3.8-3h-4.7V77zm2.5-2v-3.1h2c1.2 0 2 .7 2 1.6 0 1-.7 1.5-2 1.5h-2zm0-4.8v-2.8h1.8c1.1 0 1.7.5 1.7 1.4 0 .9-.7 1.4-1.7 1.4h-1.8zm13.6 3c0 1.3-.8 1.9-1.6 1.9-1 0-1.5-.7-1.5-1.7v-5.1h-2.5v5.5c0 2 1.2 3.3 3 3.3 1.3 0 2.2-.7 2.6-1.7h.1V77h2.4v-8.7H435v5zm4.4 3.8h2.4v-8.7h-2.4V77zm1.2-9.9c.7 0 1.3-.5 1.3-1.2s-.6-1.2-1.3-1.2c-.7 0-1.3.5-1.3 1.2s.6 1.2 1.3 1.2zm5.6-1.7h-2.5V77h2.5V65.4zm5.1 11.7c1.4 0 2.2-.8 2.5-1.5h.1V77h2.4V65.4h-2.4v4.3h-.1c-.3-.7-1-1.5-2.5-1.5-1.9 0-3.5 1.4-3.5 4.4 0 3 1.5 4.5 3.5 4.5zm.8-1.9c-1.2 0-1.8-1-1.8-2.6 0-1.5.6-2.5 1.8-2.5 1.2 0 1.8 1 1.8 2.5 0 1.6-.6 2.6-1.8 2.6z" fill="#159BF3"/>
  <path d="M61.4 68.3h1.4c0-1.8-1.7-3.1-4-3.1-2.2 0-4 1.3-4 3.3 0 1.5 1.2 2.5 3 3l1.5.4c1.2.3 2.3.8 2.3 2s-1.2 2-2.9 2c-1.3 0-2.6-.6-2.7-1.9h-1.4c0 2 1.6 3.2 4.1 3.2 2.7 0 4.2-1.5 4.2-3.4 0-2.1-2-2.8-3.2-3.2l-1.2-.3c-.9-.2-2.3-.7-2.3-2 0-1 1-1.8 2.6-1.8 1.4 0 2.5.6 2.6 1.8zm7.5 0H67v-2.1h-1.3v2h-1.3v1.2h1.3V75c0 1.5 1.2 2.2 2.3 2.2l1-.1-.2-1.3-.6.1c-.6 0-1.2-.2-1.2-1.3v-5H69v-1.2zm4.6 8.9c1.5 0 2.3-.8 2.6-1.4V77h1.4v-5.8c0-2.7-2.2-3-3.3-3-1.3 0-2.8.4-3.5 2l1.3.5c.3-.7 1-1.4 2.3-1.4 1.2 0 1.8.7 1.8 1.8 0 .7-.6.7-2.2.9-1.7.2-3.4.5-3.4 2.5 0 1.7 1.3 2.7 3 2.7zm.2-1.2c-1.1 0-1.9-.5-1.9-1.4 0-1 1-1.3 2-1.5.6 0 2-.2 2.3-.5v1.2c0 1.1-.8 2.2-2.4 2.2zm7.5-4.3c0-1.5 1-2.3 2.3-2.3 1.2 0 2 .8 2 2.1V77h1.3v-5.5c0-2.3-1.2-3.3-3-3.3-1.3 0-2 .5-2.5 1.4h-.1v-1.3h-1.3V77h1.3v-5.3zm11.4 5.5c1.6 0 2.2-1 2.5-1.5h.2V77h1.3V65.4h-1.4v4.3c-.4-.5-1-1.5-2.6-1.5-2.2 0-3.7 1.7-3.7 4.5 0 2.7 1.5 4.5 3.7 4.5zm.1-1.2c-1.6 0-2.5-1.5-2.5-3.4 0-1.8.8-3.2 2.5-3.2s2.5 1.3 2.5 3.2c0 2-.8 3.4-2.5 3.4zm9 1.2c1.6 0 2.4-.8 2.7-1.4V77h1.4v-5.8c0-2.7-2.1-3-3.3-3-1.3 0-2.8.4-3.5 2l1.3.5c.3-.7 1-1.4 2.3-1.4 1.2 0 1.8.7 1.8 1.8 0 .7-.6.7-2.2.9-1.6.2-3.4.5-3.4 2.5 0 1.7 1.3 2.7 3 2.7zm.3-1.2c-1 0-1.9-.5-1.9-1.4 0-1 1-1.3 2-1.5.6 0 2.1-.2 2.3-.5v1.2c0 1.1-.8 2.2-2.4 2.2zm6.2 1h1.4v-5.5c0-1.2.9-2 2.2-2h.8v-1.3h-.7c-1 0-2 .5-2.3 1.4v-1.3h-1.4V77zm9 .2c1.7 0 2.3-1 2.5-1.5h.2V77h1.3V65.4h-1.3v4.3h-.2c-.2-.5-.8-1.5-2.5-1.5-2.2 0-3.7 1.7-3.7 4.5 0 2.7 1.5 4.5 3.7 4.5zm.2-1.2c-1.7 0-2.6-1.5-2.6-3.4 0-1.8.9-3.2 2.6-3.2 1.6 0 2.5 1.3 2.5 3.2 0 2-.9 3.4-2.5 3.4zm11.1 1h4.2c2.8 0 4-1.3 4-3 0-2-1.4-3-2.4-3v-.1c1-.3 1.9-1 1.9-2.4 0-1.8-1.2-3.1-3.6-3.1h-4V77zm1.4-1.3v-4h2.9c1.5 0 2.5 1 2.5 2.2 0 1-.7 1.8-2.6 1.8H130zm0-5.2v-3.9h2.7c1.5 0 2.2.8 2.2 1.9 0 1.2-1 2-2.3 2H130zm14.4 3c0 1.6-1.3 2.3-2.3 2.3-1.1 0-2-.8-2-2v-5.5h-1.2v5.5c0 2.2 1.1 3.3 2.8 3.3 1.3 0 2.2-.7 2.6-1.6V77h1.4v-8.7h-1.3v5.1zM148 77h1.4v-8.7H148V77zm.7-10.2c.6 0 1-.4 1-.9s-.4-.9-1-.9a1 1 0 00-1 1c0 .4.5.8 1 .8zm4.5-1.4h-1.4V77h1.4V65.4zm5.7 11.8c1.7 0 2.3-1 2.6-1.5h.1V77h1.3V65.4h-1.3v4.3h-.1c-.3-.5-.8-1.5-2.5-1.5-2.2 0-3.8 1.7-3.8 4.5 0 2.7 1.6 4.5 3.7 4.5zm.2-1.2c-1.7 0-2.5-1.5-2.5-3.4 0-1.8.8-3.2 2.5-3.2s2.5 1.3 2.5 3.2c0 2-.9 3.4-2.5 3.4z" fill="#78757A"/>
  <path d="M402.3 309.8l7 3.1v-2l-4.8-1.9 4.8-2v-2l-7 3.1v1.7zm13.5-6h-2l-2.6 1.6v2l2.4-1.5v8.1h2.2v-10.2zm6.4 10.4c2.5 0 4-2 4-5.3.1-3.3-1.5-5.2-4-5.2-2.6 0-4.1 1.9-4.1 5.2 0 3.4 1.5 5.3 4 5.3zm0-1.8c-1.2 0-2-1.1-2-3.5 0-2.3.8-3.5 2-3.5 1.1 0 1.9 1.2 1.9 3.5 0 2.4-.8 3.5-2 3.5zm15.2-3.9c-.1-1.4-1.3-2.2-3.2-2.2-2 0-3.3.9-3.2 2.3 0 1.2.7 2 2.2 2.2l1.3.3c.7.1 1 .4 1 .7 0 .5-.5.8-1.3.8-.7 0-1.2-.3-1.4-1l-2 .2c.1 1.4 1.4 2.3 3.4 2.3s3.4-1 3.4-2.5c0-1-.7-1.7-2.2-2l-1.4-.3c-.7-.2-1-.4-1-.8s.6-.7 1.2-.7c.8 0 1.2.4 1.3.9l2-.2z" fill="#159BF3"/>
  <path d="M23.3 303.8h-2l-2.6 1.6v2l2.3-1.5h.1v8.1h2.2v-10.2zm6.4 10.4c2.5 0 4-2 4-5.3s-1.5-5.2-4-5.2c-2.6 0-4.1 1.9-4.1 5.2 0 3.4 1.5 5.3 4 5.3zm0-1.8c-1.2 0-2-1.1-2-3.5 0-2.3.8-3.5 2-3.5 1.1 0 1.9 1.2 1.9 3.5 0 2.4-.8 3.5-2 3.5zm8.9 1.6h2v-4.6c0-.8.6-1.4 1.3-1.4.7 0 1.2.5 1.2 1.2v4.8h2v-4.7c0-.8.5-1.3 1.3-1.3.7 0 1.2.4 1.2 1.3v4.7h2v-5.1c0-1.7-1-2.6-2.3-2.6-1.2 0-2 .5-2.3 1.4h-.1c-.3-.9-1-1.4-2-1.4-1.1 0-1.9.5-2.2 1.4h-.1v-1.3h-2v7.6zm12.7 0h2.2v-7.6h-2.2v7.6zm1.1-8.6c.6 0 1.2-.5 1.2-1 0-.7-.6-1.2-1.2-1.2s-1.1.5-1.1 1.1c0 .6.5 1 1.1 1zm4.9 4.2c0-1 .6-1.6 1.4-1.6.9 0 1.4.6 1.4 1.5v4.5h2.1v-4.9c0-1.7-1-2.8-2.6-2.8-1.2 0-2 .5-2.3 1.4h-.1v-1.3h-2v7.6h2v-4.4zm13-1c-.3-1.5-1.4-2.3-3.3-2.3-2 0-3.3.9-3.3 2.3 0 1.2.7 2 2.2 2.2l1.4.3c.6.1 1 .4 1 .7 0 .5-.6.8-1.3.8-.8 0-1.3-.3-1.4-1l-2 .2c.1 1.4 1.4 2.3 3.4 2.3s3.4-1 3.4-2.5c0-1-.7-1.7-2.2-2l-1.4-.3c-.7-.2-1-.4-1-.8s.5-.7 1.2-.7 1.2.4 1.3.9l2-.2zM127.3 303.8h-2l-2.6 1.6v2l2.3-1.5h.1v8.1h2.2v-10.2zm6.4 10.4c2.5 0 4-2 4-5.3s-1.5-5.2-4-5.2c-2.6 0-4.1 1.9-4.1 5.2 0 3.4 1.5 5.3 4 5.3zm0-1.8c-1.2 0-2-1.1-2-3.5 0-2.3.8-3.5 2-3.5 1.1 0 1.9 1.2 1.9 3.5 0 2.4-.8 3.5-2 3.5zm8.9 1.6h2v-4.6c0-.8.6-1.4 1.3-1.4.7 0 1.2.5 1.2 1.2v4.8h2v-4.7c0-.8.5-1.3 1.3-1.3.7 0 1.2.4 1.2 1.3v4.7h2v-5.1c0-1.7-1-2.6-2.3-2.6-1.2 0-2 .5-2.3 1.4h-.1c-.3-.9-1-1.4-2-1.4-1.1 0-1.9.5-2.2 1.4h-.1v-1.3h-2v7.6zm12.7 0h2.2v-7.6h-2.2v7.6zm1.1-8.6c.6 0 1.2-.5 1.2-1 0-.7-.6-1.2-1.2-1.2s-1.1.5-1.1 1.1c0 .6.5 1 1.1 1zm4.9 4.2c0-1 .6-1.6 1.4-1.6.9 0 1.4.6 1.4 1.5v4.5h2.1v-4.9c0-1.7-1-2.8-2.6-2.8-1.2 0-2 .5-2.3 1.4h-.1v-1.3h-2v7.6h2v-4.4zm13-1c-.3-1.5-1.4-2.3-3.3-2.3-2 0-3.3.9-3.3 2.3 0 1.2.7 2 2.2 2.2l1.4.3c.6.1 1 .4 1 .7 0 .5-.6.8-1.3.8-.8 0-1.3-.3-1.4-1l-2 .2c.1 1.4 1.4 2.3 3.4 2.3s3.4-1 3.4-2.5c0-1-.7-1.7-2.2-2l-1.4-.3c-.7-.2-1-.4-1-.8s.5-.7 1.2-.7 1.2.4 1.3.9l2-.2z" fill="#48434F"/>
  <path d="M303.3 303.8h-2l-2.6 1.6v2l2.3-1.5h.1v8.1h2.2v-10.2zm5.6 10.2h2.2v-4.6c0-.8.5-1.4 1.2-1.4s1.2.5 1.2 1.2v4.8h2v-4.7c0-.8.5-1.3 1.2-1.3s1.2.4 1.2 1.3v4.7h2.1v-5.1c0-1.7-1-2.6-2.4-2.6-1 0-2 .5-2.3 1.4-.3-.9-1-1.4-2.1-1.4-1 0-1.8.5-2.2 1.4v-1.3h-2v7.6zm12.8 0h2.1v-7.6h-2.1v7.6zm1-8.6c.7 0 1.2-.5 1.2-1 0-.7-.5-1.2-1.1-1.2-.7 0-1.2.5-1.2 1.1 0 .6.5 1 1.2 1zm5 4.2c0-1 .5-1.6 1.4-1.6.8 0 1.3.6 1.3 1.5v4.5h2.2v-4.9c0-1.7-1-2.8-2.7-2.8-1.1 0-2 .5-2.3 1.4v-1.3h-2v7.6h2v-4.4z" fill="#159BF3"/>
  <path d="M336 145v.5c0 4.1-3.4 7.5-7.5 7.5v0a7.5 7.5 0 00-7.5 7.5v.5" stroke="#D9D7E0" stroke-width="2"/>
  <path d="M323.9 160.5H318c-.4 0-.6.5-.4.8l3 3.3c.1.2.5.2.7 0l2.9-3.3c.2-.3 0-.8-.4-.8z" fill="#D9D7E0"/>
  <rect x="332" y="138" width="8" height="8" rx="4" transform="rotate(-90 332 138)" fill="#D9D7E0"/>
  <rect x="317" y="177" width="8" height="8" rx="4" transform="rotate(-90 317 177)" fill="#D9D7E0"/>
  <rect x="347" y="177" width="8" height="8" rx="4" transform="rotate(-90 347 177)" fill="#D9D7E0"/>
  <path d="M336 145v0c0 4.1 3.4 7.5 7.5 7.5v0c4.1 0 7.5 3.4 7.5 7.5v0" stroke="#D9D7E0" stroke-width="2"/>
  <path d="M353.9 159.5H348c-.4 0-.6.5-.4.8l3 3.3c.1.2.5.2.7 0l2.9-3.3c.2-.3 0-.8-.4-.8z" fill="#D9D7E0"/>
  <path d="M442 145v0a8 8 0 01-8 8h-15a8 8 0 00-8 8v0" stroke="#D9D7E0" stroke-width="2"/>
  <path d="M413.9 160.5H408c-.4 0-.6.5-.4.8l3 3.3c.1.2.5.2.7 0l2.9-3.3c.2-.3 0-.8-.4-.8z" fill="#D9D7E0"/>
  <path d="M442 145v.5c0 4.1-3.4 7.5-7.5 7.5v0a7.5 7.5 0 00-7.5 7.5v.5" stroke="#D9D7E0" stroke-width="2"/>
  <path d="M429.9 160.5H424c-.4 0-.6.5-.4.8l3 3.3c.1.2.5.2.7 0l2.9-3.3c.2-.3 0-.8-.4-.8z" fill="#D9D7E0"/>
  <rect x="439" y="137" width="6" height="6" rx="3" transform="rotate(-90 439 137)" fill="#159BF3" stroke="#159BF3" stroke-width="2"/>
  <rect x="424" y="176" width="6" height="6" rx="3" transform="rotate(-90 424 176)" fill="#D9D7E0" stroke="#D9D7E0" stroke-width="2"/>
  <rect x="408" y="176" width="6" height="6" rx="1" transform="rotate(-90 408 176)" fill="#159BF3" stroke="#159BF3" stroke-width="2"/>
  <rect x="454" y="176" width="6" height="6" rx="3" transform="rotate(-90 454 176)" fill="#D9D7E0" stroke="#D9D7E0" stroke-width="2"/>
  <path d="M442 145v0c0 4.1 3.4 7.5 7.5 7.5v0c4.1 0 7.5 3.4 7.5 7.5v0" stroke="#D9D7E0" stroke-width="2"/>
  <path d="M459.9 159.5H454c-.4 0-.6.5-.4.8l3 3.3c.1.2.5.2.7 0l2.9-3.3c.2-.3 0-.8-.4-.8z" fill="#D9D7E0"/>
  <path d="M18 112c0-1.1.9-2 2-2h76a2 2 0 012 2v178H18V112z" fill="#F5F5F5"/>
  <path d="M298 274c0-1.1.9-2 2-2h76a2 2 0 012 2v16h-80v-16z" fill="#DBF0FF"/>
  <path d="M122 112c0-1.1.9-2 2-2h76a2 2 0 012 2v178h-80V112z" fill="#F5F5F5"/>
  <path d="M401 289c0-1.1.9-2 2-2h76a2 2 0 012 2v1h-80v-1z" fill="#DBF0FF"/>
  <path d="M58 145v.5c0 4.1-3.4 7.5-7.5 7.5v0a7.5 7.5 0 00-7.5 7.5v.5" stroke="#D9D7E0" stroke-width="2"/>
  <path d="M45.9 160.5H40c-.4 0-.6.5-.4.8l3 3.3c.1.2.5.2.7 0l2.9-3.3c.2-.3 0-.8-.4-.8z" fill="#D9D7E0"/>
  <rect x="54" y="138" width="8" height="8" rx="4" transform="rotate(-90 54 138)" fill="#D9D7E0"/>
  <rect x="39" y="177" width="8" height="8" rx="4" transform="rotate(-90 39 177)" fill="#D9D7E0"/>
  <rect x="69" y="177" width="8" height="8" rx="4" transform="rotate(-90 69 177)" fill="#D9D7E0"/>
  <path d="M58 145v0c0 4.1 3.4 7.5 7.5 7.5v0c4.1 0 7.5 3.4 7.5 7.5v0" stroke="#D9D7E0" stroke-width="2"/>
  <path d="M75.9 159.5H70c-.4 0-.6.5-.4.8l3 3.3c.1.2.5.2.7 0l2.9-3.3c.2-.3 0-.8-.4-.8z" fill="#D9D7E0"/>
  <path d="M170 145v0a8 8 0 01-8 8h-15a8 8 0 00-8 8v0" stroke="#D9D7E0" stroke-width="2"/>
  <path d="M141.9 160.5H136c-.4 0-.6.5-.4.8l3 3.3c.1.2.5.2.7 0l2.9-3.3c.2-.3 0-.8-.4-.8z" fill="#D9D7E0"/>
  <path d="M170 145v.5c0 4.1-3.4 7.5-7.5 7.5v0a7.5 7.5 0 00-7.5 7.5v.5" stroke="#D9D7E0" stroke-width="2"/>
  <path d="M157.9 160.5H152c-.4 0-.6.5-.4.8l3 3.3c.1.2.5.2.7 0l2.9-3.3c.2-.3 0-.8-.4-.8z" fill="#D9D7E0"/>
  <rect x="167" y="137" width="6" height="6" rx="3" transform="rotate(-90 167 137)" fill="#DA0013" stroke="#DA0013" stroke-width="2"/>
  <rect x="152" y="176" width="6" height="6" rx="3" transform="rotate(-90 152 176)" fill="#DA0013" stroke="#DA0013" stroke-width="2"/>
  <rect x="136" y="176" width="6" height="6" rx="1" transform="rotate(-90 136 176)" fill="#DA0013" stroke="#DA0013" stroke-width="2"/>
  <rect x="182" y="176" width="6" height="6" rx="3" transform="rotate(-90 182 176)" fill="#DA0013" stroke="#DA0013" stroke-width="2"/>
  <path d="M170 145v0c0 4.1 3.4 7.5 7.5 7.5v0c4.1 0 7.5 3.4 7.5 7.5v0" stroke="#D9D7E0" stroke-width="2"/>
  <path d="M187.9 159.5H182c-.4 0-.6.5-.4.8l3 3.3c.1.2.5.2.7 0l2.9-3.3c.2-.3 0-.8-.4-.8z" fill="#D9D7E0"/>
  <path stroke="#000" stroke-opacity=".1" d="M18 289.5h184M297 289.5h184"/>
  <path d="M72 181v0a8 8 0 01-8 8H51a8 8 0 00-8 8v0" stroke="#D9D7E0" stroke-width="2"/>
  <path d="M45.9 196.5H40c-.4 0-.6.5-.4.8l3 3.3c.1.2.5.2.7 0l2.9-3.3c.2-.3 0-.8-.4-.8z" fill="#D9D7E0"/>
  <path d="M184 181v0a8 8 0 01-8 8h-13a8 8 0 00-8 8v0" stroke="#D9D7E0" stroke-width="2"/>
  <path d="M157.9 196.5H152c-.4 0-.6.5-.4.8l3 3.3c.1.2.5.2.7 0l2.9-3.3c.2-.3 0-.8-.4-.8z" fill="#D9D7E0"/>
  <path d="M140 182v0c0 4.1 3.4 7.5 7.5 7.5v0c4.1 0 7.5 3.4 7.5 7.5v0" stroke="#D9D7E0" stroke-width="2"/>
  <path d="M157.9 196.5H152c-.4 0-.6.5-.4.8l3 3.3c.1.2.5.2.7 0l2.9-3.3c.2-.3 0-.8-.4-.8z" fill="#D9D7E0"/>
  <path d="M412 182v0c0 4.1 3.4 7.5 7.5 7.5v0c4.1 0 7.5 3.4 7.5 7.5v0" stroke="#D9D7E0" stroke-width="2"/>
  <path d="M429.9 196.5H424c-.4 0-.6.5-.4.8l3 3.3c.1.2.5.2.7 0l2.9-3.3c.2-.3 0-.8-.4-.8z" fill="#D9D7E0"/>
  <path d="M350 181v0a8 8 0 01-8 8h-13a8 8 0 00-8 8v0" stroke="#D9D7E0" stroke-width="2"/>
  <path d="M323.9 196.5H318c-.4 0-.6.5-.4.8l3 3.3c.1.2.5.2.7 0l2.9-3.3c.2-.3 0-.8-.4-.8z" fill="#D9D7E0"/>
  <path d="M456 181v0a8 8 0 01-8 8h-13a8 8 0 00-8 8v0" stroke="#D9D7E0" stroke-width="2"/>
  <path d="M429.9 196.5H424c-.4 0-.6.5-.4.8l3 3.3c.1.2.5.2.7 0l2.9-3.3c.2-.3 0-.8-.4-.8z" fill="#D9D7E0"/>
  <rect x="69" y="213" width="8" height="8" rx="4" transform="rotate(-90 69 213)" fill="#D9D7E0"/>
  <rect x="181" y="213" width="8" height="8" rx="4" transform="rotate(-90 181 213)" fill="#DA0013"/>
  <rect x="347" y="213" width="8" height="8" rx="4" transform="rotate(-90 347 213)" fill="#D9D7E0"/>
  <rect x="452" y="213" width="8" height="8" rx="4" transform="rotate(-90 452 213)" fill="#D9D7E0"/>
  <rect x="39" y="213" width="8" height="8" rx="4" transform="rotate(-90 39 213)" fill="#D9D7E0"/>
  <rect x="151" y="213" width="8" height="8" rx="4" transform="rotate(-90 151 213)" fill="#DA0013"/>
  <rect x="317" y="213" width="8" height="8" rx="4" transform="rotate(-90 317 213)" fill="#D9D7E0"/>
  <rect x="423" y="213" width="8" height="8" rx="4" transform="rotate(-90 423 213)" fill="#D9D7E0"/>
  <path d="M73.2 181v16" stroke="#D9D7E0" stroke-width="2"/>
  <path d="M76 196.5h-5.6c-.5 0-.7.5-.4.8l2.8 3.3c.2.2.6.2.8 0l2.8-3.3c.3-.3 0-.8-.4-.8z" fill="#D9D7E0"/>
  <path d="M185.2 181v16" stroke="#D9D7E0" stroke-width="2"/>
  <path d="M188 196.5h-5.6c-.5 0-.7.5-.4.8l2.8 3.3c.2.2.6.2.8 0l2.8-3.3c.3-.3 0-.8-.4-.8z" fill="#D9D7E0"/>
  <path d="M351.2 181v16" stroke="#D9D7E0" stroke-width="2"/>
  <path d="M354 196.5h-5.6c-.5 0-.7.5-.4.8l2.8 3.3c.2.2.6.2.8 0l2.8-3.3c.3-.3 0-.8-.4-.8z" fill="#D9D7E0"/>
  <path d="M456.2 181v16" stroke="#D9D7E0" stroke-width="2"/>
  <path d="M459 196.5h-5.6c-.5 0-.7.5-.4.8l2.8 3.3c.2.2.6.2.8 0l2.8-3.3c.3-.3 0-.8-.4-.8z" fill="#D9D7E0"/>
  <path d="M43.2 181v16" stroke="#D9D7E0" stroke-width="2"/>
  <path d="M46 196.5h-5.6c-.5 0-.7.5-.4.8l2.8 3.3c.2.2.6.2.8 0l2.8-3.3c.3-.3 0-.8-.4-.8z" fill="#D9D7E0"/>
  <path d="M155.2 181v16" stroke="#D9D7E0" stroke-width="2"/>
  <path d="M158 196.5h-5.6c-.5 0-.7.5-.4.8l2.8 3.3c.2.2.6.2.8 0l2.8-3.3c.3-.3 0-.8-.4-.8z" fill="#D9D7E0"/>
  <path d="M321.2 181v16" stroke="#D9D7E0" stroke-width="2"/>
  <path d="M324 196.5h-5.6c-.5 0-.7.5-.4.8l2.8 3.3c.2.2.6.2.8 0l2.8-3.3c.3-.3 0-.8-.4-.8z" fill="#D9D7E0"/>
  <path d="M427.2 181v16" stroke="#D9D7E0" stroke-width="2"/>
  <path d="M430 196.5h-5.6c-.5 0-.7.5-.4.8l2.8 3.3c.2.2.6.2.8 0l2.8-3.3c.3-.3 0-.8-.4-.8z" fill="#D9D7E0"/>
  <defs>
    <filter id="filter0_dd" x="226" y="0" width="327" height="423" filterUnits="userSpaceOnUse" color-interpolation-filters="sRGB">
      <feFlood flood-opacity="0" result="BackgroundImageFix"/>
      <feColorMatrix in="SourceAlpha" values="0 0 0 0 0 0 0 0 0 0 0 0 0 0 0 0 0 0 127 0"/>
      <feOffset dy="8"/>
      <feGaussianBlur stdDeviation="8"/>
      <feColorMatrix values="0 0 0 0 0.0509804 0 0 0 0 0.588235 0 0 0 0 0.94902 0 0 0 0.04 0"/>
      <feBlend in2="BackgroundImageFix" result="effect1_dropShadow"/>
      <feColorMatrix in="SourceAlpha" values="0 0 0 0 0 0 0 0 0 0 0 0 0 0 0 0 0 0 127 0"/>
      <feOffset dy="16"/>
      <feGaussianBlur stdDeviation="24"/>
      <feColorMatrix values="0 0 0 0 0.0509804 0 0 0 0 0.588235 0 0 0 0 0.94902 0 0 0 0.16 0"/>
      <feBlend in2="effect1_dropShadow" result="effect2_dropShadow"/>
      <feBlend in="SourceGraphic" in2="effect2_dropShadow" result="shape"/>
    </filter>
  </defs>
</svg>
