<svg width="603" height="362" fill="none" xmlns="http://www.w3.org/2000/svg">
  <rect x="139" width="360" height="360" rx="8" fill="url(#paint0_linear)"/>
  <g clip-path="url(#clip0)">
    <path d="M165.8 26.2c-2.8 0-3.7 1.2-4 1.9a2.5 2.5 0 11-1.8 0v-7a2.5 2.5 0 01-1-4.1 2.5 2.5 0 112.7 4.1v4.4c.7-.5 1.8-1 3.3-1 2.2 0 3-1 3.2-1.8a2.5 2.5 0 011-4.8 2.5 2.5 0 01.7 4.9c-.2 1.2-1 3.4-4 3.4zm-5 3.4a.8.8 0 100 1.6.8.8 0 000-1.6zm0-11.7a.8.8 0 100 1.7.8.8 0 000-1.7zm8.4 1.7a.8.8 0 100 1.6.8.8 0 000-1.6z" fill="#B7B5BD"/>
    <path stroke="#D9D7E0" d="M179 33.1l149 3"/>
    <path d="M182.8 26.9l.1.4.1-.4 2-5.2h1.1l-2.8 6.9h-.9l-2.8-6.9h1.2l2 5.2zm5.3-5.2h3.5v5.9h2.2v1h-5.7v-1h2.3v-4.9h-2.3v-1zm2.2-1.8c0-.2 0-.4.2-.5 0-.1.2-.2.5-.2.2 0 .4 0 .5.2l.2.5c0 .2 0 .4-.2.5l-.5.2c-.3 0-.4-.1-.5-.2a.7.7 0 01-.2-.5zm10 1.7a4.9 4.9 0 011.1.1l-.1 1.2a5.7 5.7 0 00-1.3-.2c-.6 0-1 .2-1.4.4-.3.3-.6.6-.7 1v4.5h-1.2v-6.9h1.1v1.1l1-.9 1.4-.3zm6-1.6v1.7h2.6v1h-2.6v3.6l.1.7c0 .2.2.3.3.4l.4.2.5.1a4.2 4.2 0 00.8 0 12.7 12.7 0 00.6-.2l.2.8-.4.2a4 4 0 01-1 .2h-.5l-.9-.1a1.8 1.8 0 01-1.1-1.2l-.2-1v-3.8h-1.8v-.9h1.8V20h1.2zm9.5 7.6c-.2.4-.5.6-.9.8-.3.2-.7.3-1.2.3-.3 0-.6 0-1-.2-.2 0-.5-.3-.7-.5l-.5-.9-.1-1.3v-4.1h1.1v4.1l.1 1c0 .2.2.4.3.5.1.2.3.3.4.3l.6.1a2 2 0 001.2-.3c.3-.2.5-.4.6-.8v-4.9h1.2v6.9h-1l-.1-1zm7.9 1l-.2-.4v-.4a3 3 0 01-1.5.8l-.6.1a3 3 0 01-1-.2c-.3 0-.5-.2-.7-.4a2 2 0 01-.5-.6 2 2 0 01-.2-.8c0-.4.1-.7.3-1 .1-.3.3-.5.6-.7a3 3 0 011-.5h2.6v-.6l-.1-.6-.4-.4-.5-.3a2.2 2.2 0 00-1.3 0l-.5.2a1 1 0 00-.3.4v.4h-1.2c0-.2 0-.5.2-.7 0-.3.3-.5.5-.7.2-.2.5-.3.9-.4.3-.2.7-.2 1.1-.2l1 .1 1 .5c.2.1.4.4.5.7.2.3.2.6.2 1V27a4.6 4.6 0 00.3 1.4h-1.2zm-2.1-1a2.2 2.2 0 001.6-.6l.3-.4v-1.4h-1.1c-.7 0-1.2.1-1.6.3a1 1 0 00-.6 1v.5a1 1 0 00.8.6h.6zm5.5-8.8h3.5v8.8h2.3v1H227v-1h2.4v-7.8H227v-1zM240 25H235v-1h4.9v1zm2.4 0l.2-1.3c.2-.5.3-.8.6-1.1l.8-.8 1.2-.2c.4 0 .8 0 1.1.2l.8.7v-.8h1.1v6.7c0 .5 0 .9-.2 1.2a2.5 2.5 0 01-1.5 1.5 3.5 3.5 0 01-2.5 0l-.6-.4-.6-.6.6-.7a2.9 2.9 0 001 .7l.4.2a2.2 2.2 0 001.2-.1 1.5 1.5 0 001-1V28a2.3 2.3 0 01-1.8.8 2.4 2.4 0 01-2-1c-.3-.3-.4-.7-.6-1.1l-.2-1.4v-.1zm1.2.2l.1 1 .4.8.5.5.9.2h.5l.5-.3.3-.3.3-.4v-3.1l-.3-.4a1.6 1.6 0 00-.8-.6h-.5c-.3 0-.6 0-.9.2l-.5.5-.4.8v1.1zm11.4 3.4l-.1-.4v-.4a3.2 3.2 0 01-1 .6 3 3 0 01-2.2.1l-.7-.4a2 2 0 01-.5-.6 2 2 0 01-.1-.8c0-.4 0-.7.2-1 .1-.3.3-.5.6-.7a3 3 0 011-.5h2.6v-.6l-.1-.6c0-.2-.2-.3-.3-.4l-.6-.3a2.2 2.2 0 00-1.3 0l-.4.2a1 1 0 00-.3.4l-.1.4h-1.2c0-.2 0-.5.2-.7l.5-.7.9-.4c.3-.2.7-.2 1.1-.2l1.1.1c.4.1.6.3.9.5l.6.7.2 1V27a4.4 4.4 0 00.2 1.4H255zm-2-1a2.2 2.2 0 001.5-.6l.3-.4v-1.4h-1.1c-.7 0-1.2.1-1.6.3a1 1 0 00-.6 1l.1.5a1 1 0 00.7.6h.6zm8-7.6v1.7h2.7v1H261V27l.3.4.4.2.5.1a4.2 4.2 0 001.2-.1l.3-.1.1.8-.3.2a4 4 0 01-1 .2h-.5l-1-.1a1.8 1.8 0 01-1-1.2c-.2-.3-.2-.6-.2-1v-3.8H258v-.9h1.8V20h1.2zm9.7 6.8l-.1-.4-.3-.3-.5-.3-.8-.2c-.4 0-.8-.2-1.1-.3l-.8-.4c-.3-.2-.5-.3-.6-.6l-.2-.7.2-.8c.2-.2.3-.5.6-.6l.8-.5 1.1-.1 1.2.1.8.5a2 2 0 01.8 1.5h-1.2l-.1-.4-.3-.4-.5-.3a2.4 2.4 0 00-1.3 0l-.5.2a1 1 0 00-.3.4l-.1.4v.3l.3.3.5.2.8.2 1.2.3.8.5c.3.1.4.3.5.5.2.2.2.5.2.8 0 .3 0 .5-.2.8a2 2 0 01-.6.6l-.8.5a4 4 0 01-1.2.1c-.4 0-.8 0-1.2-.2l-1-.5-.5-.7a2 2 0 01-.2-.8h1.2c0 .2 0 .4.2.6l.4.4.5.2h.6c.5 0 1 0 1.2-.2.3-.2.4-.4.5-.7zm9-1.6c0 .5 0 1-.2 1.4 0 .4-.3.8-.5 1.1-.2.3-.5.6-.8.7l-1.2.3c-.4 0-.8 0-1.1-.2l-.9-.7v.8h-1.1v-9.8h1.2v3.6c.2-.2.5-.5.8-.6l1.1-.2c.4 0 .8 0 1.2.2l.8.8.5 1c.2.5.2 1 .2 1.5v.1zm-1.2-.1v-1l-.4-.8-.5-.5c-.3-.2-.6-.2-.9-.2a1.8 1.8 0 00-1 .3l-.4.3a2 2 0 00-.2.4v3l.2.5.4.3a1.6 1.6 0 001 .3c.3 0 .6 0 .8-.2.3-.1.5-.3.6-.5.2-.3.3-.5.3-.8l.1-1v-.1zm5.7 1l.3.9 2.1-5.3h1.3l-3.4 8a4.5 4.5 0 01-.8 1l-.6.5a1.9 1.9 0 01-1 .1h-.2a2.2 2.2 0 01-.4 0l.2-1h.1a38.7 38.7 0 001-.1l.3-.3.2-.4.2-.3.5-1-3-6.5h1.3l2 4.4zm10.4-1h-4.8v-1h4.8v1zm2.5 0c0-.5 0-1 .2-1.4a2.6 2.6 0 011.4-1.8c.3-.2.7-.3 1.1-.3.5 0 .8 0 1.1.2.3.1.6.3.8.6v-3.6h1.2v9.8h-1l-.1-.8-.9.7-1 .2a2.4 2.4 0 01-2-1c-.3-.3-.5-.7-.6-1.1l-.2-1.4v-.1zm1.2.1v1l.4.8.6.5.8.2h.6a1.6 1.6 0 00.8-.6l.2-.4v-3.2a2 2 0 00-.6-.7l-1-.2c-.3 0-.6 0-.8.2l-.6.5-.3.8-.1 1v.1zm11.3 3.4v-.4l-.1-.4a3.1 3.1 0 01-1.5.8l-.6.1a3 3 0 01-1-.2c-.3 0-.5-.2-.7-.4a2 2 0 01-.5-.6 2 2 0 01-.2-.8c0-.4 0-.7.2-1l.7-.7a3 3 0 011-.5h2.5v-.6-.6l-.4-.4-.5-.3a2.2 2.2 0 00-1.3 0l-.5.2a1 1 0 00-.3.4v.4H305l.1-.7.6-.7.8-.4c.4-.2.8-.2 1.2-.2l1 .1 1 .5c.2.1.4.4.5.7.2.3.2.6.2 1V27a4.6 4.6 0 00.3 1.4h-1.3zm-2-1a2.2 2.2 0 001.6-.6l.2-.4v-1.4h-1c-.7 0-1.3.1-1.6.3a1 1 0 00-.6 1v.5a1 1 0 00.8.6h.6zm7.9-1.5l.3.9 2-5.3h1.4l-3.5 8-.3.5-.5.5-.6.5a1.9 1.9 0 01-1 .1h-.2a2.2 2.2 0 01-.3 0l.2-1a27.8 27.8 0 00.5 0l.5-.1.3-.3.3-.4.1-.3.5-1-3-6.5h1.4l1.9 4.4zm9.8.7v-.4l-.4-.3-.5-.3-.8-.2c-.4 0-.7-.2-1-.3-.4-.1-.7-.2-.9-.4-.2-.2-.4-.3-.5-.6-.2-.2-.2-.4-.2-.7 0-.3 0-.6.2-.8l.5-.6c.3-.2.5-.4.9-.5l1-.1 1.2.1.9.5a2 2 0 01.7 1.5h-1.2v-.4l-.4-.4-.5-.3a2.4 2.4 0 00-1.3 0l-.5.2a1 1 0 00-.2.4l-.1.4v.3l.3.3.5.2.8.2 1.1.3c.4.1.6.3.9.5l.5.5.2.8c0 .3 0 .5-.2.8l-.6.6c-.2.2-.5.4-.9.5l-1.1.1c-.5 0-.9 0-1.3-.2l-.9-.5-.6-.7a2 2 0 01-.2-.8h1.2a1.2 1.2 0 00.6 1l.6.2h.6c.5 0 .9 0 1.2-.2.3-.2.4-.4.4-.7z" fill="#78757A"/>
  </g>
  <path d="M364 344.2a4.4 4.4 0 01-3.9-2.2c-.4-.7-.6-1.5-.6-2.3a4.5 4.5 0 016.3-4.1c.5.2 1 .5 1.3.9l-.7.7c-.3-.3-.6-.6-1-.7l-1.4-.3a3.4 3.4 0 00-3.4 3.5c0 .7.1 1.3.4 1.9a3.4 3.4 0 003 1.6c.6 0 1 0 1.4-.2.4-.2.8-.5 1-.8.3-.2.4-.5.6-.8l.2-1H364v-1h4.1l.1.7c0 .5 0 1-.2 1.5s-.5 1-.9 1.3a4 4 0 01-3.1 1.3zm8.3 0a3 3 0 01-2.8-1.6c-.2-.5-.4-1-.4-1.7 0-.6.2-1.1.4-1.6a3 3 0 012.8-1.6 3 3 0 011.6.4c.5.3.9.7 1.1 1.2.3.5.4 1 .4 1.6 0 .6-.1 1.2-.4 1.7a3 3 0 01-1.1 1.2 3 3 0 01-1.6.4zm0-1a2 2 0 001.8-1c.2-.4.3-.8.3-1.3l-.3-1.2a2 2 0 00-.8-.8 2 2 0 00-2.1 0 2 2 0 00-.8.8l-.3 1.2c0 .5.1 1 .3 1.3l.8.8 1 .3zm7.1 1a3 3 0 01-2.7-1.6c-.3-.5-.4-1-.4-1.7 0-.6.1-1.1.4-1.6a3 3 0 012.7-1.6 3 3 0 011.6.4c.5.3.9.7 1.2 1.2.2.5.4 1 .4 1.6 0 .6-.2 1.2-.4 1.7a3 3 0 01-1.2 1.2 3 3 0 01-1.6.4zm0-1a2 2 0 001.9-1c.2-.4.3-.8.3-1.3l-.3-1.2a2 2 0 00-.8-.8 2 2 0 00-2.1 0 2 2 0 00-.8.8l-.3 1.2c0 .5 0 1 .3 1.3.2.3.4.6.8.8.3.2.7.3 1 .3zm7 3.6a3 3 0 01-1.7-.5c-.5-.4-.8-.8-1-1.2l1-.4c0 .3.3.6.6.8.3.2.7.4 1.1.4.7 0 1.2-.2 1.5-.6.4-.4.5-.9.5-1.6v-.6c-.2.3-.5.5-.9.7-.3.2-.7.3-1.2.3a2.7 2.7 0 01-2.5-1.5c-.2-.5-.4-1-.4-1.7 0-.6.2-1.2.4-1.7l1-1.1a2.7 2.7 0 012.7-.1c.4.2.7.4.9.8v-1h1v6c0 1-.3 1.7-.8 2.2a3 3 0 01-2.2.8zm0-3.6c.4 0 .7-.1 1-.3.3-.2.6-.4.8-.8l.2-1.2c0-.5 0-.9-.2-1.2-.2-.4-.5-.6-.8-.8a2 2 0 00-2.7.8c-.2.3-.3.7-.3 1.2s.1.9.3 1.2c.2.4.4.6.7.8.3.2.7.3 1 .3zm4.5-7.8h1v8.6h-1v-8.6zm5.2 8.8a3 3 0 01-2.7-1.6c-.2-.5-.3-1-.3-1.6 0-.6 0-1.2.3-1.7a3 3 0 011-1.2c.5-.3 1-.4 1.6-.4a3 3 0 011.6.4c.4.3.8.6 1 1.1a3.5 3.5 0 01.3 2h-4.8c0 .4.1.8.3 1.1a2 2 0 001.7 1c.8 0 1.4-.4 1.9-1.1l.8.4a3 3 0 01-2.7 1.6zm1.8-4l-.2-.7-.7-.6c-.2-.2-.6-.3-1-.3-.5 0-.9.2-1.2.5-.3.3-.6.7-.7 1.2h3.8zm5.2-4.8h1v7.6h3.8v1h-4.8v-8.6zm6.5 1.4c-.2 0-.3-.1-.5-.3a.7.7 0 01-.2-.5c0-.2 0-.3.2-.5l.5-.2c.2 0 .4 0 .6.2l.2.5c0 .2 0 .4-.2.5-.2.2-.3.3-.6.3zm-.5 1h1v6.2h-1v-6.1zm5.3 9a3 3 0 01-1.8-.5c-.5-.4-.8-.8-1-1.2l1-.4c.1.3.3.6.7.8.3.2.6.4 1 .4.7 0 1.2-.2 1.5-.6.4-.4.6-.9.6-1.6v-.6l-1 .7c-.3.2-.7.3-1.2.3a2.7 2.7 0 01-2.4-1.5c-.3-.5-.4-1-.4-1.7 0-.6.1-1.2.4-1.7.2-.4.6-.8 1-1.1a2.7 2.7 0 012.7-.1c.3.2.6.4.8.8v-1h1v6c0 1-.2 1.7-.8 2.2a3 3 0 01-2.1.8zm0-3.6c.4 0 .7-.1 1-.3.3-.2.5-.4.7-.8.2-.3.3-.7.3-1.2s-.1-.9-.3-1.2a1.8 1.8 0 00-1.7-1 2 2 0 00-1.8 1l-.2 1.2c0 .5 0 .9.2 1.2.2.4.5.6.8.8.3.2.6.3 1 .3zm4.5-7.8h1v3.4c.1-.3.4-.6.8-.8.3-.2.7-.3 1.2-.3.7 0 1.3.2 1.7.6.4.5.6 1 .6 1.8v3.9h-1v-3.8c0-.5-.2-1-.5-1.2-.3-.3-.6-.4-1-.4s-.7.1-1 .3a2.1 2.1 0 00-.8 1.7v3.4h-1v-8.6zm8.8 8.7a2 2 0 01-.7-.1l-.6-.3-.3-.6a2 2 0 01-.1-.7v-3.6h-1.1v-1h1v-1.6h1v1.7h1.6v.9H427v3.3c0 .4 0 .6.2.8.1.2.4.2.6.2.3 0 .5 0 .7-.2v1l-.4.2h-.4zm2-8.7h1.1v3.4c.2-.3.4-.6.8-.8l1.2-.3c.7 0 1.3.2 1.7.6.4.5.6 1 .6 1.8v3.9h-1v-3.8c0-.5-.2-1-.5-1.2-.2-.3-.6-.4-1-.4s-.7.1-1 .3a2.1 2.1 0 00-.8 1.7v3.4h-1v-8.6zm9.7 8.8a3 3 0 01-2.8-1.6c-.2-.5-.4-1-.4-1.7 0-.6.2-1.1.4-1.6a3 3 0 012.8-1.6 3 3 0 011.6.4 3.4 3.4 0 011.5 2.8c0 .6-.1 1.2-.4 1.7a3 3 0 01-1.1 1.2 3 3 0 01-1.6.4zm0-1a2 2 0 001.8-1c.2-.4.3-.8.3-1.3l-.3-1.2a2 2 0 00-.8-.8 2 2 0 00-2.1 0 2 2 0 00-.8.8l-.3 1.2c0 .5.1 1 .3 1.3l.8.8c.3.2.7.3 1 .3zm6.5 1c-.8 0-1.3-.2-1.7-.7-.4-.4-.6-1-.6-1.8V338h1v3.7c0 .6.1 1 .4 1.3.3.2.6.4 1 .4s.7-.1 1-.3c.3-.2.5-.4.6-.7.2-.3.2-.6.2-1V338h1v6.1h-1v-.9a2.4 2.4 0 01-2 1zm6.5 0c-.6 0-1.2-.2-1.6-.5-.4-.3-.8-.7-1-1.2l1-.4c.1.4.4.7.6.9l1 .3c.4 0 .8 0 1-.2.3-.2.4-.4.4-.7 0-.3 0-.5-.3-.6a3 3 0 00-1-.4l-.8-.2-1.2-.6c-.3-.3-.4-.7-.4-1.1 0-.4 0-.7.3-1 .2-.2.5-.5.8-.6a3 3 0 011.2-.2c.5 0 1 .1 1.4.3l1 1-1 .4c-.2-.5-.7-.8-1.4-.8-.4 0-.7 0-1 .2l-.3.6c0 .3.1.4.3.6l.8.3.9.2c.6.2 1 .4 1.3.7.3.3.5.7.5 1.1 0 .4-.1.7-.4 1a2 2 0 01-.8.7l-1.3.2zm6.4 0a3 3 0 01-2.7-1.6 3.7 3.7 0 010-3.3 3 3 0 011-1.2c.5-.3 1-.4 1.6-.4a3 3 0 011.5.4c.5.3.8.6 1 1.1a3.5 3.5 0 01.4 2h-4.9c0 .4.2.8.4 1.1a2 2 0 001.7 1c.8 0 1.4-.4 1.8-1.1l.9.4a3 3 0 01-2.7 1.6zm1.7-4c0-.2 0-.4-.2-.7l-.6-.6c-.3-.2-.6-.3-1-.3-.5 0-1 .2-1.3.5-.3.3-.5.7-.6 1.2h3.7z" fill="#B7B5BD"/>
  <path fill-rule="evenodd" clip-rule="evenodd" d="M472.4 347.6l.3-2 4.4-1.4.5 3.4a8 8 0 01-5.2 0zm-1.4-.6a8 8 0 118 0l-1-7h.6v-1.5h-.7v-2.9l-2.9-1.8-3 1.8v3h-.6v1.4h.5l-.9 7zm5.6-7l.3 2.1-4 1.3.5-3.4h3.2zm-3-1.5v-2l1.4-1 1.5 1v2h-3z" fill="#B7B5BD"/>
  <g filter="url(#filter0_dd)">
    <rect x="315" y="65" width="240" height="122" rx="4" fill="#fff"/>
    <path d="M337.5 103.6h1.8c0-1.7-1.5-3-3.7-3-2 0-3.7 1.3-3.7 3 0 1.5 1 2.4 2.7 2.8l1.2.3c1 .3 1.8.6 1.8 1.4 0 .9-.8 1.5-2 1.5s-2-.5-2.1-1.6h-1.9c.1 2 1.6 3.2 4 3.2s3.8-1.3 3.9-3c0-1.8-1.5-2.6-3-3l-1-.2c-.8-.2-1.7-.6-1.7-1.4 0-.8.7-1.4 1.8-1.4s1.8.6 2 1.4zm3.6 7.4h6.7v-1.5h-4.9v-2.8h4.5V105h-4.5v-2.7h4.8v-1.6h-6.6V111zm17.6-5c0-3.4-2-5.3-4.7-5.3s-4.7 2-4.7 5.2c0 3.3 2 5.2 4.7 5.2s4.7-1.9 4.7-5.2zm-1.9 0c0 2.2-1.1 3.5-2.8 3.5-1.6 0-2.8-1.3-2.8-3.6s1.2-3.6 2.8-3.6c1.7 0 2.8 1.3 2.8 3.6z" fill="#48434F"/>
    <path d="M332 91h5.2v-1h-4v-7.7H332V91zm6.7 0h1v-6.5h-1V91zm.5-7.6c.4 0 .7-.3.7-.7 0-.4-.3-.7-.7-.7-.4 0-.7.3-.7.7 0 .4.3.7.7.7zm5 10.2c1.5 0 2.8-.7 2.8-2.4v-6.7h-1v1c-.3-.3-.7-1.1-2-1.1-1.6 0-2.8 1.3-2.8 3.3 0 2 1.2 3.2 2.8 3.2 1.3 0 1.7-.8 1.9-1.1V91c0 1.1-.7 1.6-1.7 1.6-1.2 0-1.6-.6-2-1l-.7.6c.4.7 1.2 1.3 2.7 1.3zm0-3.6c-1.3 0-2-1-2-2.3 0-1.4.6-2.4 2-2.4 1.2 0 1.8 1 1.8 2.4s-.7 2.3-1.9 2.3zm5.6-3c0-1 .8-1.7 1.8-1.7.9 0 1.5.6 1.5 1.6V91h1v-4.2c0-1.6-1-2.4-2.3-2.4-1 0-1.6.4-1.9 1v-3.1h-1V91h1v-4zm9-2.5h-1.4v-1.6h-1v1.6h-1v.8h1v4.1c0 1.1.9 1.7 1.7 1.7l.8-.1-.2-1-.5.1c-.4 0-.8-.1-.8-1v-3.8h1.4v-.8zm2.6 2.6c0-1.2.8-1.8 1.7-1.8 1 0 1.6.6 1.6 1.6V91h1v-4.2c0-1.6-1-2.4-2.3-2.4-1 0-1.6.4-1.9 1v-3.1h-1V91h1v-4zm8.8 4c1.7 0 3-1.3 3-3.3 0-2-1.3-3.4-3-3.4-1.8 0-3 1.3-3 3.4 0 2 1.2 3.3 3 3.3zm0-.9c-1.4 0-2-1.1-2-2.4 0-1.4.6-2.5 2-2.5 1.3 0 2 1.1 2 2.5 0 1.3-.7 2.4-2 2.4zm8.6-1.9c0 1.3-1 1.8-1.7 1.8-.8 0-1.4-.6-1.4-1.6v-4h-1v4.1c0 1.7.9 2.5 2 2.5a2 2 0 002-1.2h.1V91h1v-6.5h-1v3.8zm7.5-2.4c-.3-1-1-1.5-2.3-1.5-1.4 0-2.4.8-2.4 1.9 0 .9.5 1.5 1.7 1.8l1 .2c.7.2 1 .5 1 1s-.5 1-1.5 1c-.8 0-1.3-.4-1.5-1.1l-1 .2c.3 1.1 1.2 1.7 2.5 1.7 1.6 0 2.6-.8 2.6-2 0-.8-.6-1.4-1.7-1.7l-1-.2c-.8-.2-1.1-.5-1.1-1 0-.6.6-1 1.4-1 .8 0 1.2.5 1.4 1l.9-.3zm4.4 5.2c1.3 0 2.3-.6 2.6-1.6l-1-.3c-.3.7-.9 1-1.6 1-1.2 0-2-.7-2-2.1h4.7v-.5c0-2.4-1.5-3.2-2.8-3.2-1.8 0-3 1.4-3 3.4s1.2 3.3 3 3.3zm-2-3.9c0-1 .7-2 1.9-2 1 0 1.7.9 1.7 2h-3.7z" fill="#78757A"/>
    <mask id="a" maskUnits="userSpaceOnUse" x="315" y="136" width="240" height="32">
      <path fill="#fff" stroke="#F0F0F2" d="M315.5 136.5h239v31h-239z"/>
    </mask>
    <g mask="url(#a)">
      <path d="M313.5 174.2v-20.4l17.4-8.5 17.3 7.6 17.4-14.5 17.3 7.2 17.4-3.3 17.3 4.6 17.4-1.4 17.4 2 17.3-9.5h34.7l17.4 7 17.3 3 17.4-10v36.2h-243z" fill="url(#paint1_linear)"/>
      <path d="M313.5 153.8l-.2-.4-.3.1v.3h.5zm0 20.4h-.5v.5h.5v-.5zm243 0v.5h.5v-.5h-.5zm0-36.2h.5a.5.5 0 00-.8-.4l.3.4zm-17.4 10v.5H539.4l-.3-.5zm-17.3-3l-.2.5h.1v-.5zm-17.4-7l.2-.5h-.2v.5zm-34.7 0v-.5h-.2l.2.5zm-17.3 9.5l-.1.5H452.6l-.2-.5zm-17.4-2v-.5.5zm-17.4 1.4v.5-.5zm-17.3-4.6l.1-.5h-.2v.5zm-17.4 3.3l-.2.5H383v-.5zm-17.3-7.2l.2-.4-.3-.2-.2.2.3.4zM348.2 153l-.2.5.3.1.2-.2-.3-.4zm-17.3-7.6l.2-.5h-.5l.3.5zm-17.9 8.5v20.4h1v-20.4h-1zm.5 21h243v-1h-243v1zm243.5-.6V138h-1v36.2h1zm-17.6-25.8l17.4-10-.5-.8-17.4 10 .5.8zm-17.7-3l17.4 3 .1-.9-17.3-3-.2 1zm-17.5-7l17.4 7 .4-.9-17.4-7-.4 1zm-17.1.1h17.3v-1h-17.3v1zm-17.4 0h17.4v-1h-17.4v1zm-17.1 9.4l17.4-9.5-.5-.8L452 147l.5.8zm-17.7-2l17.4 2 .1-1-17.3-2-.2 1zm-17.2 1.5L435 146v-1l-17.4 1.4v1zm-17.5-4.6l17.3 4.6.3-1-17.4-4.6-.2 1zM383 146l17.4-3.3-.2-1-17.4 3.3.2 1zm-17.6-7.2l17.3 7.2.4-1-17.3-7.1-.4.9zm-16.9 14.4l17.4-14.5-.6-.8-17.4 14.6.6.7zm-17.8-7.6l17.3 7.7.4-1-17.3-7.6-.4 1zm-17 8.6l17.4-8.6-.5-.9-17.3 8.6.4.9z" fill="#F0F0F2"/>
    </g>
    <circle cx="500" cy="107" r="8" stroke="#F5F5F5" stroke-width="4"/>
    <path d="M522 99.7c-3 0-5 1.9-5 4.6 0 2.4 1.8 4.2 4.1 4.2 1.4 0 2.7-.7 3.3-1.9 0 2.6-.8 4.2-2.5 4.2-1 0-1.8-.5-2-1.5h-2.7c.3 2.2 2 3.9 4.7 3.9 3.2 0 5.3-2.6 5.3-7 0-4.9-2.5-6.5-5.2-6.5zm0 2.2c1.3 0 2.2 1 2.2 2.3 0 1.2-1 2.3-2.2 2.3-1.3 0-2.2-1-2.2-2.3 0-1.3 1-2.3 2.2-2.3zm12.4 11.3c3 0 5-1.6 5-3.9 0-1.6-1-2.8-3-3v-.1c1.5-.3 2.5-1.3 2.5-2.8 0-2-1.8-3.7-4.5-3.7s-4.7 1.6-4.7 3.9h2.6c0-1 1-1.7 2.1-1.7s1.9.7 1.9 1.7-.9 1.7-2.2 1.7H533v2h1.2c1.5 0 2.4.8 2.4 1.8s-.8 1.8-2.1 1.8c-1.2 0-2.1-.6-2.2-1.6h-2.8c0 2.3 2.1 3.9 5 3.9z" fill="#48434F"/>
    <path d="M500 99a8 8 0 11-5.8 2.5" stroke="#37B635" stroke-width="4"/>
  </g>
  <g filter="url(#filter1_dd)">
    <rect x="49" y="91" width="240" height="122" rx="4" fill="#fff"/>
    <circle cx="215" cy="133" r="8" fill="#37B635"/>
    <path d="M213.2 136.1l-2-2.8a.7.7 0 011-1l2.5 2.6c.4.4.3 1 0 1.4a1 1 0 01-1.5-.2z" fill="#fff"/>
    <path d="M213.4 136.3a1 1 0 010-1.4l4.7-5.3c.3-.2.7-.3 1 0 .2.2.3.6 0 .9l-4.3 5.6a1 1 0 01-1.4.2z" fill="#fff"/>
    <path d="M213.5 133.7c.3.3.4.5.7.2.3-.4 0 .8 0 .8l-1-.3.3-.7z" fill="#fff"/>
    <path d="M66 137h1.8v-4.3h4.3V131h-4.3v-2.7h4.7v-1.6H66V137zm8.1 0H76v-7.6h-1.8v7.6zm1-8.7c.5 0 1-.5 1-1s-.5-1-1-1c-.6 0-1.1.5-1.1 1s.5 1 1 1zm2.7 8.7h1.8v-4.5c0-1 .7-1.6 1.7-1.6h.8v-1.6h-.6a2 2 0 00-1.9 1.3v-1.2h-1.8v7.6zm11.6-5.6c-.3-1.3-1.3-2.1-3.1-2.1s-3.1.9-3.1 2.3c0 1 .7 1.8 2.2 2.1l1.3.3c.7.2 1 .4 1 .9s-.6.9-1.4.9c-.9 0-1.4-.4-1.6-1l-1.7.1c.2 1.4 1.4 2.2 3.3 2.2s3.2-1 3.2-2.4c0-1-.7-1.7-2.1-2l-1.3-.3c-.8-.2-1.1-.5-1.1-1 0-.4.6-.8 1.3-.8.8 0 1.3.5 1.4 1l1.7-.2zm5.4-2h-1.5v-1.9h-1.8v1.9h-1v1.4h1v4.2c0 1.4 1 2.1 2.4 2.1l1-.2-.2-1.4H94c-.4 0-.8 0-.8-.8v-4h1.5v-1.3zm8.3 7.7c2 0 3.2-1 3.3-2.7h-1.7c-.2.8-.8 1.3-1.5 1.3-1.2 0-1.9-1-1.9-2.5 0-1.6.7-2.5 1.9-2.5.8 0 1.3.6 1.5 1.3h1.7c-.1-1.6-1.4-2.7-3.3-2.7-2.2 0-3.6 1.6-3.6 4 0 2.2 1.4 3.8 3.6 3.8zm8.1 0c2.3 0 3.7-1.5 3.7-3.9s-1.4-4-3.7-4c-2.2 0-3.6 1.6-3.6 4s1.4 4 3.6 4zm0-1.4c-1.2 0-1.8-1.1-1.8-2.5s.6-2.5 1.8-2.5c1.2 0 1.8 1.1 1.8 2.5s-.6 2.5-1.8 2.5zm7-3.2c0-1 .7-1.7 1.6-1.7 1 0 1.5.6 1.5 1.6v4.6h1.8v-4.9c0-1.8-1-2.8-2.6-2.8-1.2 0-2 .5-2.3 1.4v-1.3h-1.8v7.6h1.8v-4.5zm10.5-3.1h-1.5v-1.9h-1.8v1.9h-1v1.4h1v4.2c0 1.4 1 2.1 2.4 2.1l1-.2-.2-1.4h-.5c-.5 0-.9 0-.9-.8v-4h1.5v-1.3zm4.9 7.7c1.7 0 3-.8 3.3-2.1l-1.7-.2c-.3.6-.8 1-1.6 1-1.2 0-2-.8-2-2.1h5.3v-.6c0-2.7-1.6-3.8-3.4-3.8-2.2 0-3.7 1.6-3.7 4 0 2.3 1.4 3.8 3.8 3.8zm-2-4.6c0-1 .8-1.8 1.9-1.8 1 0 1.7.7 1.7 1.8h-3.6zm8.7 0c0-1 .6-1.7 1.6-1.7s1.5.6 1.5 1.6v4.6h1.8v-4.9c0-1.8-1-2.8-2.6-2.8-1.2 0-2 .5-2.3 1.4h-.1v-1.3h-1.7v7.6h1.8v-4.5zm10.5-3.1h-1.5v-1.9h-1.8v1.9h-1v1.4h1v4.2c0 1.4 1 2.1 2.4 2.1l1-.2-.3-1.4h-.5c-.4 0-.8 0-.8-.8v-4h1.5v-1.3zm5.4 0h-1.6v-.6c0-.6.2-1 1-1l.6.1.4-1.4-1.4-.2c-1.3 0-2.4.8-2.4 2.3v.8h-1.1v1.4h1.1v6.2h1.8v-6.2h1.6v-1.4zm6.3 4.4c0 1.2-.9 1.7-1.7 1.7-.8 0-1.4-.6-1.4-1.6v-4.5h-1.8v4.8c0 1.9 1 2.9 2.5 2.9 1.2 0 2-.6 2.3-1.5h.1v1.4h1.8v-7.6h-1.8v4.4zm5.4-7h-1.8V137h1.8v-10.2zm-102 31h1.8v-4h.1c.3.6.9 1.3 2.2 1.3 1.8 0 3.1-1.4 3.1-4 0-2.5-1.4-3.8-3.1-3.8-1.4 0-2 .8-2.2 1.3h-.1v-1.2h-1.8v10.5zm1.8-6.6c0-1.5.6-2.5 1.8-2.5 1.2 0 1.8 1 1.8 2.5 0 1.4-.6 2.5-1.8 2.5-1.2 0-1.8-1-1.8-2.5zm9.2 4c1.2 0 1.9-.6 2.2-1.2v1H81v-5.1c0-2-1.6-2.6-3.1-2.6-1.6 0-2.8.7-3.2 2l1.6.3c.2-.5.7-1 1.6-1 .8 0 1.3.5 1.3 1.2 0 .6-.5.6-1.9.7-1.5.2-2.9.6-2.9 2.4 0 1.5 1.1 2.3 2.6 2.3zm.4-1.4c-.7 0-1.2-.3-1.2-1s.6-1 1.4-1l1.6-.4v.9c0 .8-.7 1.5-1.8 1.5zm5.4 1.2h1.8v-7.6h-1.8v7.6zm1-8.7c.5 0 1-.5 1-1s-.5-1-1-1c-.7 0-1.1.5-1.1 1s.4 1 1 1zm4.5 4.2c0-1 .6-1.7 1.6-1.7s1.5.6 1.5 1.6v4.6H93v-4.9c0-1.8-1-2.8-2.6-2.8-1.2 0-2 .5-2.3 1.4H88v-1.3h-1.7v7.6h1.8v-4.5zm10.5-3.1h-1.5v-1.9h-1.8v1.9h-1v1.4h1v4.2c0 1.4 1 2.1 2.4 2.1l1-.2-.3-1.4H98c-.4 0-.8 0-.8-.8v-4h1.5v-1.3zM237.3 127H235l-3.2 2v2.2l3-2h.1V140h2.4v-13zm6.4 13.1c.8 0 1.4-.6 1.4-1.4 0-.7-.6-1.4-1.4-1.4-.8 0-1.4.7-1.4 1.4 0 .8.6 1.4 1.4 1.4zm8.6.1c3.2 0 5-2.4 5-6.7 0-4.3-1.8-6.8-5-6.8-3.1 0-5 2.5-5 6.8s1.9 6.7 5 6.7zm0-2c-1.6 0-2.6-1.6-2.6-4.7 0-3.2 1-4.8 2.6-4.8 1.7 0 2.7 1.6 2.7 4.8 0 3.1-1 4.7-2.7 4.7zm19.5-5.4c-.3-1.7-1.7-2.7-4-2.7s-4 1.1-4 3c0 1.4 1 2.3 2.8 2.7l1.7.4c.9.2 1.3.5 1.3 1 0 .7-.7 1.2-1.8 1.2-1 0-1.8-.4-2-1.3l-2.2.2c.3 1.8 1.8 2.9 4.2 2.9 2.5 0 4.2-1.3 4.2-3.1 0-1.4-1-2.3-2.8-2.7l-1.6-.4c-1-.2-1.4-.5-1.4-1 0-.8.7-1.2 1.7-1.2s1.6.6 1.8 1.2l2-.2z" fill="#48434F"/>
    <path d="M66 117h5.2v-1h-4v-7.7H66v8.7zm6.7 0h1v-6.5h-1v6.5zm.5-7.6c.4 0 .7-.3.7-.7 0-.4-.3-.7-.7-.7-.4 0-.7.3-.7.7 0 .4.3.7.7.7zm5 10.2c1.5 0 2.8-.7 2.8-2.4v-6.7h-1v1c-.3-.3-.7-1.1-2-1.1-1.6 0-2.8 1.3-2.8 3.3 0 2 1.2 3.2 2.8 3.2 1.3 0 1.7-.8 1.9-1.1v1.3c0 1.1-.7 1.6-1.7 1.6-1.2 0-1.6-.6-2-1l-.7.6c.4.7 1.2 1.3 2.7 1.3zm0-3.6c-1.3 0-2-1-2-2.3 0-1.4.6-2.4 2-2.4 1.2 0 1.8 1 1.8 2.4s-.7 2.3-1.9 2.3zm5.6-3c0-1 .8-1.7 1.8-1.7.9 0 1.5.6 1.5 1.6v4.1h1v-4.2c0-1.6-1-2.4-2.3-2.4-1 0-1.6.4-1.9 1v-3.1h-1v8.7h1v-4zm9-2.5h-1.4v-1.6h-1v1.6h-1v.8h1v4.1c0 1.1.9 1.7 1.7 1.7l.8-.1-.2-1-.5.1c-.4 0-.8-.1-.8-1v-3.8h1.4v-.8zm2.6 2.6c0-1.2.8-1.8 1.7-1.8 1 0 1.6.6 1.6 1.6v4.1h1v-4.2c0-1.6-1-2.4-2.3-2.4-1 0-1.6.4-1.9 1v-3.1h-1v8.7h1v-4zm8.8 4c1.7 0 3-1.3 3-3.3 0-2-1.3-3.4-3-3.4-1.8 0-3 1.3-3 3.4 0 2 1.2 3.3 3 3.3zm0-.9c-1.4 0-2-1.1-2-2.4 0-1.4.6-2.5 2-2.5 1.3 0 2 1.1 2 2.5 0 1.3-.7 2.4-2 2.4zm8.6-1.9c0 1.3-1 1.8-1.7 1.8-.8 0-1.4-.6-1.4-1.6v-4h-1v4.1c0 1.7.9 2.5 2 2.5a2 2 0 002-1.2v1.1h1.1v-6.5h-1v3.8zm7.5-2.4c-.3-1-1-1.5-2.3-1.5-1.4 0-2.4.8-2.4 1.9 0 .9.5 1.5 1.7 1.8l1 .2c.7.2 1 .5 1 1s-.5 1-1.5 1c-.8 0-1.3-.4-1.5-1.1l-1 .2c.3 1.1 1.2 1.7 2.5 1.7 1.6 0 2.6-.8 2.6-2 0-.8-.6-1.4-1.7-1.7l-1-.2c-.8-.2-1.1-.5-1.1-1 0-.6.6-1 1.4-1 .8 0 1.2.5 1.4 1l.9-.3zm4.4 5.2c1.3 0 2.3-.6 2.6-1.6l-1-.3c-.3.7-.9 1-1.6 1-1.2 0-2-.7-2-2.1h4.7v-.5c0-2.4-1.5-3.2-2.8-3.2-1.8 0-3 1.4-3 3.4s1.2 3.3 3 3.3zm-2-3.9c0-1 .7-2 1.9-2 1 0 1.7.9 1.7 2h-3.7z" fill="#78757A"/>
    <mask id="b" maskUnits="userSpaceOnUse" x="48" y="162" width="240" height="32">
      <path transform="matrix(-1 0 0 1 287 162)" fill="#fff" stroke="#F0F0F2" d="M-.5.5h239v31H-.5z"/>
    </mask>
    <g mask="url(#b)">
      <path d="M289.5 200.4V174h-17.4l-17.3 10H220l-17.4-10-17.3-10h-34.8l-17.3 17.2-17.4-6-17.3-8.1-17.4.7-17.3 7-17.4-11.6v37.2h243z" fill="url(#paint2_linear)"/>
      <path d="M289.5 174v-.5h.5v.5h-.5zm0 26.4h.5v.5h-.5v-.5zm-243 0v.5H46v-.5h.5zm0-37.2H46a.5.5 0 01.8-.5l-.3.5zm17.4 11.5l.1.5h-.4l.3-.5zm17.3-6.9l-.2-.4h.1l.1.4zm17.4-.7v-.5h.2l-.2.5zm17.3 8.2l-.1.5.1-.5zm17.4 5.9l.3.3-.2.3-.3-.1.2-.5zm17.3-17.2l-.3-.4.1-.1h.2v.5zm34.8 0v-.5h.2l-.2.5zm17.3 10l-.2.4.2-.4zm17.4 10v.5h-.2l.2-.5zm34.7 0l.2.4v.1h-.2v-.5zm17.3-10l-.2-.4.1-.1h.1v.5zm17.9 0v26.4h-1V174h1zm-.5 26.9h-243v-1h243v1zM46 200.4v-37.2h1v37.2h-1zm17.6-25.3l-17.4-11.5.6-.9L64 174.3l-.5.8zm17.8-6.8L64 175.2l-.3-1 17.3-6.8.4 1zm17.2-.7l-17.4.7v-1l17.3-.7v1zm17.1 8.1l-17.3-8.2.4-.9 17.3 8.2-.4 1zm17.4 6l-17.3-6 .3-.9 17.3 6-.3.9zm17.9-17.3l-17.4 17.1-.7-.7 17.4-17.2.7.8zm17 .1h-17.4v-1H168v1zm17.4 0H168v-1h17.4v1zm17 10l-17.3-10 .5-1 17.4 10-.5 1zm17.4 10l-17.3-10 .5-1 17.3 10-.5 1zm17.6 0h-17.3v-1h17.3v1zm17.4 0h-17.4v-1h17.4v1zm17.6-10l-17.4 10-.5-1 17.4-10 .5 1zm17.1 0h-17.4v-1h17.4v1z" fill="#F0F0F2"/>
    </g>
    <path d="M265 182.3a6.7 6.7 0 100 13.4 6.7 6.7 0 000-13.4zm.7 10h-1.4v-4h1.4v4zm0-5.3h-1.4v-1.3h1.4v1.3z" fill="#000" fill-opacity=".3"/>
  </g>
  <g filter="url(#filter2_dd)">
    <rect x="235" y="163" width="240" height="122" rx="4" fill="#fff"/>
  </g>
  <path d="M253.3 209l.9-2.5h3.8l.8 2.5h2l-3.6-10.2h-2.3l-3.6 10.2h2zm1.3-4l1.4-4h.1l1.4 4h-2.9zm10.6 4.1c1.9 0 3.1-1 3.2-2.7h-1.7c-.1.8-.7 1.3-1.5 1.3-1.2 0-1.9-1-1.9-2.5 0-1.6.8-2.5 1.9-2.5.8 0 1.4.6 1.5 1.3h1.7c-.1-1.6-1.4-2.7-3.3-2.7-2.2 0-3.6 1.6-3.6 4 0 2.2 1.4 3.8 3.7 3.8zm8 0c2 0 3.2-1 3.3-2.7h-1.7c-.2.8-.8 1.3-1.6 1.3-1 0-1.8-1-1.8-2.5 0-1.6.7-2.5 1.8-2.5 1 0 1.4.6 1.6 1.3h1.7c-.1-1.6-1.4-2.7-3.3-2.7-2.2 0-3.6 1.6-3.6 4 0 2.2 1.4 3.8 3.6 3.8zm8.2 0c1.7 0 3-.8 3.3-2.1l-1.7-.2c-.2.6-.8 1-1.6 1-1.2 0-2-.8-2-2.1h5.4v-.6c0-2.7-1.7-3.8-3.5-3.8-2.2 0-3.6 1.6-3.6 4 0 2.3 1.4 3.8 3.7 3.8zm-2-4.6c.1-1 .8-1.8 1.9-1.8 1 0 1.7.7 1.7 1.8h-3.6zm13-1.1c-.3-1.3-1.4-2.1-3.2-2.1-1.8 0-3 .9-3 2.3 0 1 .6 1.8 2.1 2.1l1.3.3c.7.2 1 .4 1 .9s-.5.9-1.4.9c-.8 0-1.3-.4-1.5-1l-1.8.1c.3 1.4 1.4 2.2 3.3 2.2 2 0 3.3-1 3.3-2.4 0-1-.7-1.7-2.2-2l-1.3-.3c-.7-.2-1-.5-1-1 0-.4.5-.8 1.3-.8s1.2.5 1.4 1l1.6-.2zm7.6 0c-.2-1.3-1.3-2.1-3-2.1-2 0-3.2.9-3.2 2.3 0 1 .7 1.8 2.2 2.1l1.3.3c.7.2 1 .4 1 .9s-.5.9-1.4.9c-.8 0-1.4-.4-1.5-1l-1.8.1c.3 1.4 1.4 2.2 3.3 2.2 2 0 3.3-1 3.3-2.4 0-1-.7-1.7-2.2-2l-1.3-.3c-.8-.2-1-.5-1-1 0-.4.5-.8 1.3-.8s1.2.5 1.4 1l1.6-.2zm1.6 5.6h1.8v-7.6h-1.8v7.6zm1-8.7c.5 0 1-.5 1-1s-.5-1-1-1c-.6 0-1 .5-1 1s.4 1 1 1zm2.8 8.7h1.7v-1.2h.2c.2.6.8 1.3 2.1 1.3 1.8 0 3.2-1.4 3.2-4 0-2.5-1.4-3.8-3.2-3.8-1.3 0-1.9.8-2.1 1.3h-.1v-3.8h-1.8V209zm1.7-3.8c0-1.5.7-2.5 1.8-2.5 1.2 0 1.9 1 1.9 2.5 0 1.4-.7 2.5-1.9 2.5-1.1 0-1.8-1-1.8-2.5zm7 3.8h1.8v-7.6h-1.8v7.6zm1-8.7c.5 0 1-.5 1-1s-.5-1-1-1c-.7 0-1.1.5-1.1 1s.4 1 1 1zm4.5-1.5h-1.8V209h1.8v-10.2zm1.8 10.2h1.8v-7.6h-1.8v7.6zm1-8.7c.5 0 1-.5 1-1s-.5-1-1-1c-.7 0-1.1.5-1.1 1s.4 1 1 1zm6.5 1h-1.5v-1.8h-1.8v1.9h-1.1v1.4h1v4.2c0 1.4 1.1 2.1 2.5 2.1l1-.2-.3-1.4h-.5c-.5 0-.8 0-.8-.8v-4h1.5v-1.3zm2.6 10.5c1.4 0 2.2-.7 2.7-1.9l3-8.5h-1.9l-1.8 5.7-1.8-5.7h-2l2.9 7.8-.2.4c-.3.8-.9.9-1.6.7l-.5 1.4 1.2.1z" fill="#48434F"/>
  <path d="M252 189h5.2v-1h-4v-7.7H252v8.7zm6.7 0h1v-6.5h-1v6.5zm.5-7.6c.4 0 .7-.3.7-.7 0-.4-.3-.7-.7-.7-.4 0-.7.3-.7.7 0 .4.3.7.7.7zm5 10.2c1.5 0 2.8-.7 2.8-2.4v-6.7h-1v1c-.3-.3-.7-1.1-2-1.1-1.6 0-2.8 1.3-2.8 3.3 0 2 1.2 3.2 2.8 3.2 1.3 0 1.7-.8 1.9-1.1v1.3c0 1.1-.7 1.6-1.7 1.6-1.2 0-1.6-.6-2-1l-.7.6c.4.7 1.2 1.3 2.7 1.3zm0-3.6c-1.3 0-2-1-2-2.3 0-1.4.6-2.4 2-2.4 1.2 0 1.8 1 1.8 2.4s-.7 2.3-1.9 2.3zm5.6-3c0-1 .8-1.7 1.8-1.7.9 0 1.5.6 1.5 1.6v4.1h1v-4.2c0-1.6-1-2.4-2.3-2.4-1 0-1.6.4-1.9 1v-3.1h-1v8.7h1v-4zm9-2.5h-1.4v-1.6h-1v1.6h-1v.8h1v4.1c0 1.1.9 1.7 1.7 1.7l.8-.1-.2-1-.5.1c-.4 0-.8-.1-.8-1v-3.8h1.4v-.8zm2.6 2.6c0-1.2.8-1.8 1.7-1.8 1 0 1.6.6 1.6 1.6v4.1h1v-4.2c0-1.6-1-2.4-2.3-2.4-1 0-1.6.4-1.9 1v-3.1h-1v8.7h1v-4zm8.8 4c1.7 0 3-1.3 3-3.3 0-2-1.3-3.4-3-3.4-1.8 0-3 1.3-3 3.4 0 2 1.2 3.3 3 3.3zm0-.9c-1.4 0-2-1.1-2-2.4 0-1.4.6-2.5 2-2.5 1.3 0 2 1.1 2 2.5 0 1.3-.7 2.4-2 2.4zm8.6-1.9c0 1.3-1 1.8-1.7 1.8-.8 0-1.4-.6-1.4-1.6v-4h-1v4.1c0 1.7.9 2.5 2 2.5a2 2 0 002-1.2h.1v1.1h1v-6.5h-1v3.8zm7.5-2.4c-.3-1-1-1.5-2.3-1.5-1.4 0-2.4.8-2.4 1.9 0 .9.5 1.5 1.7 1.8l1 .2c.7.2 1 .5 1 1s-.5 1-1.5 1c-.8 0-1.3-.4-1.5-1.1l-1 .2c.3 1.1 1.2 1.7 2.5 1.7 1.6 0 2.6-.8 2.6-2 0-.8-.6-1.4-1.7-1.7l-1-.2c-.8-.2-1.1-.5-1.1-1 0-.6.6-1 1.4-1 .8 0 1.2.5 1.4 1l.9-.3zm4.4 5.2c1.3 0 2.3-.6 2.6-1.6l-1-.3c-.3.7-.9 1-1.6 1-1.2 0-2-.7-2-2.1h4.7v-.5c0-2.4-1.5-3.2-2.8-3.2-1.8 0-3 1.4-3 3.4s1.2 3.3 3 3.3zm-2-3.9c0-1 .7-2 1.9-2 1 0 1.7.9 1.7 2h-3.7z" fill="#78757A"/>
  <mask id="c" maskUnits="userSpaceOnUse" x="235" y="242" width="240" height="32">
    <path fill="#fff" stroke="#F0F0F2" d="M235.5 242.5h239v31h-239z"/>
  </mask>
  <g mask="url(#c)">
    <path d="M233.5 280.4V260l17.4-8.6 17.3 7.7 17.4 5.5 17.3-2.9 17.4-13.3 17.3 4.7 17.4-1.5 17.4-6 17.3 15.6 17.4-6 17.3-8.1 17.4.7 17.3-3 17.4-1.6v37.2h-243z" fill="url(#paint3_linear)"/>
    <path d="M233.5 260l-.2-.5-.3.2v.3h.5zm0 20.4h-.5v.5h.5v-.5zm243 0v.5h.5v-.5h-.5zm0-37.2h.5a.5.5 0 00-.5-.5v.5zm-17.4 1.5v-.5.5zm-17.3 3.1v.5-.5zm-17.4-.7v-.5h-.2l.2.5zm-17.3 8.2l.1.5-.1-.5zm-17.4 5.9l-.3.4.2.2.3-.1-.2-.5zm-17.3-15.6l.3-.3-.2-.2h-.3l.2.5zm-17.4 6v.5h.1l-.1-.5zm-17.4 1.5v.4-.4zm-17.3-4.7l.1-.4-.2-.1-.2.2.3.3zm-17.4 13.3l.1.5h.2l-.3-.5zm-17.3 2.9l-.2.5H285.7l-.1-.5zm-17.4-5.5l-.2.5.2-.5zm-17.3-7.7l.2-.4-.3-.1h-.2l.3.5zM233 260v20.4h1V260h-1zm.5 20.9h243v-1h-243v1zm243.5-.5v-37.2h-1v37.2h1zm-17.8-35.2l17.3-1.5v-1l-17.4 1.5v1zm-17.3 3.1l17.3-3.1-.1-1-17.4 3.1.2 1zm-17.5-.7l17.4.7v-1l-17.3-.7v1zm-17.1 8.1l17.3-8.2-.4-.9-17.3 8.2.4 1zm-17.4 6l17.3-6-.3-.9-17.3 6 .3.9zM372 246l17.4 15.6.6-.8-17.3-15.5-.7.7zm-16.8 6.1l17.3-6-.3-1-17.4 6 .4 1zm-17.5 1.5L355 252v-1l-17.4 1.5v1zm-17.5-4.7l17.3 4.6.3-1-17.4-4.5-.2 1zm-17 13.2l17.4-13.3-.6-.7-17.4 13.3.6.7zm-17.5 3l17.3-2.9-.2-1-17.3 2.9.2 1zm-17.6-5.5l17.3 5.5.3-1-17.3-5.5-.3 1zm-17.4-7.7l17.3 7.7.4-1-17.3-7.6-.4.9zm-17 8.5l17.4-8.5-.5-1-17.3 8.6.4 1z" fill="#000" fill-opacity=".1"/>
  </g>
  <circle cx="389.5" cy="260.5" r="1.5" fill="#FFB238"/>
  <circle cx="303.5" cy="261.5" r="1.5" fill="#FFB238"/>
  <circle cx="285.5" cy="264.5" r="1.5" fill="#FA2915"/>
  <circle cx="267.5" cy="258.5" r="1.5" fill="#FFB238"/>
  <circle cx="251.5" cy="251.5" r="1.5" fill="#37B635"/>
  <circle cx="235.5" cy="259.5" r="1.5" fill="#FFB238"/>
  <circle cx="406.5" cy="255.5" r="1.5" fill="#FFB238"/>
  <circle cx="424.5" cy="247.5" r="1.5" fill="#37B635"/>
  <circle cx="442.5" cy="247.5" r="1.5" fill="#37B635"/>
  <circle cx="459.5" cy="244.5" r="1.5" fill="#37B635"/>
  <circle cx="474.5" cy="243.5" r="1.5" fill="#37B635"/>
  <circle cx="320.5" cy="247.5" r="1.5" fill="#37B635"/>
  <circle cx="337.5" cy="252.5" r="1.5" fill="#37B635"/>
  <circle cx="354.5" cy="251.5" r="1.5" fill="#37B635"/>
  <path d="M451 262.3a6.7 6.7 0 100 13.4 6.7 6.7 0 000-13.4zm.7 10h-1.4v-4h1.4v4zm0-5.3h-1.4v-1.3h1.4v1.3z" fill="#000" fill-opacity=".3"/>
  <circle cx="372.5" cy="245.5" r="2.5" fill="#37B635"/>
  <path stroke="#000" stroke-opacity=".1" d="M372.5 292v-44"/>
  <g filter="url(#filter3_dd)">
    <rect x="356" y="272" width="35" height="26" rx="2" fill="#2CA72C"/>
    <path d="M368.7 279.6c-2.2 0-3.7 1.6-3.7 3.6 0 1.9 1.4 3.3 3.2 3.3 1 0 2-.6 2.5-1.4 0 2.1-.7 3.4-2.1 3.4-.9 0-1.5-.5-1.7-1.3h-1.8c.2 1.7 1.6 3 3.5 3 2.4 0 4-2.1 4-5.6 0-3.7-2-5-4-5zm0 1.5c1 0 1.9 1 1.9 2s-.9 2-2 2c-1 0-1.8-.9-1.8-2 0-1 .8-2 1.9-2zm9.5 9c2.2 0 3.8-1.2 3.8-3 0-1.2-.8-2.1-2.3-2.3v-.1c1.1-.2 1.9-1 1.9-2.2 0-1.6-1.3-2.8-3.4-2.8-2 0-3.5 1.2-3.5 2.9h1.7c0-.9.9-1.4 1.8-1.4 1 0 1.6.6 1.6 1.4 0 .9-.7 1.5-1.8 1.5h-.9v1.4h.9c1.3 0 2 .7 2 1.6 0 .9-.7 1.5-1.8 1.5-1 0-1.8-.5-1.9-1.4h-1.8c0 1.8 1.5 3 3.7 3z" fill="#fff"/>
  </g>
  <circle cx="419" cy="204" r="8" stroke="#F5F5F5" stroke-width="4"/>
  <path d="M419 196a8 8 0 11-3.6.8" stroke="#37B635" stroke-width="4"/>
  <path d="M440.8 197.7c-3 0-5 1.9-4.9 4.6 0 2.4 1.7 4.2 4 4.2 1.5 0 2.7-.7 3.3-1.9h.1c0 2.6-.9 4.2-2.6 4.2-1 0-1.7-.5-2-1.5H436c.3 2.2 2 3.9 4.7 3.9 3.2 0 5.3-2.6 5.3-7 0-4.9-2.5-6.5-5.2-6.5zm0 2.2c1.3 0 2.2 1 2.2 2.3 0 1.2-1 2.3-2.2 2.3-1.3 0-2.2-1-2.2-2.3 0-1.3 1-2.3 2.2-2.3zm12 11.3c3 0 5.1-1.6 5.1-3.7 0-1.7-1.3-3-2.8-3.3a3 3 0 002.3-3c0-2-2-3.5-4.6-3.5-2.6 0-4.6 1.5-4.6 3.6a3 3 0 002.4 2.9 3.3 3.3 0 00-2.8 3.3c0 2.1 2 3.7 5 3.7zm0-2c-1.3 0-2.2-.8-2.2-2 0-1 1-1.9 2.2-1.9 1.3 0 2.2.8 2.2 2 0 1-.9 1.8-2.2 1.8zm0-5.9c-1 0-1.9-.7-1.9-1.8 0-1 .8-1.7 2-1.7 1 0 1.8.7 1.8 1.7s-.8 1.8-1.9 1.8z" fill="#48434F"/>
  <defs>
    <linearGradient id="paint0_linear" x1="319" y1="0" x2="319" y2="360" gradientUnits="userSpaceOnUse">
      <stop stop-color="#F5FCFF"/>
      <stop offset="0" stop-color="#F5FCFF"/>
      <stop offset=".4" stop-color="#F5FCFF"/>
      <stop offset="1" stop-color="#F6EDFA"/>
    </linearGradient>
    <linearGradient id="paint1_linear" x1="435" y1="139" x2="435" y2="174.2" gradientUnits="userSpaceOnUse">
      <stop stop-color="#F5F5F5"/>
      <stop offset="1" stop-color="#FBFBFB" stop-opacity="0"/>
    </linearGradient>
    <linearGradient id="paint2_linear" x1="168" y1="165.2" x2="168" y2="200.4" gradientUnits="userSpaceOnUse">
      <stop stop-color="#F5F5F5"/>
      <stop offset="1" stop-color="#FBFBFB" stop-opacity="0"/>
    </linearGradient>
    <linearGradient id="paint3_linear" x1="355" y1="245.2" x2="355" y2="280.4" gradientUnits="userSpaceOnUse">
      <stop stop-opacity=".1"/>
      <stop offset="1" stop-color="#FBFBFB" stop-opacity="0"/>
    </linearGradient>
    <filter id="filter0_dd" x="267" y="33" width="336" height="218" filterUnits="userSpaceOnUse" color-interpolation-filters="sRGB">
      <feFlood flood-opacity="0" result="BackgroundImageFix"/>
      <feColorMatrix in="SourceAlpha" values="0 0 0 0 0 0 0 0 0 0 0 0 0 0 0 0 0 0 127 0"/>
      <feOffset dy="8"/>
      <feGaussianBlur stdDeviation="8"/>
      <feColorMatrix values="0 0 0 0 0.0509804 0 0 0 0 0.588235 0 0 0 0 0.94902 0 0 0 0.04 0"/>
      <feBlend in2="BackgroundImageFix" result="effect1_dropShadow"/>
      <feColorMatrix in="SourceAlpha" values="0 0 0 0 0 0 0 0 0 0 0 0 0 0 0 0 0 0 127 0"/>
      <feOffset dy="16"/>
      <feGaussianBlur stdDeviation="24"/>
      <feColorMatrix values="0 0 0 0 0.0509804 0 0 0 0 0.588235 0 0 0 0 0.94902 0 0 0 0.16 0"/>
      <feBlend in2="effect1_dropShadow" result="effect2_dropShadow"/>
      <feBlend in="SourceGraphic" in2="effect2_dropShadow" result="shape"/>
    </filter>
    <filter id="filter1_dd" x="0" y="59" width="337" height="218" filterUnits="userSpaceOnUse" color-interpolation-filters="sRGB">
      <feFlood flood-opacity="0" result="BackgroundImageFix"/>
      <feColorMatrix in="SourceAlpha" values="0 0 0 0 0 0 0 0 0 0 0 0 0 0 0 0 0 0 127 0"/>
      <feOffset dy="8"/>
      <feGaussianBlur stdDeviation="8"/>
      <feColorMatrix values="0 0 0 0 0.0509804 0 0 0 0 0.588235 0 0 0 0 0.94902 0 0 0 0.04 0"/>
      <feBlend in2="BackgroundImageFix" result="effect1_dropShadow"/>
      <feColorMatrix in="SourceAlpha" values="0 0 0 0 0 0 0 0 0 0 0 0 0 0 0 0 0 0 127 0"/>
      <feOffset dy="16"/>
      <feGaussianBlur stdDeviation="24"/>
      <feColorMatrix values="0 0 0 0 0.0509804 0 0 0 0 0.588235 0 0 0 0 0.94902 0 0 0 0.16 0"/>
      <feBlend in2="effect1_dropShadow" result="effect2_dropShadow"/>
      <feBlend in="SourceGraphic" in2="effect2_dropShadow" result="shape"/>
    </filter>
    <filter id="filter2_dd" x="187" y="131" width="336" height="218" filterUnits="userSpaceOnUse" color-interpolation-filters="sRGB">
      <feFlood flood-opacity="0" result="BackgroundImageFix"/>
      <feColorMatrix in="SourceAlpha" values="0 0 0 0 0 0 0 0 0 0 0 0 0 0 0 0 0 0 127 0"/>
      <feOffset dy="8"/>
      <feGaussianBlur stdDeviation="8"/>
      <feColorMatrix values="0 0 0 0 0.4 0 0 0 0 0.2 0 0 0 0 0.6 0 0 0 0.04 0"/>
      <feBlend in2="BackgroundImageFix" result="effect1_dropShadow"/>
      <feColorMatrix in="SourceAlpha" values="0 0 0 0 0 0 0 0 0 0 0 0 0 0 0 0 0 0 127 0"/>
      <feOffset dy="16"/>
      <feGaussianBlur stdDeviation="24"/>
      <feColorMatrix values="0 0 0 0 0.541176 0 0 0 0 0.294118 0 0 0 0 0.686275 0 0 0 0.16 0"/>
      <feBlend in2="effect1_dropShadow" result="effect2_dropShadow"/>
      <feBlend in="SourceGraphic" in2="effect2_dropShadow" result="shape"/>
    </filter>
    <filter id="filter3_dd" x="308" y="240" width="131" height="122" filterUnits="userSpaceOnUse" color-interpolation-filters="sRGB">
      <feFlood flood-opacity="0" result="BackgroundImageFix"/>
      <feColorMatrix in="SourceAlpha" values="0 0 0 0 0 0 0 0 0 0 0 0 0 0 0 0 0 0 127 0"/>
      <feOffset dy="8"/>
      <feGaussianBlur stdDeviation="8"/>
      <feColorMatrix values="0 0 0 0 0.0509804 0 0 0 0 0.588235 0 0 0 0 0.94902 0 0 0 0.04 0"/>
      <feBlend in2="BackgroundImageFix" result="effect1_dropShadow"/>
      <feColorMatrix in="SourceAlpha" values="0 0 0 0 0 0 0 0 0 0 0 0 0 0 0 0 0 0 127 0"/>
      <feOffset dy="16"/>
      <feGaussianBlur stdDeviation="24"/>
      <feColorMatrix values="0 0 0 0 0.0509804 0 0 0 0 0.588235 0 0 0 0 0.94902 0 0 0 0.16 0"/>
      <feBlend in2="effect1_dropShadow" result="effect2_dropShadow"/>
      <feBlend in="SourceGraphic" in2="effect2_dropShadow" result="shape"/>
    </filter>
    <clipPath id="clip0">
      <path fill="#fff" transform="translate(155 16)" d="M0 0h243v17.1H0z"/>
    </clipPath>
  </defs>
</svg>
